source-code-pro_bold.sfdir

StartChar: exclam
Encoding: 33 33 486
Width: 600
Flags: MW
HStem: -12 21G<271.5 328.5> -12 202<271.5 328.5>
VStem: 200 200<60 119.5> 229.5 141 242 116
LayerCount: 2
Fore
SplineSet
252 255 m 1x88
 232 537 l 1
 227 670 l 1
 373 670 l 1x90
 368 537 l 1
 348 255 l 1
 252 255 l 1x88
200 90 m 0x60
 200 149 243 190 300 190 c 0
 357 190 400 149 400 90 c 0
 400 30 357 -12 300 -12 c 0
 243 -12 200 30 200 90 c 0x60
EndSplineSet
EndChar

StartChar: quotedbl
Encoding: 34 34 491
Width: 600
Flags: MW
HStem: 303 382<122 122 122 212 388 478 388 388>
VStem: 84.5 165 350.5 165
LayerCount: 2
Fore
SplineSet
122 303 m 1
 87 540 l 1
 82 685 l 1
 252 685 l 1
 247 540 l 1
 212 303 l 1
 122 303 l 1
388 303 m 1
 353 540 l 1
 348 685 l 1
 518 685 l 1
 513 540 l 1
 478 303 l 1
 388 303 l 1
EndSplineSet
EndChar

StartChar: numbersign
Encoding: 35 35 533
Width: 600
Flags: MW
HStem: 0 21G<122 122 122 207 311 311 311 396> 187 94<70 144 70 155 70 230 241 333 430 514> 391 94<90 169 90 181 90 254 266 358 455 534>
VStem: 70 464<187 485 281 485>
LayerCount: 2
Fore
SplineSet
122 0 m 1
 144 187 l 1
 70 187 l 1
 70 281 l 1
 155 281 l 1
 169 391 l 1
 90 391 l 1
 90 485 l 1
 181 485 l 1
 202 650 l 1
 286 650 l 1
 266 485 l 1
 370 485 l 1
 391 650 l 1
 475 650 l 1
 455 485 l 1
 534 485 l 1
 534 391 l 1
 443 391 l 1
 430 281 l 1
 514 281 l 1
 514 187 l 1
 419 187 l 1
 396 0 l 1
 311 0 l 1
 333 187 l 1
 230 187 l 1
 207 0 l 1
 122 0 l 1
241 281 m 1
 344 281 l 1
 358 391 l 1
 254 391 l 1
 241 281 l 1
EndSplineSet
EndChar

StartChar: dollar
Encoding: 36 36 630
Width: 600
Flags: MW
HStem: -110 263<277.5 333 277.5 353 255 333> -110 855<255 353 255 353> 499 246<278.5 328.5>
VStem: 91 141<417.5 468 417.5 494> 255 98<-110 36 36 36 615 745> 383 140<184 240>
LayerCount: 2
Fore
SplineSet
513 533 m 1x48
 440 449 l 1
 393 482 356 499 301 499 c 0
 256 499 232 483 232 453 c 0
 232 382 523 391 523 209 c 0xbc
 523 125 464 58 353 39 c 1
 353 -110 l 1
 255 -110 l 1
 255 36 l 1x88
 190 43 114 71 64 115 c 1
 128 215 l 1
 191 176 246 153 309 153 c 0
 357 153 383 170 383 198 c 0
 383 282 91 267 91 451 c 0xbc
 91 537 154 598 255 614 c 1
 255 745 l 1
 353 745 l 1x28
 353 615 l 1
 422 606 472 575 513 533 c 1x48
EndSplineSet
Substitution2: "'ss04' Style Set 4 in Latin lookup 20 subtable" dollar.a
Substitution2: "'aalt' Access All Alternates in Latin lookup 0 subtable" dollar.a
EndChar

StartChar: percent
Encoding: 37 37 649
Width: 600
Flags: MW
HStem: -12 79<415.5 440.5 415.5 470> 245 79<415.5 440.5> 312 78<159.5 184.5 159.5 214.5> 568 79<159.5 184.5>
VStem: 24 101<447 515.5 447 532.5> 220 101<447 515.5> 279 101<124 192 124 209.5> 475 101<124 192>
LayerCount: 2
Fore
SplineSet
172 312 m 0xbd
 88 312 24 378 24 481 c 0
 24 584 88 647 172 647 c 0
 257 647 321 584 321 481 c 0
 321 378 257 312 172 312 c 0xbd
172 390 m 0
 197 390 220 413 220 481 c 0
 220 550 197 568 172 568 c 0
 147 568 125 550 125 481 c 0
 125 413 147 390 172 390 c 0
93 28 m 1
 17 101 l 1
 204 274 l 1
 255 227 l 1
 93 28 l 1
509 624 m 1
 584 551 l 1
 398 377 l 1
 347 425 l 1
 509 624 l 1
428 -12 m 0xc3
 343 -12 279 54 279 158 c 0
 279 261 343 324 428 324 c 0
 512 324 576 261 576 158 c 0
 576 54 512 -12 428 -12 c 0xc3
428 67 m 0
 453 67 475 90 475 158 c 0
 475 226 453 245 428 245 c 0
 403 245 380 226 380 158 c 0
 380 90 403 67 428 67 c 0
EndSplineSet
EndChar

StartChar: ampersand
Encoding: 38 38 460
Width: 600
Flags: MW
HStem: -12 112<224.5 262 224.5 268.5> 567 97<237.5 265>
VStem: 23 139<158.5 196.5 158.5 217> 86 121<482 516.5 482 539.5> 291 113<495.5 531.5>
LayerCount: 2
Fore
SplineSet
162 183 m 0xe8
 162 134 198 100 251 100 c 0
 273 100 294 108 315 123 c 1
 269 163 226 208 191 256 c 1
 173 234 162 210 162 183 c 0xe8
207 494 m 0xd8
 207 470 214 445 226 419 c 1
 263 446 291 475 291 516 c 0
 291 547 280 567 250 567 c 0
 225 567 207 539 207 494 c 0xd8
452 368 m 1
 586 368 l 1
 566 289 537 216 495 148 c 1
 528 127 558 113 586 107 c 1
 551 -12 l 1
 506 -1 460 20 413 51 c 1
 364 12 305 -12 232 -12 c 0
 96 -12 23 74 23 174 c 0xe8
 23 260 72 312 128 353 c 1
 101 404 86 452 86 493 c 0
 86 586 148 664 247 664 c 0
 345 664 404 606 404 516 c 0
 404 433 341 382 280 334 c 1
 312 293 354 253 397 218 c 1
 421 260 440 310 452 368 c 1
EndSplineSet
EndChar

StartChar: quotesingle
Encoding: 39 39 490
Width: 600
Flags: MW
HStem: 303 382<255 255 255 345>
VStem: 217.5 165
LayerCount: 2
Fore
SplineSet
255 303 m 1
 220 540 l 1
 215 685 l 1
 385 685 l 1
 380 540 l 1
 345 303 l 1
 255 303 l 1
EndSplineSet
EndChar

StartChar: parenleft
Encoding: 40 40 511
Width: 600
Flags: MW
HStem: -179 914<392 392>
VStem: 181 123<199 357 199 372>
LayerCount: 2
Fore
SplineSet
392 -179 m 1
 262 -64 181 90 181 278 c 0
 181 466 262 620 392 735 c 1
 474 670 l 1
 355 554 304 436 304 278 c 0
 304 120 355 2 474 -114 c 1
 392 -179 l 1
EndSplineSet
Substitution2: "'subs' Subscript in Latin lookup 14 subtable" parenleft.subs
Substitution2: "'sups' Superscript in Latin lookup 13 subtable" parenleft.sups
Substitution2: "'dnom' Denominators in Latin lookup 9 subtable" parenleft.dnom
Substitution2: "'numr' Numerators in Latin lookup 8 subtable" parenleft.numr
AlternateSubs2: "'aalt' Access All Alternates in Latin lookup 1 subtable" parenleft.numr parenleft.dnom parenleft.sups parenleft.subs
EndChar

StartChar: parenright
Encoding: 41 41 512
Width: 600
Flags: MW
HStem: -179 914<208 208>
VStem: 296 123<199 357>
LayerCount: 2
Fore
SplineSet
208 -179 m 1
 126 -114 l 1
 245 2 296 120 296 278 c 0
 296 436 245 554 126 670 c 1
 208 735 l 1
 338 620 419 466 419 278 c 0
 419 90 338 -64 208 -179 c 1
EndSplineSet
Substitution2: "'subs' Subscript in Latin lookup 14 subtable" parenright.subs
Substitution2: "'sups' Superscript in Latin lookup 13 subtable" parenright.sups
Substitution2: "'dnom' Denominators in Latin lookup 9 subtable" parenright.dnom
Substitution2: "'numr' Numerators in Latin lookup 8 subtable" parenright.numr
AlternateSubs2: "'aalt' Access All Alternates in Latin lookup 1 subtable" parenright.numr parenright.dnom parenright.sups parenright.subs
EndChar

StartChar: asterisk
Encoding: 42 42 521
Width: 600
Flags: MW
HStem: 91 475<184 339 261 416>
VStem: 255 90
LayerCount: 2
Fore
SplineSet
184 91 m 1
 120 135 l 1
 217 292 l 1
 64 360 l 1
 87 431 l 1
 249 388 l 1
 261 566 l 1
 339 566 l 1
 351 388 l 1
 513 431 l 1
 536 360 l 1
 383 292 l 1
 480 135 l 1
 416 91 l 1
 300 233 l 1
 184 91 l 1
EndSplineSet
Substitution2: "'ss01' Style Set 1 in Latin lookup 17 subtable" asterisk.a
Substitution2: "'aalt' Access All Alternates in Latin lookup 0 subtable" asterisk.a
EndChar

StartChar: plus
Encoding: 43 43 660
Width: 600
Flags: MW
HStem: 278 104<70 246 70 246 354 530>
VStem: 246 108<94 278 94 278 382 566>
LayerCount: 2
Fore
SplineSet
246 94 m 1
 246 278 l 1
 70 278 l 1
 70 382 l 1
 246 382 l 1
 246 566 l 1
 354 566 l 1
 354 382 l 1
 530 382 l 1
 530 278 l 1
 354 278 l 1
 354 94 l 1
 246 94 l 1
EndSplineSet
EndChar

StartChar: comma
Encoding: 44 44 482
Width: 600
Flags: MW
HStem: -217 432<219 346> 10 205<274 303>
VStem: 312 117<-20.5 11>
LayerCount: 2
Fore
SplineSet
219 -217 m 1xa0
 182 -131 l 1
 269 -101 312 -52 312 11 c 1
 308 10 305 10 301 10 c 0
 245 10 193 46 193 112 c 0
 193 174 243 215 305 215 c 0x60
 387 215 429 151 429 43 c 0
 429 -84 357 -175 219 -217 c 1xa0
EndSplineSet
Substitution2: "'subs' Subscript in Latin lookup 14 subtable" comma.subs
Substitution2: "'sups' Superscript in Latin lookup 13 subtable" comma.sups
Substitution2: "'dnom' Denominators in Latin lookup 9 subtable" comma.dnom
Substitution2: "'numr' Numerators in Latin lookup 8 subtable" comma.numr
AlternateSubs2: "'aalt' Access All Alternates in Latin lookup 1 subtable" comma.numr comma.dnom comma.sups comma.subs
EndChar

StartChar: hyphen
Encoding: 45 45 502
Width: 600
Flags: MW
HStem: 278 104<70 530 70 530>
VStem: 70 460<278 382 278 382>
LayerCount: 2
Fore
SplineSet
70 278 m 1
 70 382 l 1
 530 382 l 1
 530 278 l 1
 70 278 l 1
EndSplineSet
Substitution2: "'ss01' Style Set 1 in Latin lookup 17 subtable" hyphen.a
Substitution2: "'aalt' Access All Alternates in Latin lookup 0 subtable" hyphen.a
EndChar

StartChar: period
Encoding: 46 46 481
Width: 600
Flags: MW
HStem: -12 235<265.5 334.5>
VStem: 184 232<72 138>
LayerCount: 2
Fore
SplineSet
184 105 m 0
 184 171 231 223 300 223 c 0
 369 223 416 171 416 105 c 0
 416 39 369 -12 300 -12 c 0
 231 -12 184 39 184 105 c 0
EndSplineSet
Substitution2: "'subs' Subscript in Latin lookup 14 subtable" period.subs
Substitution2: "'sups' Superscript in Latin lookup 13 subtable" period.sups
Substitution2: "'dnom' Denominators in Latin lookup 9 subtable" period.dnom
Substitution2: "'numr' Numerators in Latin lookup 8 subtable" period.numr
AlternateSubs2: "'aalt' Access All Alternates in Latin lookup 1 subtable" period.numr period.dnom period.sups period.subs
EndChar

StartChar: slash
Encoding: 47 47 517
Width: 600
Flags: MW
HStem: -160 870<74 526 74 526>
VStem: 74 452
LayerCount: 2
Fore
SplineSet
526 710 m 1
 197 -160 l 1
 74 -160 l 1
 403 710 l 1
 526 710 l 1
EndSplineSet
Substitution2: "'frac' Diagonal Fractions in Latin lookup 10 subtable" slash.frac
EndChar

StartChar: zero
Encoding: 48 48 461
Width: 600
Flags: MW
HStem: -12 114<268.5 331.5 268.5 373.5> 246 152<279 321> 533 114<268.5 331.5>
VStem: 56 131<237.5 402.5 237.5 428> 225 150<299 345> 413 131<237.5 402.5>
LayerCount: 2
Fore
SplineSet
300 -12 m 0
 153 -12 56 105 56 320 c 0
 56 536 153 647 300 647 c 0
 447 647 544 536 544 320 c 0
 544 105 447 -12 300 -12 c 0
300 533 m 0
 237 533 187 485 187 320 c 0
 187 155 237 102 300 102 c 0
 363 102 413 155 413 320 c 0
 413 485 363 533 300 533 c 0
300 246 m 0
 258 246 225 276 225 322 c 0
 225 368 258 398 300 398 c 0
 342 398 375 368 375 322 c 0
 375 276 342 246 300 246 c 0
EndSplineSet
Substitution2: "'onum' Oldstyle Figures in Latin lookup 15 subtable" zero.onum
Substitution2: "'subs' Subscript in Latin lookup 14 subtable" zero.subs
Substitution2: "'sups' Superscript in Latin lookup 13 subtable" zero.sups
Substitution2: "'dnom' Denominators in Latin lookup 9 subtable" zero.dnom
Substitution2: "'numr' Numerators in Latin lookup 8 subtable" zero.numr
AlternateSubs2: "'aalt' Access All Alternates in Latin lookup 1 subtable" zero.numr zero.dnom zero.sups zero.subs zero.onum
EndChar

StartChar: one
Encoding: 49 49 462
Width: 600
Flags: MW
HStem: 0 119<82 246 393 537 82 246> 486 149<115 393>
VStem: 246 147<119 486 486 486>
LayerCount: 2
Fore
SplineSet
393 119 m 1
 537 119 l 1
 537 0 l 1
 82 0 l 1
 82 119 l 1
 246 119 l 1
 246 486 l 1
 115 486 l 1
 115 577 l 1
 189 590 238 608 285 635 c 1
 393 635 l 1
 393 119 l 1
EndSplineSet
Substitution2: "'onum' Oldstyle Figures in Latin lookup 15 subtable" one.onum
Substitution2: "'subs' Subscript in Latin lookup 14 subtable" one.subs
Substitution2: "'sups' Superscript in Latin lookup 13 subtable" one.sups
Substitution2: "'dnom' Denominators in Latin lookup 9 subtable" one.dnom
Substitution2: "'numr' Numerators in Latin lookup 8 subtable" one.numr
AlternateSubs2: "'aalt' Access All Alternates in Latin lookup 1 subtable" one.numr one.dnom one.sups one.subs one.onum
EndChar

StartChar: two
Encoding: 50 50 463
Width: 600
Flags: MW
HStem: 0 124<384 535 384 535> 532 115<232.5 291>
VStem: 362 140<391.5 467>
LayerCount: 2
Fore
SplineSet
58 0 m 1
 58 84 l 1
 240 237 362 345 362 436 c 0
 362 498 324 532 258 532 c 0
 207 532 166 501 130 467 c 1
 51 546 l 1
 117 613 180 647 278 647 c 0
 411 647 502 567 502 445 c 0
 502 338 392 224 269 116 c 1
 305 120 351 124 384 124 c 2
 535 124 l 1
 535 0 l 1
 58 0 l 1
EndSplineSet
Substitution2: "'onum' Oldstyle Figures in Latin lookup 15 subtable" two.onum
Substitution2: "'subs' Subscript in Latin lookup 14 subtable" two.subs
Substitution2: "'sups' Superscript in Latin lookup 13 subtable" two.sups
Substitution2: "'dnom' Denominators in Latin lookup 9 subtable" two.dnom
Substitution2: "'numr' Numerators in Latin lookup 8 subtable" two.numr
AlternateSubs2: "'aalt' Access All Alternates in Latin lookup 1 subtable" two.numr two.dnom two.sups two.subs two.onum
EndChar

StartChar: three
Encoding: 51 51 464
Width: 600
Flags: MW
HStem: -12 119<236 299.5 236 346> 273 104<192 254.5 192 266.5> 532 115<244 298>
VStem: 363 147<440 484> 384 147<158 210>
LayerCount: 2
Fore
SplineSet
42 78 m 1xe8
 110 171 l 1
 152 134 207 107 265 107 c 0
 334 107 384 134 384 182 c 0xe8
 384 238 341 273 192 273 c 1
 192 377 l 1
 317 377 363 411 363 462 c 0
 363 506 327 532 269 532 c 0
 219 532 178 511 134 476 c 1
 60 566 l 1
 122 616 194 647 276 647 c 0
 414 647 510 584 510 473 c 0xf0
 510 407 465 361 389 332 c 1
 389 328 l 1
 469 307 531 255 531 173 c 0
 531 55 413 -12 279 -12 c 0
 170 -12 91 24 42 78 c 1xe8
EndSplineSet
Substitution2: "'onum' Oldstyle Figures in Latin lookup 15 subtable" three.onum
Substitution2: "'subs' Subscript in Latin lookup 14 subtable" three.subs
Substitution2: "'sups' Superscript in Latin lookup 13 subtable" three.sups
Substitution2: "'dnom' Denominators in Latin lookup 9 subtable" three.dnom
Substitution2: "'numr' Numerators in Latin lookup 8 subtable" three.numr
AlternateSubs2: "'aalt' Access All Alternates in Latin lookup 1 subtable" three.numr three.dnom three.sups three.subs three.onum
EndChar

StartChar: four
Encoding: 52 52 465
Width: 600
Flags: MW
HStem: 0 21G<341 478 341 341> 152 112<177 341 177 341 478 558> 510 125<342 346 342 342>
VStem: 341 137<0 152 0 152 264 371 371 391>
LayerCount: 2
Fore
SplineSet
177 264 m 1
 341 264 l 1
 341 371 l 2
 341 411 344 470 346 510 c 1
 342 510 l 1
 321 474 295 438 273 402 c 1
 177 264 l 1
558 264 m 1
 558 152 l 1
 478 152 l 1
 478 0 l 1
 341 0 l 1
 341 152 l 1
 35 152 l 1
 35 253 l 1
 300 635 l 1
 478 635 l 1
 478 264 l 1
 558 264 l 1
EndSplineSet
Substitution2: "'onum' Oldstyle Figures in Latin lookup 15 subtable" four.onum
Substitution2: "'subs' Subscript in Latin lookup 14 subtable" four.subs
Substitution2: "'sups' Superscript in Latin lookup 13 subtable" four.sups
Substitution2: "'dnom' Denominators in Latin lookup 9 subtable" four.dnom
Substitution2: "'numr' Numerators in Latin lookup 8 subtable" four.numr
AlternateSubs2: "'aalt' Access All Alternates in Latin lookup 1 subtable" four.numr four.dnom four.sups four.subs four.onum
EndChar

StartChar: five
Encoding: 53 53 466
Width: 600
Flags: MW
HStem: -12 119<232 298 232 348.5> 304 103<298 302.5> 511 124<241 503 241 241>
VStem: 105.5 130 385 147<173.5 238>
LayerCount: 2
Fore
SplineSet
46 77 m 1
 112 170 l 1
 154 135 202 107 262 107 c 0
 334 107 385 141 385 206 c 0
 385 270 336 304 269 304 c 0
 227 304 205 296 162 272 c 1
 97 314 l 1
 114 635 l 1
 503 635 l 1
 503 511 l 1
 241 511 l 1
 230 392 l 1
 259 403 282 407 314 407 c 0
 431 407 532 345 532 210 c 0
 532 69 414 -12 283 -12 c 0
 173 -12 98 27 46 77 c 1
EndSplineSet
Substitution2: "'onum' Oldstyle Figures in Latin lookup 15 subtable" five.onum
Substitution2: "'subs' Subscript in Latin lookup 14 subtable" five.subs
Substitution2: "'sups' Superscript in Latin lookup 13 subtable" five.sups
Substitution2: "'dnom' Denominators in Latin lookup 9 subtable" five.dnom
Substitution2: "'numr' Numerators in Latin lookup 8 subtable" five.numr
AlternateSubs2: "'aalt' Access All Alternates in Latin lookup 1 subtable" five.numr five.dnom five.sups five.subs five.onum
EndChar

StartChar: six
Encoding: 54 54 467
Width: 600
Flags: MW
HStem: -12 110<289 339.5 289 378> 293 104<325 345> 528 119<308 368>
VStem: 60 136 411 134<165 233.5>
LayerCount: 2
Fore
SplineSet
314 98 m 0
 365 98 411 129 411 201 c 0
 411 266 373 293 317 293 c 0
 280 293 239 276 200 231 c 1
 215 130 264 98 314 98 c 0
536 571 m 1
 459 483 l 1
 432 507 389 528 347 528 c 0
 269 528 202 477 196 328 c 1
 241 372 301 397 349 397 c 0
 460 397 545 335 545 201 c 0
 545 69 439 -12 317 -12 c 0
 187 -12 60 80 60 303 c 0
 60 540 194 647 334 647 c 0
 424 647 493 612 536 571 c 1
EndSplineSet
Substitution2: "'onum' Oldstyle Figures in Latin lookup 15 subtable" six.onum
Substitution2: "'subs' Subscript in Latin lookup 14 subtable" six.subs
Substitution2: "'sups' Superscript in Latin lookup 13 subtable" six.sups
Substitution2: "'dnom' Denominators in Latin lookup 9 subtable" six.dnom
Substitution2: "'numr' Numerators in Latin lookup 8 subtable" six.numr
AlternateSubs2: "'aalt' Access All Alternates in Latin lookup 1 subtable" six.numr six.dnom six.sups six.subs six.onum
EndChar

StartChar: seven
Encoding: 55 55 468
Width: 600
Flags: MW
HStem: 0 21G<193 193 193 341> 511 124<62 381 62 539>
VStem: 193 148<0 0>
LayerCount: 2
Fore
SplineSet
193 0 m 1
 205 212 248 344 381 511 c 1
 62 511 l 1
 62 635 l 1
 539 635 l 1
 539 545 l 1
 378 367 353 248 341 0 c 1
 193 0 l 1
EndSplineSet
Substitution2: "'onum' Oldstyle Figures in Latin lookup 15 subtable" seven.onum
Substitution2: "'subs' Subscript in Latin lookup 14 subtable" seven.subs
Substitution2: "'sups' Superscript in Latin lookup 13 subtable" seven.sups
Substitution2: "'dnom' Denominators in Latin lookup 9 subtable" seven.dnom
Substitution2: "'numr' Numerators in Latin lookup 8 subtable" seven.numr
AlternateSubs2: "'aalt' Access All Alternates in Latin lookup 1 subtable" seven.numr seven.dnom seven.sups seven.subs seven.onum
EndChar

StartChar: nine
Encoding: 57 57 470
Width: 600
Flags: MW
HStem: -12 119<231 290.5 231 335> 238 104<253.5 273.5> 537 110<259 309>
VStem: 53 134<401.5 470 401.5 500> 403 135
LayerCount: 2
Fore
SplineSet
282 342 m 0
 319 342 360 359 399 405 c 1
 383 505 334 537 284 537 c 0
 234 537 187 506 187 434 c 0
 187 369 225 342 282 342 c 0
62 64 m 1
 140 152 l 1
 166 128 210 107 252 107 c 0
 329 107 397 158 403 308 c 1
 357 264 297 238 250 238 c 0
 139 238 53 300 53 434 c 0
 53 566 159 647 281 647 c 0
 412 647 538 555 538 332 c 0
 538 95 405 -12 265 -12 c 0
 175 -12 106 24 62 64 c 1
EndSplineSet
Substitution2: "'onum' Oldstyle Figures in Latin lookup 15 subtable" nine.onum
Substitution2: "'subs' Subscript in Latin lookup 14 subtable" nine.subs
Substitution2: "'sups' Superscript in Latin lookup 13 subtable" nine.sups
Substitution2: "'dnom' Denominators in Latin lookup 9 subtable" nine.dnom
Substitution2: "'numr' Numerators in Latin lookup 8 subtable" nine.numr
AlternateSubs2: "'aalt' Access All Alternates in Latin lookup 1 subtable" nine.numr nine.dnom nine.sups nine.subs nine.onum
EndChar

StartChar: colon
Encoding: 58 58 483
Width: 600
Flags: MW
HStem: -12 235<265.5 334.5> 311 235<265.5 334.5>
VStem: 184 232<72 138 396 461.5>
LayerCount: 2
Fore
SplineSet
184 429 m 0
 184 494 231 546 300 546 c 0
 369 546 416 494 416 429 c 0
 416 363 369 311 300 311 c 0
 231 311 184 363 184 429 c 0
184 105 m 0
 184 171 231 223 300 223 c 0
 369 223 416 171 416 105 c 0
 416 39 369 -12 300 -12 c 0
 231 -12 184 39 184 105 c 0
EndSplineSet
EndChar

StartChar: semicolon
Encoding: 59 59 484
Width: 600
Flags: MW
HStem: 10 205<274 303> 311 235<265.5 334.5>
VStem: 184 232<396 461.5> 312 117<-20.5 11>
LayerCount: 2
Fore
SplineSet
300 311 m 0x60
 231 311 184 363 184 429 c 0
 184 494 231 546 300 546 c 0
 369 546 416 494 416 429 c 0
 416 363 369 311 300 311 c 0x60
219 -217 m 1
 182 -131 l 1
 269 -101 312 -52 312 11 c 1
 308 10 305 10 301 10 c 0
 245 10 193 46 193 112 c 0
 193 174 243 215 305 215 c 0
 387 215 429 151 429 43 c 0x90
 429 -84 357 -175 219 -217 c 1
EndSplineSet
EndChar

StartChar: less
Encoding: 60 60 666
Width: 600
Flags: MW
HStem: 31 602<502 502>
VStem: 116 121<330 334 330 383 330 383>
LayerCount: 2
Fore
SplineSet
116 281 m 1
 116 383 l 1
 502 633 l 1
 502 500 l 1
 237 334 l 1
 237 330 l 1
 502 164 l 1
 502 31 l 1
 116 281 l 1
EndSplineSet
EndChar

StartChar: equal
Encoding: 61 61 665
Width: 600
Flags: MW
HStem: 162 103<70 530 70 530> 395 103<70 530 70 530>
VStem: 70 460<162 265 162 265 395 498 162 498>
LayerCount: 2
Fore
SplineSet
70 395 m 1
 70 498 l 1
 530 498 l 1
 530 395 l 1
 70 395 l 1
70 162 m 1
 70 265 l 1
 530 265 l 1
 530 162 l 1
 70 162 l 1
EndSplineSet
EndChar

StartChar: greater
Encoding: 62 62 667
Width: 600
Flags: MW
HStem: 31 602<98 98>
VStem: 363 121<330 334 334 334>
LayerCount: 2
Fore
SplineSet
484 383 m 1
 484 281 l 1
 98 31 l 1
 98 164 l 1
 363 330 l 1
 363 334 l 1
 98 500 l 1
 98 633 l 1
 484 383 l 1
EndSplineSet
EndChar

StartChar: question
Encoding: 63 63 488
Width: 600
Flags: MW
HStem: -12 21G<257.5 314.5> -12 202<257.5 314.5> 563 119<261.5 303>
VStem: 186 200<60 119.5> 356 141<463 521>
LayerCount: 2
Fore
SplineSet
218 255 m 1xa8
 196 389 356 426 356 500 c 0
 356 542 324 563 282 563 c 0
 241 563 210 544 180 517 c 1
 98 592 l 1
 146 645 213 682 292 682 c 0
 407 682 497 629 497 519 c 0
 497 388 334 371 346 255 c 1
 218 255 l 1xa8
186 90 m 0x70
 186 149 229 190 286 190 c 0
 343 190 386 149 386 90 c 0
 386 30 343 -12 286 -12 c 0
 229 -12 186 30 186 90 c 0x70
EndSplineSet
EndChar

StartChar: at
Encoding: 64 64 531
Width: 600
Flags: MW
HStem: -147 89<289.5 374 289.5 374.5> 88 96<353.5 364> 556 88<281 372.5>
VStem: 31 101<145 359 145 388.5> 210 107<217 254 217 282> 444 106<220 312 312 312>
LayerCount: 2
Fore
SplineSet
550 399 m 2
 550 100 l 1
 472 100 l 1
 461 151 l 1
 457 151 l 1
 432 114 391 88 337 88 c 0
 264 88 210 150 210 228 c 0
 210 336 307 381 459 400 c 1
 459 416 l 2
 459 490 417 556 328 556 c 0
 234 556 132 469 132 249 c 0
 132 41 235 -58 344 -58 c 0
 404 -58 438 -43 477 -20 c 1
 519 -93 l 1
 463 -126 410 -147 339 -147 c 0
 179 -147 31 -19 31 253 c 0
 31 524 168 644 331 644 c 0
 483 644 550 537 550 399 c 2
317 232 m 0
 317 202 337 184 370 184 c 0
 399 184 422 198 444 220 c 1
 444 312 l 1
 351 297 317 276 317 232 c 0
EndSplineSet
Substitution2: "'case' Case-Sensitive Forms in Latin lookup 16 subtable" at.case
Substitution2: "'aalt' Access All Alternates in Latin lookup 0 subtable" at.case
EndChar

StartChar: B
Encoding: 66 66 3
Width: 600
GlyphClass: 2
Flags: MW
HStem: 0 114<231 295 295 307> 285 104<231 281 281 295 231 281> 538 114<231 282 231 231>
VStem: 84 147<114 114 114 285 389 538> 383 144<461 493.5> 413 144<173.5 231.5>
AnchorPoint: "Anchor-2" 312 -22 basechar 0
AnchorPoint: "Anchor-0" 285 674 basechar 0
LayerCount: 2
Fore
SplineSet
84 0 m 1xf4
 84 652 l 1
 288 652 l 2
 423 652 527 615 527 490 c 0xf8
 527 432 492 369 415 349 c 1
 415 345 l 1
 508 328 557 279 557 192 c 0
 557 59 448 0 307 0 c 2
 84 0 l 1xf4
231 389 m 1
 281 389 l 2
 353 389 383 420 383 469 c 0
 383 518 351 538 282 538 c 2
 231 538 l 1
 231 389 l 1
231 114 m 1
 295 114 l 2
 375 114 413 144 413 203 c 0xf4
 413 260 376 285 295 285 c 2
 231 285 l 1
 231 114 l 1
EndSplineSet
EndChar

StartChar: D
Encoding: 68 68 5
Width: 600
GlyphClass: 2
Flags: MW
HStem: 0 119<213 234 234 250> 533 119<213 234 213 213>
VStem: 65 148<119 119 119 533> 405 151<251 407>
AnchorPoint: "Anchor-2" 290 -22 basechar 0
AnchorPoint: "Anchor-0" 297 674 basechar 0
LayerCount: 2
Fore
SplineSet
65 0 m 1
 65 652 l 1
 242 652 l 2
 431 652 556 553 556 329 c 0
 556 105 431 0 250 0 c 2
 65 0 l 1
213 119 m 1
 234 119 l 2
 336 119 405 173 405 329 c 0
 405 485 336 533 234 533 c 2
 213 533 l 1
 213 119 l 1
EndSplineSet
EndChar

StartChar: E
Encoding: 69 69 6
Width: 600
GlyphClass: 2
Flags: MW
HStem: 0 124<241 534 241 534> 274 123<241 481 241 481> 528 124<241 524 241 241>
VStem: 94 147<124 274 397 528>
AnchorPoint: "Anchor-4" 420 0 basechar 0
AnchorPoint: "Anchor-2" 321 -22 basechar 0
AnchorPoint: "Anchor-0" 322 674 basechar 0
LayerCount: 2
Fore
SplineSet
94 0 m 1
 94 652 l 1
 524 652 l 1
 524 528 l 1
 241 528 l 1
 241 397 l 1
 481 397 l 1
 481 274 l 1
 241 274 l 1
 241 124 l 1
 534 124 l 1
 534 0 l 1
 94 0 l 1
EndSplineSet
EndChar

StartChar: F
Encoding: 70 70 7
Width: 600
GlyphClass: 2
Flags: MW
HStem: 0 21G<108 108 108 255> 253 124<255 496 255 496> 528 124<255 538 255 255>
VStem: 108 147<0 253 377 528>
AnchorPoint: "Anchor-2" 197 -22 basechar 0
AnchorPoint: "Anchor-0" 327 674 basechar 0
LayerCount: 2
Fore
SplineSet
108 0 m 1
 108 652 l 1
 538 652 l 1
 538 528 l 1
 255 528 l 1
 255 377 l 1
 496 377 l 1
 496 253 l 1
 255 253 l 1
 255 0 l 1
 108 0 l 1
EndSplineSet
EndChar

StartChar: G
Encoding: 71 71 8
Width: 600
GlyphClass: 2
Flags: MW
HStem: -12 127<299.5 363.5 299.5 384.5> 247 120<320 415 320 547> 537 127<302.5 371>
VStem: 44 152<260 392.5 260 431> 415 132<135 247 247 247>
AnchorPoint: "Anchor-2" 334 -22 basechar 0
AnchorPoint: "Anchor-0" 330 674 basechar 0
LayerCount: 2
Fore
SplineSet
44 322 m 0
 44 540 176 664 345 664 c 0
 433 664 494 623 536 581 c 1
 455 490 l 1
 427 518 397 537 345 537 c 0
 260 537 196 458 196 327 c 0
 196 193 248 115 351 115 c 0
 376 115 401 122 415 135 c 1
 415 247 l 1
 320 247 l 1
 320 367 l 1
 547 367 l 1
 547 67 l 1
 503 26 426 -12 343 -12 c 0
 176 -12 44 103 44 322 c 0
EndSplineSet
EndChar

StartChar: H
Encoding: 72 72 9
Width: 600
GlyphClass: 2
Flags: MW
HStem: 0 21G<64 64 64 211 389 389 389 536> 272 129<211 389 211 389> 632 20G<64 211 211 211 389 536 536 536>
VStem: 64 147<0 272 401 652> 389 147<0 272 272 272 401 652 0 652>
AnchorPoint: "Anchor-2" 299 -22 basechar 0
AnchorPoint: "Anchor-0" 299 674 basechar 0
LayerCount: 2
Fore
SplineSet
64 0 m 1
 64 652 l 1
 211 652 l 1
 211 401 l 1
 389 401 l 1
 389 652 l 1
 536 652 l 1
 536 0 l 1
 389 0 l 1
 389 272 l 1
 211 272 l 1
 211 0 l 1
 64 0 l 1
EndSplineSet
EndChar

StartChar: I
Encoding: 73 73 10
Width: 600
GlyphClass: 2
Flags: MW
HStem: 0 124<74 226 74 226 374 526> 528 124<74 226 74 526 374 374 374 526>
VStem: 226 148<124 528 124 528>
AnchorPoint: "Anchor-4" 281 0 basechar 0
AnchorPoint: "Anchor-2" 300 -22 basechar 0
AnchorPoint: "Anchor-0" 300 674 basechar 0
LayerCount: 2
Fore
SplineSet
74 0 m 1
 74 124 l 1
 226 124 l 1
 226 528 l 1
 74 528 l 1
 74 652 l 1
 526 652 l 1
 526 528 l 1
 374 528 l 1
 374 124 l 1
 526 124 l 1
 526 0 l 1
 74 0 l 1
EndSplineSet
EndChar

StartChar: J
Encoding: 74 74 11
Width: 600
GlyphClass: 2
Flags: MW
HStem: -12 127<246.5 301.5 246.5 363> 529 123<114 369 114 516>
VStem: 369 147<234 529 529 529>
AnchorPoint: "Anchor-2" 303 -22 basechar 0
AnchorPoint: "Anchor-0" 322 674 basechar 0
LayerCount: 2
Fore
SplineSet
59 96 m 1
 144 187 l 1
 182 140 225 115 268 115 c 0
 335 115 369 144 369 234 c 2
 369 529 l 1
 114 529 l 1
 114 652 l 1
 516 652 l 1
 516 222 l 2
 516 94 453 -12 273 -12 c 0
 201 -12 116 16 59 96 c 1
EndSplineSet
EndChar

StartChar: K
Encoding: 75 75 12
Width: 600
GlyphClass: 2
Flags: MW
HStem: 0 21G<68 68 68 217 431 431 431 594> 632 20G<68 217 217 217 413 575 575 575>
VStem: 68 149<0 175 385 652>
AnchorPoint: "Anchor-2" 323 -22 basechar 0
AnchorPoint: "Anchor-0" 312 674 basechar 0
LayerCount: 2
Fore
SplineSet
68 0 m 1
 68 652 l 1
 217 652 l 1
 217 385 l 1
 220 385 l 1
 413 652 l 1
 575 652 l 1
 380 392 l 1
 594 0 l 1
 431 0 l 1
 293 275 l 1
 217 175 l 1
 217 0 l 1
 68 0 l 1
EndSplineSet
EndChar

StartChar: L
Encoding: 76 76 13
Width: 600
GlyphClass: 2
Flags: MW
HStem: 0 124<254 544 254 544> 632 20G<107 254 254 254>
VStem: 107 147<124 652 124 652 124 652>
AnchorPoint: "Anchor-2" 332 -22 basechar 0
AnchorPoint: "Anchor-0" 195 674 basechar 0
LayerCount: 2
Fore
SplineSet
107 0 m 1
 107 652 l 1
 254 652 l 1
 254 124 l 1
 544 124 l 1
 544 0 l 1
 107 0 l 1
EndSplineSet
EndChar

StartChar: M
Encoding: 77 77 14
Width: 600
GlyphClass: 2
Flags: MW
HStem: 0 21G<65 65 65 182 416 416 416 535> 174 157<300 303 300 331 266 303> 508 144<163 167 163 163 432 435 432 432>
VStem: 65 117<0 213 0 652> 416 119<0 213 213 248.5>
AnchorPoint: "Anchor-2" 300 -22 basechar 0
AnchorPoint: "Anchor-0" 300 674 basechar 0
LayerCount: 2
Fore
SplineSet
65 0 m 1
 65 652 l 1
 212 652 l 1
 278 421 l 1
 300 331 l 1
 303 331 l 1
 325 421 l 1
 388 652 l 1
 535 652 l 1
 535 0 l 1
 416 0 l 1
 416 213 l 2
 416 284 428 438 435 508 c 1
 432 508 l 1
 381 329 l 1
 331 174 l 1
 266 174 l 1
 216 329 l 1
 167 508 l 1
 163 508 l 1
 170 438 182 284 182 213 c 2
 182 0 l 1
 65 0 l 1
EndSplineSet
EndChar

StartChar: N
Encoding: 78 78 15
Width: 600
GlyphClass: 2
Flags: MW
HStem: 0 21G<66 66 66 207 384 384 384 534> 0 184<384 414 410 414 410 534> 467 185<186 190 186 186> 632 20G<66 216 216 216 393 534 534 534>
VStem: 66 141<0 231 0 652> 393 141<421 652 0 652>
AnchorPoint: "Anchor-2" 300 -22 basechar 0
AnchorPoint: "Anchor-0" 306 674 basechar 0
LayerCount: 2
Fore
SplineSet
66 0 m 1x9c
 66 652 l 1
 216 652 l 1
 354 327 l 1
 410 184 l 1
 414 184 l 1x5c
 407 253 393 345 393 421 c 2
 393 652 l 1
 534 652 l 1
 534 0 l 1
 384 0 l 1
 246 325 l 1
 190 467 l 1
 186 467 l 1xac
 193 395 207 308 207 231 c 2
 207 0 l 1
 66 0 l 1x9c
EndSplineSet
EndChar

StartChar: O
Encoding: 79 79 16
Width: 600
GlyphClass: 2
Flags: MW
HStem: -12 127<266 334 266 377.5> 537 127<266 334>
VStem: 38 151<263.5 394 263.5 435.5> 411 151<263.5 394>
AnchorPoint: "Anchor-4" 300 0 basechar 0
AnchorPoint: "Anchor-3" 424 642 basechar 0
AnchorPoint: "Anchor-2" 300 -22 basechar 0
AnchorPoint: "Anchor-0" 300 674 basechar 0
LayerCount: 2
Fore
SplineSet
300 -12 m 0
 145 -12 38 116 38 329 c 0
 38 542 145 664 300 664 c 0
 455 664 562 541 562 329 c 0
 562 116 455 -12 300 -12 c 0
300 115 m 0
 368 115 411 198 411 329 c 0
 411 459 368 537 300 537 c 0
 232 537 189 459 189 329 c 0
 189 198 232 115 300 115 c 0
EndSplineSet
EndChar

StartChar: P
Encoding: 80 80 17
Width: 600
GlyphClass: 2
Flags: MW
HStem: 0 21G<74 74 74 221> 221 117<221 303 303 312 221 303> 535 117<221 303 221 221>
VStem: 74 147<0 221 338 535> 422 145<408 476>
AnchorPoint: "Anchor-2" 158 -22 basechar 0
AnchorPoint: "Anchor-0" 313 674 basechar 0
LayerCount: 2
Fore
SplineSet
74 0 m 1
 74 652 l 1
 312 652 l 2
 453 652 567 600 567 442 c 0
 567 289 450 221 312 221 c 2
 221 221 l 1
 221 0 l 1
 74 0 l 1
221 338 m 1
 303 338 l 2
 384 338 422 374 422 442 c 0
 422 510 381 535 303 535 c 2
 221 535 l 1
 221 338 l 1
EndSplineSet
EndChar

StartChar: Q
Encoding: 81 81 18
Width: 600
GlyphClass: 2
Flags: MW
HStem: -178 118<477.5 504.5> 537 127<262.5 331>
VStem: 36 151<263.5 394 263.5 435.5> 407 150<263.5 394>
AnchorPoint: "Anchor-0" 305 676 basechar 0
LayerCount: 2
Fore
SplineSet
297 537 m 0
 228 537 187 459 187 329 c 0
 187 198 228 115 297 115 c 0
 365 115 407 198 407 329 c 0
 407 459 365 537 297 537 c 0
554 -47 m 1
 580 -157 l 1
 558 -169 525 -178 484 -178 c 0
 357 -178 269 -105 228 -3 c 1
 111 30 36 149 36 329 c 0
 36 542 141 664 297 664 c 0
 452 664 557 541 557 329 c 0
 557 158 489 41 382 2 c 1
 405 -45 454 -60 501 -60 c 0
 521 -60 540 -54 554 -47 c 1
EndSplineSet
EndChar

StartChar: R
Encoding: 82 82 19
Width: 600
GlyphClass: 2
Flags: MW
HStem: 0 21G<70 217 70 70 419 584 419 419> 235 117<217 289 289 294 217 289> 535 117<217 217 217 289>
VStem: 70 147<0 235 352 535> 408 145<417 481>
AnchorPoint: "Anchor-2" 320 -22 basechar 0
AnchorPoint: "Anchor-0" 303 674 basechar 0
LayerCount: 2
Fore
SplineSet
217 535 m 1
 217 352 l 1
 289 352 l 2
 367 352 408 385 408 449 c 0
 408 513 367 535 289 535 c 2
 217 535 l 1
584 0 m 1
 419 0 l 1
 294 235 l 1
 217 235 l 1
 217 0 l 1
 70 0 l 1
 70 652 l 1
 301 652 l 2
 439 652 553 604 553 449 c 0
 553 353 506 292 437 261 c 1
 584 0 l 1
EndSplineSet
EndChar

StartChar: T
Encoding: 84 84 21
Width: 600
GlyphClass: 2
Flags: MW
HStem: 0 21G<226 226 226 374> 528 124<31 226 31 569 374 374 374 569>
VStem: 226 148<0 528 0 528>
AnchorPoint: "Anchor-2" 300 -22 basechar 0
AnchorPoint: "Anchor-1" 300 0 basechar 0
AnchorPoint: "Anchor-0" 300 674 basechar 0
LayerCount: 2
Fore
SplineSet
226 0 m 1
 226 528 l 1
 31 528 l 1
 31 652 l 1
 569 652 l 1
 569 528 l 1
 374 528 l 1
 374 0 l 1
 226 0 l 1
EndSplineSet
EndChar

StartChar: U
Encoding: 85 85 22
Width: 600
GlyphClass: 2
Flags: MW
HStem: -12 127<271 333 271 381> 632 20G<64 211 211 211 394 536 536 536>
VStem: 64 147<251 652> 394 142<236 251 251 652>
AnchorPoint: "Anchor-4" 300 0 basechar 0
AnchorPoint: "Anchor-3" 512 662 basechar 0
AnchorPoint: "Anchor-2" 300 -22 basechar 0
AnchorPoint: "Anchor-0" 300 674 basechar 0
LayerCount: 2
Fore
SplineSet
64 251 m 2
 64 652 l 1
 211 652 l 1
 211 236 l 2
 211 158 240 115 302 115 c 0
 364 115 394 158 394 236 c 2
 394 652 l 1
 536 652 l 1
 536 251 l 2
 536 82 460 -12 302 -12 c 0
 143 -12 64 82 64 251 c 2
EndSplineSet
EndChar

StartChar: V
Encoding: 86 86 23
Width: 600
GlyphClass: 2
Flags: MW
HStem: 0 21G<212 212 212 389> 0 139<212 305 301 305 301 389> 632 20G<15 171 171 171 435 585 585 585>
VStem: 15 570<652 652>
AnchorPoint: "Anchor-2" 297 -22 basechar 0
AnchorPoint: "Anchor-0" 300 674 basechar 0
LayerCount: 2
Fore
SplineSet
212 0 m 1xb0
 15 652 l 1
 171 652 l 1
 249 348 l 1
 269 277 282 211 301 139 c 1
 305 139 l 1x70
 325 211 339 277 358 348 c 2
 435 652 l 1
 585 652 l 1
 389 0 l 1
 212 0 l 1xb0
EndSplineSet
EndChar

StartChar: W
Encoding: 87 87 24
Width: 600
GlyphClass: 2
Flags: MW
HStem: 0 139<91 182 179 182 179 242 428 432> 330 156<299 302 299 299> 632 20G<4 154 154 154 456 596 596 596>
VStem: 4 592<652 652>
AnchorPoint: "Anchor-2" 302 -22 basechar 0
AnchorPoint: "Anchor-0" 300 674 basechar 0
LayerCount: 2
Fore
SplineSet
91 0 m 1
 4 652 l 1
 154 652 l 1
 175 305 l 1
 176 249 178 194 179 139 c 1
 182 139 l 1
 192 194 206 250 217 305 c 1
 262 486 l 1
 351 486 l 1
 394 305 l 1
 404 252 418 195 428 139 c 1
 432 139 l 1
 434 195 435 251 437 305 c 2
 456 652 l 1
 596 652 l 1
 515 0 l 1
 361 0 l 1
 320 205 l 2
 312 246 305 291 302 330 c 1
 299 330 l 1
 295 291 289 246 281 205 c 2
 242 0 l 1
 91 0 l 1
EndSplineSet
EndChar

StartChar: X
Encoding: 88 88 25
Width: 600
GlyphClass: 2
Flags: MW
HStem: 0 21G<18 18 18 175 418 418 418 582> 632 20G<29 194 194 194 413 571 571 571>
VStem: 18 564<0 0>
AnchorPoint: "Anchor-2" 290 -22 basechar 0
AnchorPoint: "Anchor-0" 300 674 basechar 0
LayerCount: 2
Fore
SplineSet
18 0 m 1
 208 335 l 1
 29 652 l 1
 194 652 l 1
 257 529 l 2
 272 499 287 465 307 424 c 1
 311 424 l 1
 327 465 341 499 355 529 c 2
 413 652 l 1
 571 652 l 1
 392 328 l 1
 582 0 l 1
 418 0 l 1
 347 133 l 2
 329 167 313 200 295 240 c 1
 291 240 l 1
 275 200 259 167 243 133 c 1
 175 0 l 1
 18 0 l 1
EndSplineSet
EndChar

StartChar: Y
Encoding: 89 89 26
Width: 600
GlyphClass: 2
Flags: MW
HStem: 0 21G<226 226 226 374> 632 20G<16 174 174 174 430 584 584 584>
VStem: 226 148<0 220 0 220>
AnchorPoint: "Anchor-2" 300 -22 basechar 0
AnchorPoint: "Anchor-0" 300 674 basechar 0
LayerCount: 2
Fore
SplineSet
226 0 m 1
 226 220 l 1
 16 652 l 1
 174 652 l 1
 240 495 l 1
 259 445 279 398 299 346 c 1
 303 346 l 1
 324 398 344 445 364 495 c 2
 430 652 l 1
 584 652 l 1
 374 220 l 1
 374 0 l 1
 226 0 l 1
EndSplineSet
EndChar

StartChar: Z
Encoding: 90 90 27
Width: 600
GlyphClass: 2
Flags: MW
HStem: 0 124<238 547 238 547> 529 123<85 362 85 543>
VStem: 56 491<0 89 89 89>
AnchorPoint: "Anchor-2" 310 -22 basechar 0
AnchorPoint: "Anchor-0" 314 674 basechar 0
LayerCount: 2
Fore
SplineSet
56 0 m 1
 56 89 l 1
 362 529 l 1
 85 529 l 1
 85 652 l 1
 543 652 l 1
 543 563 l 1
 238 124 l 1
 547 124 l 1
 547 0 l 1
 56 0 l 1
EndSplineSet
EndChar

StartChar: bracketleft
Encoding: 91 91 513
Width: 600
Flags: MW
HStem: -152 78<313 496 313 496> 630 78<313 496 313 313>
VStem: 201 112<-74 630 -74 708 -74 708>
LayerCount: 2
Fore
SplineSet
201 -152 m 1
 201 708 l 1
 496 708 l 1
 496 630 l 1
 313 630 l 1
 313 -74 l 1
 496 -74 l 1
 496 -152 l 1
 201 -152 l 1
EndSplineSet
EndChar

StartChar: backslash
Encoding: 92 92 519
Width: 600
Flags: MW
HStem: -160 870<74 403 74 526>
VStem: 74 452
LayerCount: 2
Fore
SplineSet
403 -160 m 1
 74 710 l 1
 197 710 l 1
 526 -160 l 1
 403 -160 l 1
EndSplineSet
EndChar

StartChar: bracketright
Encoding: 93 93 514
Width: 600
Flags: MW
HStem: -152 78<105 287 105 400 105 287> 630 78<105 287 105 400>
VStem: 287 113<-74 630 630 630>
LayerCount: 2
Fore
SplineSet
105 -74 m 1
 287 -74 l 1
 287 630 l 1
 105 630 l 1
 105 708 l 1
 400 708 l 1
 400 -152 l 1
 105 -152 l 1
 105 -74 l 1
EndSplineSet
EndChar

StartChar: asciicircum
Encoding: 94 94 671
Width: 600
Flags: MW
HStem: 274 396<86 359 86 359 241 393 241 514> 537 133<298 302 298 298>
VStem: 86 428<274 274>
LayerCount: 2
Fore
SplineSet
86 274 m 1xa0
 241 670 l 1
 359 670 l 1
 514 274 l 1
 393 274 l 1
 347 402 l 1
 302 537 l 1
 298 537 l 1x60
 253 402 l 1
 207 274 l 1
 86 274 l 1xa0
EndSplineSet
EndChar

StartChar: underscore
Encoding: 95 95 510
Width: 600
Flags: MW
HStem: -164 110<60 540 60 540>
VStem: 60 480<-164 -54 -164 -54>
LayerCount: 2
Fore
SplineSet
60 -54 m 1
 540 -54 l 1
 540 -164 l 1
 60 -164 l 1
 60 -54 l 1
EndSplineSet
EndChar

StartChar: grave
Encoding: 96 96 715
Width: 600
Flags: MW
HStem: 574 167<275 275 275 293 143 382>
VStem: 143 239<574 741>
LayerCount: 2
Fore
SplineSet
275 574 m 1
 143 741 l 1
 293 741 l 1
 382 574 l 1
 275 574 l 1
EndSplineSet
EndChar

StartChar: a
Encoding: 97 97 28
Width: 600
GlyphClass: 2
Flags: MW
HStem: -12 114<250 256> 0 21G<415 535 415 415> 231 88<388 388> 391 117<268.5 315.5>
VStem: 61 141<133 170.5 133 193.5> 388 147<149 231 231 231>
AnchorPoint: "Anchor-2" 310 -22 basechar 0
AnchorPoint: "Anchor-0" 308 518 basechar 0
LayerCount: 2
Fore
SplineSet
61 138 m 0x7c
 61 249 153 305 388 319 c 1
 383 364 349 391 282 391 c 0
 234 391 187 373 131 345 c 1
 79 441 l 1
 147 480 226 508 311 508 c 0
 450 508 535 436 535 284 c 2
 535 0 l 1
 415 0 l 1x7c
 404 56 l 1
 400 56 l 1
 350 18 288 -12 224 -12 c 0xbc
 124 -12 61 54 61 138 c 0x7c
202 149 m 0xbc
 202 117 229 102 271 102 c 0
 315 102 353 122 388 149 c 1
 388 231 l 1
 242 223 202 192 202 149 c 0xbc
EndSplineSet
Substitution2: "'ss02' Style Set 2 in Latin lookup 18 subtable" a.a
Substitution2: "'sups' Superscript in Latin lookup 12 subtable" a.sups
AlternateSubs2: "'aalt' Access All Alternates in Latin lookup 1 subtable" a.sups a.a
EndChar

StartChar: b
Encoding: 98 98 29
Width: 600
GlyphClass: 2
Flags: MW
HStem: -12 120<315 332 292 393.5> 0 21G<72 72 72 187> 388 120<329 342> 681 20G<72 219 219 219>
VStem: 72 147<141 141 141 342 529 701> 402 151<203 298.5>
AnchorPoint: "Anchor-2" 305 -22 basechar 0
AnchorPoint: "Anchor-0" 151 730 basechar 0
LayerCount: 2
Fore
SplineSet
72 0 m 1x7c
 72 701 l 1
 219 701 l 1
 219 529 l 1
 215 451 l 1
 254 487 305 508 353 508 c 0
 477 508 553 409 553 257 c 0
 553 86 449 -12 338 -12 c 0
 292 -12 244 11 203 54 c 1
 199 54 l 1xbc
 187 0 l 1
 72 0 l 1x7c
219 141 m 1
 247 117 279 108 305 108 c 0
 359 108 402 152 402 254 c 0
 402 343 373 388 311 388 c 0
 279 388 250 374 219 342 c 1
 219 141 l 1
EndSplineSet
Substitution2: "'sups' Superscript in Latin lookup 12 subtable" b.sups
Substitution2: "'aalt' Access All Alternates in Latin lookup 0 subtable" b.sups
EndChar

StartChar: c
Encoding: 99 99 30
Width: 600
GlyphClass: 2
Flags: MW
HStem: -12 119<316 377> 389 119<319.5 380.5>
VStem: 67 151<205 291 205 330.5>
AnchorPoint: "Anchor-2" 341 -22 basechar 0
AnchorPoint: "Anchor-1" 341 0 basechar 0
AnchorPoint: "Anchor-0" 341 518 basechar 0
LayerCount: 2
Fore
SplineSet
67 248 m 0
 67 413 201 508 354 508 c 0
 432 508 498 480 540 441 c 1
 472 350 l 1
 434 377 399 389 362 389 c 0
 277 389 218 334 218 248 c 0
 218 162 275 107 357 107 c 0
 409 107 453 129 488 154 c 1
 548 61 l 1
 488 11 411 -12 343 -12 c 0
 187 -12 67 83 67 248 c 0
EndSplineSet
Substitution2: "'sups' Superscript in Latin lookup 12 subtable" c.sups
Substitution2: "'aalt' Access All Alternates in Latin lookup 0 subtable" c.sups
EndChar

StartChar: d
Encoding: 100 100 31
Width: 600
GlyphClass: 2
Flags: MW
HStem: -12 120<263.5 281> 0 21G<408 528 408 408> 388 120<271 287.5 205 312.5> 681 20G<381 528 528 528>
VStem: 47 151<201 297 201 329> 381 147<154 355 355 355 532 701 0 701>
AnchorPoint: "Anchor-2" 309 -22 basechar 0
AnchorPoint: "Anchor-0" 441 730 basechar 0
LayerCount: 2
Fore
SplineSet
47 248 m 0x7c
 47 410 151 508 259 508 c 0
 316 508 351 487 386 455 c 1
 381 532 l 1
 381 701 l 1
 528 701 l 1
 528 0 l 1
 408 0 l 1x7c
 397 51 l 1
 394 51 l 1
 357 15 306 -12 256 -12 c 0xbc
 130 -12 47 86 47 248 c 0x7c
198 250 m 0xbc
 198 152 233 108 294 108 c 0
 327 108 355 121 381 154 c 1
 381 355 l 1
 354 379 327 388 298 388 c 0
 244 388 198 344 198 250 c 0xbc
EndSplineSet
Substitution2: "'sups' Superscript in Latin lookup 12 subtable" d.sups
Substitution2: "'aalt' Access All Alternates in Latin lookup 0 subtable" d.sups
EndChar

StartChar: e
Encoding: 101 101 32
Width: 600
GlyphClass: 2
Flags: MW
HStem: -12 112<313.5 363> 205 97<206 413 204 540 206 206> 396 112<289.5 349.5>
VStem: 413 133<302 330>
AnchorPoint: "Anchor-4" 404 0 basechar 0
AnchorPoint: "Anchor-2" 313 -22 basechar 0
AnchorPoint: "Anchor-0" 313 518 basechar 0
LayerCount: 2
Fore
SplineSet
55 248 m 0
 55 410 181 508 313 508 c 0
 466 508 546 405 546 270 c 0
 546 244 542 217 540 205 c 1
 206 205 l 1
 216 131 277 100 350 100 c 0
 395 100 434 112 478 134 c 1
 526 46 l 1
 470 10 396 -12 330 -12 c 0
 176 -12 55 84 55 248 c 0
204 302 m 1
 413 302 l 1
 413 358 383 396 316 396 c 0
 263 396 217 366 204 302 c 1
EndSplineSet
Substitution2: "'sups' Superscript in Latin lookup 12 subtable" e.sups
Substitution2: "'aalt' Access All Alternates in Latin lookup 0 subtable" e.sups
EndChar

StartChar: f
Encoding: 102 102 33
Width: 600
GlyphClass: 2
Flags: MW
HStem: 0 21G<213 360 213 213> 381 115<82 213 360 531> 597 116<421.5 463.5 357.5 472>
VStem: 213 147<0 381 0 381 496 509 509 510 0 566>
AnchorPoint: "Anchor-2" 293 -22 basechar 0
AnchorPoint: "Anchor-0" 413 741 basechar 0
LayerCount: 2
Fore
SplineSet
585 686 m 1
 557 578 l 1
 526 590 491 597 453 597 c 0
 390 597 360 570 360 510 c 2
 360 496 l 1
 531 496 l 1
 531 381 l 1
 360 381 l 1
 360 0 l 1
 213 0 l 1
 213 381 l 1
 82 381 l 1
 82 490 l 1
 213 496 l 1
 213 509 l 2
 213 623 280 713 435 713 c 0
 492 713 543 700 585 686 c 1
EndSplineSet
Substitution2: "'sups' Superscript in Latin lookup 12 subtable" f.sups
Substitution2: "'aalt' Access All Alternates in Latin lookup 0 subtable" f.sups
EndChar

StartChar: g
Encoding: 103 103 34
Width: 600
GlyphClass: 2
Flags: MW
HStem: -211 92<259 337.5 259 367> -19 112<279 283 283 345> 157 89<275 305.5 264.5 342.5> 389 107<467 568 467 467> 409 99<264.5 300 229 305.5>
VStem: 52 120<-80.5 -64> 73 138<301 354.5 301 387.5> 79 116<117.5 120.5> 361 129<301 336 266 354.5> 432 140<-75 -42>
AnchorPoint: "Anchor-2" 282 -229 basechar 0
AnchorPoint: "Anchor-0" 304 518 basechar 0
LayerCount: 2
Fore
SplineSet
172 -62 m 0xf440
 172 -99 220 -119 298 -119 c 0
 377 -119 432 -92 432 -58 c 0
 432 -26 402 -19 345 -19 c 2
 283 -19 l 2
 247 -19 225 -17 207 -13 c 1
 182 -29 172 -44 172 -62 c 0xf440
52 -84 m 0
 52 -44 78 -10 129 15 c 1
 129 19 l 1
 102 36 79 62 79 104 c 0xf180
 79 137 103 173 138 197 c 1
 138 201 l 1
 102 225 73 270 73 328 c 0
 73 447 173 508 285 508 c 0xea80
 315 508 343 504 367 496 c 1
 568 496 l 1
 568 389 l 1
 467 389 l 1
 479 374 490 349 490 323 c 0
 490 209 400 157 285 157 c 0
 265 157 242 160 217 167 c 1
 202 156 195 147 195 131 c 0
 195 104 221 93 279 93 c 2xf180
 371 93 l 2
 501 93 572 57 572 -32 c 0
 572 -136 457 -211 277 -211 c 0
 148 -211 52 -173 52 -84 c 0
285 246 m 0xea80
 326 246 361 274 361 328 c 0
 361 381 326 409 285 409 c 0
 244 409 211 381 211 328 c 0
 211 274 244 246 285 246 c 0xea80
EndSplineSet
Substitution2: "'ss03' Style Set 3 in Latin lookup 19 subtable" g.a
Substitution2: "'sups' Superscript in Latin lookup 12 subtable" g.sups
AlternateSubs2: "'aalt' Access All Alternates in Latin lookup 1 subtable" g.sups g.a
EndChar

StartChar: h
Encoding: 104 104 35
Width: 600
GlyphClass: 2
Flags: MW
HStem: 0 21G<72 72 72 219 393 393 393 540> 383 125<341.5 347> 681 20G<72 219 219 219>
VStem: 72 147<0 331 529 701> 393 147<0 287 287 306 0 320>
AnchorPoint: "Anchor-2" 307 -22 basechar 0
AnchorPoint: "Anchor-0" 151 730 basechar 0
LayerCount: 2
Fore
SplineSet
72 0 m 1
 72 701 l 1
 219 701 l 1
 219 529 l 1
 211 434 l 1
 250 472 304 508 379 508 c 0
 490 508 540 431 540 306 c 2
 540 0 l 1
 393 0 l 1
 393 287 l 2
 393 353 374 383 320 383 c 0
 280 383 254 365 219 331 c 1
 219 0 l 1
 72 0 l 1
EndSplineSet
Substitution2: "'sups' Superscript in Latin lookup 12 subtable" h.sups
Substitution2: "'aalt' Access All Alternates in Latin lookup 0 subtable" h.sups
EndChar

StartChar: i
Encoding: 105 105 36
Width: 600
GlyphClass: 2
Flags: MW
HStem: 0 21G<278 425 278 278> 381 115<79 425 79 278> 569 181<316.5 373.5>
VStem: 247 196<631 685> 278 147<0 381 381 381>
AnchorPoint: "Anchor-4" 393 0 basechar 0
AnchorPoint: "Anchor-2" 345 -22 basechar 0
AnchorPoint: "Anchor-0" 345 722 basechar 0
LayerCount: 2
Fore
SplineSet
79 381 m 1xe8
 79 496 l 1
 425 496 l 1
 425 0 l 1
 278 0 l 1
 278 381 l 1
 79 381 l 1xe8
345 569 m 0xf0
 288 569 247 604 247 658 c 0
 247 712 288 750 345 750 c 0
 402 750 443 712 443 658 c 0
 443 604 402 569 345 569 c 0xf0
EndSplineSet
Substitution2: "'sups' Superscript in Latin lookup 12 subtable" i.sups
Substitution2: "'aalt' Access All Alternates in Latin lookup 0 subtable" i.sups
EndChar

StartChar: j
Encoding: 106 106 37
Width: 600
GlyphClass: 2
Flags: MW
HStem: -196 115<171.5 221.5 171.5 285> 381 115<79 425 79 278> 569 181<316.5 373.5>
VStem: 247 196<631 685> 278 147<24 30 30 381 381 381>
AnchorPoint: "Anchor-2" 240 -235 basechar 0
AnchorPoint: "Anchor-0" 345 722 basechar 0
LayerCount: 2
Fore
SplineSet
79 381 m 1xe8
 79 496 l 1
 425 496 l 1
 425 30 l 2
 425 -91 375 -196 195 -196 c 0
 134 -196 85 -182 42 -162 c 1
 85 -57 l 1
 125 -75 157 -81 186 -81 c 0
 257 -81 278 -48 278 24 c 2
 278 381 l 1
 79 381 l 1xe8
345 569 m 0xf0
 288 569 247 604 247 658 c 0
 247 712 288 750 345 750 c 0
 402 750 443 712 443 658 c 0
 443 604 402 569 345 569 c 0xf0
EndSplineSet
Substitution2: "'sups' Superscript in Latin lookup 12 subtable" j.sups
Substitution2: "'aalt' Access All Alternates in Latin lookup 0 subtable" j.sups
EndChar

StartChar: k
Encoding: 107 107 38
Width: 600
GlyphClass: 2
Flags: MW
HStem: 0 21G<76 76 76 223 426 426 426 585> 476 20G<409 570 570 570> 681 20G<76 223 223 223>
VStem: 76 147<0 125 296 701>
AnchorPoint: "Anchor-2" 324 -22 basechar 0
AnchorPoint: "Anchor-0" 167 730 basechar 0
LayerCount: 2
Fore
SplineSet
76 0 m 1
 76 701 l 1
 223 701 l 1
 223 296 l 1
 227 296 l 1
 409 496 l 1
 570 496 l 1
 382 292 l 1
 585 0 l 1
 426 0 l 1
 296 202 l 1
 223 125 l 1
 223 0 l 1
 76 0 l 1
EndSplineSet
Substitution2: "'sups' Superscript in Latin lookup 12 subtable" k.sups
Substitution2: "'aalt' Access All Alternates in Latin lookup 0 subtable" k.sups
EndChar

StartChar: l
Encoding: 108 108 39
Width: 600
GlyphClass: 2
Flags: MW
HStem: -12 119<412.5 426> 585 116<62 353 62 206>
VStem: 206 147<194 585 585 585>
AnchorPoint: "Anchor-2" 362 -22 basechar 0
AnchorPoint: "Anchor-0" 271 730 basechar 0
LayerCount: 2
Fore
SplineSet
62 585 m 1
 62 701 l 1
 353 701 l 1
 353 188 l 2
 353 127 392 107 433 107 c 0
 456 107 480 111 511 123 c 1
 544 15 l 1
 492 -1 457 -12 395 -12 c 0
 270 -12 206 68 206 194 c 2
 206 585 l 1
 62 585 l 1
EndSplineSet
Substitution2: "'sups' Superscript in Latin lookup 12 subtable" l.sups
Substitution2: "'aalt' Access All Alternates in Latin lookup 0 subtable" l.sups
EndChar

StartChar: n
Encoding: 110 110 41
Width: 600
GlyphClass: 2
Flags: MW
HStem: 0 21G<72 72 72 219 393 393 393 540> 383 125<341 347> 476 20G<72 192 192 192>
VStem: 72 147<0 331 0 496> 393 147<0 287 287 306 0 320>
AnchorPoint: "Anchor-2" 306 -22 basechar 0
AnchorPoint: "Anchor-0" 315 518 basechar 0
LayerCount: 2
Fore
SplineSet
72 0 m 1xb8
 72 496 l 1
 192 496 l 1xb8
 203 430 l 1
 207 430 l 1
 250 472 304 508 378 508 c 0
 490 508 540 431 540 306 c 2
 540 0 l 1
 393 0 l 1
 393 287 l 2
 393 353 374 383 320 383 c 0
 280 383 254 365 219 331 c 1xd8
 219 0 l 1
 72 0 l 1xb8
EndSplineSet
Substitution2: "'sups' Superscript in Latin lookup 12 subtable" n.sups
Substitution2: "'aalt' Access All Alternates in Latin lookup 0 subtable" n.sups
EndChar

StartChar: o
Encoding: 111 111 42
Width: 600
GlyphClass: 2
Flags: MW
HStem: -12 119<266 334 266 365.5> 389 119<266 334>
VStem: 47 151<205 291 205 330.5> 402 151<205 291>
AnchorPoint: "Anchor-4" 353 0 basechar 0
AnchorPoint: "Anchor-3" 414 496 basechar 0
AnchorPoint: "Anchor-2" 300 -22 basechar 0
AnchorPoint: "Anchor-0" 300 518 basechar 0
LayerCount: 2
Fore
SplineSet
47 248 m 0
 47 413 169 508 300 508 c 0
 431 508 553 413 553 248 c 0
 553 83 431 -12 300 -12 c 0
 169 -12 47 83 47 248 c 0
198 248 m 0
 198 162 232 107 300 107 c 0
 368 107 402 162 402 248 c 0
 402 334 368 389 300 389 c 0
 232 389 198 334 198 248 c 0
EndSplineSet
Substitution2: "'sups' Superscript in Latin lookup 12 subtable" o.sups
Substitution2: "'aalt' Access All Alternates in Latin lookup 0 subtable" o.sups
EndChar

StartChar: p
Encoding: 112 112 43
Width: 600
GlyphClass: 2
Flags: MW
HStem: -184 21G<72 219 72 72> -12 120<316 331.5 291.5 393.5> 388 120<327.5 342> 476 20G<72 192 192 192>
VStem: 72 147<-184 -39 141 342> 402 151<203 298.5>
AnchorPoint: "Anchor-2" 142 -218 basechar 0
AnchorPoint: "Anchor-0" 321 518 basechar 0
LayerCount: 2
Fore
SplineSet
214 42 m 1xdc
 219 -39 l 1
 219 -184 l 1
 72 -184 l 1
 72 496 l 1
 192 496 l 1xdc
 203 446 l 1
 206 446 l 1
 246 482 301 508 354 508 c 0xec
 478 508 553 409 553 256 c 0
 553 86 449 -12 338 -12 c 0
 294 -12 250 7 214 42 c 1xdc
219 141 m 1
 247 117 279 108 304 108 c 0
 359 108 402 152 402 254 c 0
 402 343 373 388 311 388 c 0
 279 388 250 374 219 342 c 1xec
 219 141 l 1
EndSplineSet
Substitution2: "'sups' Superscript in Latin lookup 12 subtable" p.sups
Substitution2: "'aalt' Access All Alternates in Latin lookup 0 subtable" p.sups
EndChar

StartChar: q
Encoding: 113 113 44
Width: 600
GlyphClass: 2
Flags: MW
HStem: -184 21G<381 528 381 381> -12 120<263.5 279.5> 388 120<271 287 205 312.5> 476 20G<413 528 528 528>
VStem: 47 151<201 297 201 329> 381 147<-184 -31 -31 -31 154 355 355 355>
AnchorPoint: "Anchor-2" 445 -218 basechar 0
AnchorPoint: "Anchor-0" 307 518 basechar 0
LayerCount: 2
Fore
SplineSet
47 248 m 0xec
 47 410 151 508 259 508 c 0
 315 508 356 489 397 445 c 1
 401 445 l 1xec
 413 496 l 1
 528 496 l 1xdc
 528 -184 l 1
 381 -184 l 1
 381 -31 l 1
 387 45 l 1
 352 12 303 -12 256 -12 c 0
 130 -12 47 86 47 248 c 0xec
198 250 m 0
 198 152 233 108 294 108 c 0
 327 108 355 121 381 154 c 1
 381 355 l 1
 354 379 327 388 298 388 c 0
 244 388 198 344 198 250 c 0
EndSplineSet
Substitution2: "'sups' Superscript in Latin lookup 12 subtable" q.sups
Substitution2: "'aalt' Access All Alternates in Latin lookup 0 subtable" q.sups
EndChar

StartChar: r
Encoding: 114 114 45
Width: 600
GlyphClass: 2
Flags: MW
HStem: 0 21G<116 116 116 263> 379 129<412.5 448.5> 476 20G<116 236 236 236> 488 20
VStem: 116 147<0 258 0 496>
AnchorPoint: "Anchor-2" 203 -22 basechar 0
AnchorPoint: "Anchor-0" 339 518 basechar 0
LayerCount: 2
Fore
SplineSet
116 0 m 1x98
 116 496 l 1
 236 496 l 1xa8
 248 388 l 1
 251 388 l 1
 300 469 373 508 452 508 c 0
 496 508 519 501 548 488 c 1x98
 518 365 l 1
 487 374 467 379 430 379 c 0xc8
 369 379 305 347 263 258 c 1
 263 0 l 1
 116 0 l 1x98
EndSplineSet
Substitution2: "'sups' Superscript in Latin lookup 12 subtable" r.sups
Substitution2: "'aalt' Access All Alternates in Latin lookup 0 subtable" r.sups
EndChar

StartChar: t
Encoding: 116 116 47
Width: 600
GlyphClass: 2
Flags: MW
HStem: -12 115<389 420> 381 115<49 181 321 531>
VStem: 174 147<206 207 207 381>
AnchorPoint: "Anchor-2" 368 -22 basechar 0
AnchorPoint: "Anchor-1" 373 0 basechar 0
AnchorPoint: "Anchor-0" 265 658 basechar 0
LayerCount: 2
Fore
SplineSet
174 206 m 2
 174 381 l 1
 49 381 l 1
 49 490 l 1
 181 496 l 1
 200 628 l 1
 321 628 l 1
 321 496 l 1
 531 496 l 1
 531 381 l 1
 321 381 l 1
 321 207 l 2
 321 132 353 103 425 103 c 0
 463 103 495 111 524 121 c 1
 550 15 l 1
 506 2 452 -12 388 -12 c 0
 230 -12 174 76 174 206 c 2
EndSplineSet
Substitution2: "'sups' Superscript in Latin lookup 12 subtable" t.sups
Substitution2: "'aalt' Access All Alternates in Latin lookup 0 subtable" t.sups
EndChar

StartChar: v
Encoding: 118 118 49
Width: 600
GlyphClass: 2
Flags: MW
HStem: 0 109<218 306 302 306 302 387> 476 20G<31 179 179 179 428 569 569 569>
VStem: 31 538<496 496>
AnchorPoint: "Anchor-2" 302 -22 basechar 0
AnchorPoint: "Anchor-0" 302 518 basechar 0
LayerCount: 2
Fore
SplineSet
218 0 m 1
 31 496 l 1
 179 496 l 1
 257 262 l 2
 273 212 287 161 302 109 c 1
 306 109 l 1
 321 161 334 212 350 262 c 2
 428 496 l 1
 569 496 l 1
 387 0 l 1
 218 0 l 1
EndSplineSet
Substitution2: "'sups' Superscript in Latin lookup 12 subtable" v.sups
Substitution2: "'aalt' Access All Alternates in Latin lookup 0 subtable" v.sups
EndChar

StartChar: x
Encoding: 120 120 51
Width: 600
GlyphClass: 2
Flags: MW
HStem: 0 21G<37 37 37 191 404 404 404 562> 476 20G<48 206 206 206 398 552 552 552>
VStem: 37 525<0 0>
AnchorPoint: "Anchor-2" 300 -22 basechar 0
AnchorPoint: "Anchor-0" 300 518 basechar 0
LayerCount: 2
Fore
SplineSet
37 0 m 1
 209 258 l 1
 48 496 l 1
 206 496 l 1
 257 416 l 1
 272 388 292 359 309 331 c 1
 313 331 l 1
 326 359 341 389 354 416 c 1
 398 496 l 1
 552 496 l 1
 390 241 l 1
 562 0 l 1
 404 0 l 1
 347 82 l 1
 329 110 308 140 290 168 c 1
 286 168 l 1
 271 140 255 111 240 82 c 1
 191 0 l 1
 37 0 l 1
EndSplineSet
Substitution2: "'sups' Superscript in Latin lookup 12 subtable" x.sups
Substitution2: "'aalt' Access All Alternates in Latin lookup 0 subtable" x.sups
EndChar

StartChar: y
Encoding: 121 121 52
Width: 600
GlyphClass: 2
Flags: MW
HStem: -194 116<128.5 160.5 125.5 205.5> -184 21G<67 67> 476 20G<31 177 177 177 432 571 571 571>
VStem: 31 540<496 496>
AnchorPoint: "Anchor-2" 267 -241 basechar 0
AnchorPoint: "Anchor-0" 307 518 basechar 0
LayerCount: 2
Fore
SplineSet
93 -72 m 1xb0
 106 -76 119 -78 132 -78 c 0
 189 -78 220 -52 236 -13 c 2
 246 13 l 1
 31 496 l 1
 177 496 l 1
 260 283 l 2
 278 236 294 186 310 134 c 1
 314 134 l 1
 327 183 344 234 359 283 c 1
 432 496 l 1
 571 496 l 1
 375 -5 l 2
 327 -130 268 -194 143 -194 c 0xb0
 114 -194 88 -190 67 -184 c 1x70
 93 -72 l 1xb0
EndSplineSet
Substitution2: "'sups' Superscript in Latin lookup 12 subtable" y.sups
Substitution2: "'aalt' Access All Alternates in Latin lookup 0 subtable" y.sups
EndChar

StartChar: z
Encoding: 122 122 53
Width: 600
GlyphClass: 2
Flags: MW
HStem: 0 115<273 541 273 541> 381 115<102 330 102 533>
VStem: 70 471<0 79 79 79>
AnchorPoint: "Anchor-2" 318 -22 basechar 0
AnchorPoint: "Anchor-0" 323 518 basechar 0
LayerCount: 2
Fore
SplineSet
70 0 m 1
 70 79 l 1
 330 381 l 1
 102 381 l 1
 102 496 l 1
 533 496 l 1
 533 418 l 1
 273 115 l 1
 541 115 l 1
 541 0 l 1
 70 0 l 1
EndSplineSet
Substitution2: "'sups' Superscript in Latin lookup 12 subtable" z.sups
Substitution2: "'aalt' Access All Alternates in Latin lookup 0 subtable" z.sups
EndChar

StartChar: braceleft
Encoding: 123 123 515
Width: 600
Flags: MW
HStem: -152 78<355 496 455 496 455 496> 235 86<106 106> 630 78<419 455 455 496>
VStem: 106 152<276 280 276 321 276 321> 233 125<-64 197>
LayerCount: 2
Fore
SplineSet
233 -10 m 0xe8
 233 61 243 98 243 161 c 0xe8
 243 196 214 233 106 235 c 1
 106 321 l 1xf0
 214 323 243 360 243 395 c 0
 243 457 233 496 233 566 c 0
 233 674 291 708 419 708 c 2
 496 708 l 1
 496 630 l 1
 455 630 l 2
 372 630 353 616 353 560 c 0
 353 507 358 456 358 397 c 0
 358 321 329 292 258 280 c 1
 258 276 l 1
 329 264 358 235 358 159 c 0
 358 98 353 50 353 -4 c 0
 353 -60 372 -74 455 -74 c 2
 496 -74 l 1
 496 -152 l 1
 419 -152 l 2
 291 -152 233 -118 233 -10 c 0xe8
EndSplineSet
EndChar

StartChar: bar
Encoding: 124 124 518
Width: 600
Flags: MW
HStem: -250 1000<235 365 235 365>
VStem: 235 130<-250 750 -250 750>
LayerCount: 2
Fore
SplineSet
235 -250 m 1
 235 750 l 1
 365 750 l 1
 365 -250 l 1
 235 -250 l 1
EndSplineSet
EndChar

StartChar: braceright
Encoding: 125 125 516
Width: 600
Flags: MW
HStem: -152 78<105 146 146 182 105 146> 235 86<495 495> 630 78<105 146 105 182>
VStem: 243 125<-64 197> 343 152<276 280 280 280>
LayerCount: 2
Fore
SplineSet
105 -74 m 1xf0
 146 -74 l 2
 228 -74 247 -60 247 -4 c 0
 247 50 243 98 243 159 c 0
 243 235 271 264 343 276 c 1
 343 280 l 1
 271 292 243 321 243 397 c 0
 243 456 247 507 247 560 c 0
 247 616 228 630 146 630 c 2
 105 630 l 1
 105 708 l 1
 182 708 l 2
 310 708 368 674 368 566 c 0
 368 496 357 457 357 395 c 0xf0
 357 360 386 323 495 321 c 1xe8
 495 235 l 1
 386 233 357 196 357 161 c 0
 357 98 368 61 368 -10 c 0
 368 -118 310 -152 182 -152 c 2
 105 -152 l 1
 105 -74 l 1xf0
EndSplineSet
EndChar

StartChar: asciitilde
Encoding: 126 126 673
Width: 600
Flags: MW
HStem: 240 104<359.5 401 359.5 416> 316 104<199.5 240.5>
VStem: 52 496<275 385>
LayerCount: 2
Fore
SplineSet
140 234 m 1x60
 52 275 l 1
 94 379 153 420 215 420 c 0x60
 298 420 332 344 387 344 c 0
 415 344 441 370 460 426 c 1
 548 385 l 1
 506 281 447 240 385 240 c 0xa0
 302 240 268 316 213 316 c 0
 186 316 159 289 140 234 c 1x60
EndSplineSet
EndChar

StartChar: exclamdown
Encoding: 161 161 487
Width: 600
Flags: MW
HStem: 306 202<271.5 328.5> 488 20G<271.5 328.5>
VStem: 200 200<376.5 436> 229.5 141 242 116
LayerCount: 2
Fore
SplineSet
348 241 m 1x48
 368 -41 l 1
 373 -174 l 1
 227 -174 l 1x50
 232 -41 l 1
 252 241 l 1
 348 241 l 1x48
400 406 m 0xa0
 400 347 357 306 300 306 c 0
 243 306 200 347 200 406 c 0
 200 466 243 508 300 508 c 0
 357 508 400 466 400 406 c 0xa0
EndSplineSet
EndChar

StartChar: cent
Encoding: 162 162 634
Width: 600
Flags: MW
HStem: -41 696<311 392 311 392>
VStem: 96 143<277 337 277 377.5> 311 81<-41 54 -41 54 182 432 432 432 562 655>
LayerCount: 2
Fore
SplineSet
311 182 m 1
 311 432 l 1
 263 411 239 367 239 307 c 0
 239 247 264 202 311 182 c 1
464 206 m 1
 523 113 l 1
 485 80 437 60 392 54 c 1
 392 -41 l 1
 311 -41 l 1
 311 54 l 1
 181 71 96 162 96 307 c 0
 96 448 187 537 311 558 c 1
 311 655 l 1
 392 655 l 1
 392 562 l 1
 444 557 487 536 516 506 c 1
 449 416 l 1
 429 432 411 441 392 443 c 1
 392 171 l 1
 420 176 444 190 464 206 c 1
EndSplineSet
EndChar

StartChar: sterling
Encoding: 163 163 631
Width: 600
Flags: MW
HStem: 0 124<258 550 258 550> 271 91<154 154 154 182 70 154 310 310 310 456> 528 119<345 396>
VStem: 135 139<429 466 422 505> 185 127<219 247.5 219 248.5>
LayerCount: 2
Fore
SplineSet
258 124 m 1xe8
 550 124 l 1
 550 0 l 1
 67 0 l 1
 67 91 l 1
 136 118 185 173 185 244 c 0
 185 253 184 262 182 271 c 1xe8
 70 271 l 1
 70 357 l 1
 154 362 l 1
 144 389 135 416 135 442 c 0
 135 568 230 647 363 647 c 0
 445 647 502 618 549 566 c 1
 470 486 l 1
 443 514 415 528 377 528 c 0
 313 528 274 498 274 434 c 0
 274 410 280 386 287 362 c 1xf0
 456 362 l 1
 456 271 l 1
 310 271 l 1
 311 262 312 252 312 243 c 0
 312 195 296 164 258 128 c 1
 258 124 l 1xe8
EndSplineSet
EndChar

StartChar: currency
Encoding: 164 164 629
Width: 600
Flags: MW
HStem: 130 102<282.5 317> 428 102<282.5 317.5 282.5 324>
VStem: 83 131<308 351.5> 386 131<308 351.5 308 359.5>
LayerCount: 2
Fore
SplineSet
109 63 m 1
 36 137 l 1
 117 219 l 1
 95 249 83 286 83 330 c 0
 83 373 95 410 116 439 c 1
 36 521 l 1
 109 595 l 1
 198 505 l 1
 229 521 265 530 300 530 c 0
 335 530 370 521 402 505 c 1
 491 595 l 1
 564 521 l 1
 483 439 l 1
 505 410 517 373 517 330 c 0
 517 286 504 249 482 219 c 1
 564 137 l 1
 491 63 l 1
 401 154 l 1
 370 138 334 130 300 130 c 0
 265 130 230 138 199 154 c 1
 109 63 l 1
214 330 m 0
 214 270 252 232 300 232 c 0
 348 232 386 270 386 330 c 0
 386 389 348 428 300 428 c 0
 252 428 214 389 214 330 c 0
EndSplineSet
EndChar

StartChar: yen
Encoding: 165 165 632
Width: 600
Flags: MW
HStem: 0 217<57 373 57 226> 147 70<57 226 57 226 373 543> 272 70<57 194 57 226 57 194 406 543> 615 20G<31 182 182 182 422 569 569 569>
VStem: 226 147<0 147 0 147 217 272 0 272>
LayerCount: 2
Fore
SplineSet
31 635 m 1x78
 182 635 l 1
 243 502 l 1
 262 458 280 414 300 371 c 1
 304 371 l 1
 323 415 342 459 361 502 c 2
 422 635 l 1
 569 635 l 1
 406 342 l 1
 543 342 l 1
 543 272 l 1
 373 272 l 1
 373 217 l 1
 543 217 l 1
 543 147 l 1
 373 147 l 1x78
 373 0 l 1
 226 0 l 1xb8
 226 147 l 1
 57 147 l 1
 57 217 l 1
 226 217 l 1
 226 272 l 1
 57 272 l 1
 57 342 l 1
 194 342 l 1
 31 635 l 1x78
EndSplineSet
EndChar

StartChar: brokenbar
Encoding: 166 166 520
Width: 600
Flags: MW
HStem: -250 1000<235 365 235 365>
VStem: 235 130<-250 204 -250 204 312 750>
LayerCount: 2
Fore
SplineSet
235 312 m 1
 235 750 l 1
 365 750 l 1
 365 312 l 1
 235 312 l 1
235 204 m 1
 365 204 l 1
 365 -250 l 1
 235 -250 l 1
 235 204 l 1
EndSplineSet
EndChar

StartChar: section
Encoding: 167 167 524
Width: 600
Flags: MW
HStem: -84 108<256 296.5 256 338.5> 0 21G<81 81> 581 109<292 328>
VStem: 71 124<305.5 349 305.5 351> 124 132<520 554.5 506.5 582> 336 132<54.5 89.5 29 106> 405 124<258.5 303.5>
LayerCount: 2
Fore
SplineSet
195 337 m 0x72
 195 274 291 254 369 212 c 1
 393 227 405 245 405 272 c 0
 405 335 311 356 232 395 c 1
 208 381 195 361 195 337 c 0x72
484 625 m 1
 416 533 l 1
 385 560 346 581 310 581 c 0
 274 581 256 567 256 542 c 0
 256 471 529 465 529 284 c 0x6a
 529 226 499 183 445 151 c 1
 459 130 468 105 468 74 c 0
 468 -16 401 -84 276 -84 c 0xb4
 203 -84 126 -57 81 0 c 1x72
 165 75 l 1
 198 42 236 24 276 24 c 0
 317 24 336 42 336 67 c 0
 336 145 71 138 71 326 c 0xb4
 71 376 103 424 153 454 c 1
 135 476 124 503 124 537 c 0x6a
 124 627 190 690 302 690 c 0
 379 690 442 657 484 625 c 1
EndSplineSet
EndChar

StartChar: dieresis
Encoding: 168 168 725
Width: 600
Flags: MW
HStem: 571 157<168 214 386 432>
VStem: 112 157<627.5 672> 331 157<627.5 672>
LayerCount: 2
Fore
SplineSet
191 571 m 0
 145 571 112 605 112 650 c 0
 112 694 145 728 191 728 c 0
 237 728 269 694 269 650 c 0
 269 605 237 571 191 571 c 0
409 571 m 0
 363 571 331 605 331 650 c 0
 331 694 363 728 409 728 c 0
 455 728 488 694 488 650 c 0
 488 605 455 571 409 571 c 0
EndSplineSet
EndChar

StartChar: copyright
Encoding: 169 169 526
Width: 600
Flags: MW
HStem: -9 61<235 365 235 376> 127 86<294 328.5 294 334> 430 86<296.5 330.5> 595 60<235 365>
VStem: 19 64<243 407 243 428.5> 139 106<290 353.5 290 382.5> 517 64<243 407>
LayerCount: 2
Fore
SplineSet
19 325 m 0
 19 532 148 655 300 655 c 0
 452 655 581 532 581 325 c 0
 581 118 452 -9 300 -9 c 0
 148 -9 19 118 19 325 c 0
83 325 m 0
 83 161 170 52 300 52 c 0
 430 52 517 161 517 325 c 0
 517 489 430 595 300 595 c 0
 170 595 83 489 83 325 c 0
139 324 m 0
 139 441 221 516 312 516 c 0
 364 516 397 494 424 467 c 1
 369 406 l 1
 354 421 340 430 321 430 c 0
 272 430 245 383 245 324 c 0
 245 256 272 213 316 213 c 0
 341 213 357 223 376 237 c 1
 423 169 l 1
 392 144 356 127 312 127 c 0
 212 127 139 203 139 324 c 0
EndSplineSet
EndChar

StartChar: ordfeminine
Encoding: 170 170 594
Width: 600
Flags: MW
HStem: 252 79<227.5 302.5> 515 82<287.5 310.5>
VStem: 154 100<350.5 371.5 350.5 386> 349 104<357 410 410 410>
LayerCount: 2
Fore
SplineSet
154 351 m 0
 154 421 212 459 349 472 c 1
 347 499 328 515 293 515 c 0
 266 515 235 504 202 486 c 1
 165 553 l 1
 209 579 261 597 314 597 c 0
 400 597 453 549 453 446 c 2
 453 260 l 1
 368 260 l 1
 361 293 l 1
 359 293 l 1
 330 269 295 252 259 252 c 0
 196 252 154 297 154 351 c 0
254 360 m 0
 254 341 269 331 292 331 c 0
 313 331 333 341 349 357 c 1
 349 410 l 1
 278 401 254 383 254 360 c 0
EndSplineSet
Substitution2: "'ss02' Style Set 2 in Latin lookup 18 subtable" ordfeminine.a
Substitution2: "'aalt' Access All Alternates in Latin lookup 0 subtable" ordfeminine.a
EndChar

StartChar: guillemotleft
Encoding: 171 171 500
Width: 600
Flags: MW
HStem: 25 454<213 213 213 479>
VStem: 42 499<80 325 80 325>
LayerCount: 2
Fore
SplineSet
213 25 m 1
 42 179 l 1
 42 325 l 1
 213 479 l 1
 275 424 l 1
 148 252 l 1
 275 80 l 1
 213 25 l 1
479 25 m 1
 308 179 l 1
 308 325 l 1
 479 479 l 1
 541 424 l 1
 414 252 l 1
 541 80 l 1
 479 25 l 1
EndSplineSet
EndChar

StartChar: logicalnot
Encoding: 172 172 675
Width: 600
Flags: MW
HStem: 278 104<70 530 70 422>
VStem: 422 108<94 278 278 278>
LayerCount: 2
Fore
SplineSet
70 278 m 1
 70 382 l 1
 530 382 l 1
 530 94 l 1
 422 94 l 1
 422 278 l 1
 70 278 l 1
EndSplineSet
EndChar

StartChar: registered
Encoding: 174 174 528
Width: 600
Flags: MW
HStem: 311 49<257 341 257 354> 476 40<276 296 296 305 276 296> 570 43<276 297 276 276> 666 49<257 341>
VStem: 101 54<466.5 559.5 466.5 572> 218 58<416 476 516 570> 327 61<536.5 551> 443 54<466.5 559.5>
LayerCount: 2
Fore
SplineSet
299 311 m 0
 190 311 101 395 101 513 c 0
 101 631 190 715 299 715 c 0
 409 715 497 631 497 513 c 0
 497 395 409 311 299 311 c 0
299 360 m 0
 383 360 443 420 443 513 c 0
 443 606 383 666 299 666 c 0
 215 666 155 606 155 513 c 0
 155 420 215 360 299 360 c 0
218 416 m 1
 218 613 l 1
 307 613 l 2
 354 613 388 592 388 547 c 0
 388 524 377 504 353 493 c 1
 395 416 l 1
 335 416 l 1
 305 476 l 1
 276 476 l 1
 276 416 l 1
 218 416 l 1
276 516 m 1
 296 516 l 2
 317 516 327 529 327 544 c 0
 327 558 317 570 297 570 c 2
 276 570 l 1
 276 516 l 1
EndSplineSet
EndChar

StartChar: macron
Encoding: 175 175 726
Width: 600
Flags: MW
HStem: 592 93<162 438 162 438>
VStem: 162 276<592 685 592 685>
LayerCount: 2
Fore
SplineSet
162 592 m 1
 162 685 l 1
 438 685 l 1
 438 592 l 1
 162 592 l 1
EndSplineSet
EndChar

StartChar: degree
Encoding: 176 176 628
Width: 600
Flags: MW
HStem: 398 70<281 321 281 341.5> 615 71<281 321>
VStem: 156 78<520 563.5 520 584> 368 77<520 563.5>
LayerCount: 2
Fore
SplineSet
301 398 m 0
 220 398 156 458 156 542 c 0
 156 626 220 686 301 686 c 0
 382 686 445 626 445 542 c 0
 445 458 382 398 301 398 c 0
301 468 m 0
 341 468 368 498 368 542 c 0
 368 585 341 615 301 615 c 0
 261 615 234 585 234 542 c 0
 234 498 261 468 301 468 c 0
EndSplineSet
EndChar

StartChar: plusminus
Encoding: 177 177 670
Width: 600
Flags: MW
HStem: 0 104<70 530 70 530> 294 104<70 246 70 246 354 530>
VStem: 246 108<158 294 158 294 398 566>
LayerCount: 2
Fore
SplineSet
246 158 m 1
 246 294 l 1
 70 294 l 1
 70 398 l 1
 246 398 l 1
 246 566 l 1
 354 566 l 1
 354 398 l 1
 530 398 l 1
 530 294 l 1
 354 294 l 1
 354 158 l 1
 246 158 l 1
70 0 m 1
 70 104 l 1
 530 104 l 1
 530 0 l 1
 70 0 l 1
EndSplineSet
EndChar

StartChar: two.sups
Encoding: 178 178 540
Width: 600
Flags: MW
HStem: 440 87<340 433 340 433> 678 86<265.5 289.5>
VStem: 172 261<440 495 495 495> 319 103<632 649.5>
LayerCount: 2
Fore
SplineSet
172 440 m 1xa0
 172 495 l 1xa0
 255 549 319 603 319 637 c 0
 319 662 304 678 275 678 c 0
 256 678 236 666 220 643 c 1
 158 699 l 1
 195 738 237 764 291 764 c 0
 370 764 422 723 422 655 c 0
 422 609 382 566 340 527 c 1
 433 527 l 1
 433 440 l 1xd0
 172 440 l 1xa0
EndSplineSet
EndChar

StartChar: three.sups
Encoding: 179 179 541
Width: 600
Flags: MW
HStem: 428 79<280.5 299.5 274 337.5> 571 55<257 276 257 282.5> 685 79<276 291.5>
VStem: 318 104<657 666> 330 104<526 546.5 498.5 547.5>
LayerCount: 2
Fore
SplineSet
165 470 m 1xe8
 206 536 l 1
 227 521 260 507 288 507 c 0
 311 507 330 516 330 536 c 0xe8
 330 559 308 571 257 571 c 1
 257 626 l 1
 295 626 318 634 318 658 c 0
 318 674 304 685 279 685 c 0
 257 685 233 672 213 660 c 1
 171 722 l 1
 201 746 249 764 303 764 c 0
 369 764 422 728 422 675 c 0xf0
 422 639 408 618 368 604 c 1
 415 591 434 565 434 528 c 0
 434 469 374 428 301 428 c 0
 260 428 212 435 165 470 c 1xe8
EndSplineSet
EndChar

StartChar: uni00B5
Encoding: 181 181 678
Width: 600
Flags: MW
HStem: -12 119<480.5 554> -7 120<258 295.5>
VStem: 62 147<173.5 209 209 496> 378 138<132.5 496>
LayerCount: 2
Fore
SplineSet
62 -196 m 1x70
 62 496 l 1
 209 496 l 1
 209 209 l 2
 209 138 233 113 278 113 c 0
 317 113 347 133 378 190 c 1x70
 378 496 l 1
 526 496 l 1
 521 380 516 231 516 148 c 0
 516 117 531 107 551 107 c 0
 557 107 561 107 569 109 c 1
 587 0 l 1
 570 -7 545 -12 513 -12 c 0xb0
 448 -12 411 21 394 82 c 1
 390 82 l 1
 363 24 320 -7 271 -7 c 0
 245 -7 218 -3 200 18 c 1
 202 -62 203 -122 211 -196 c 1
 62 -196 l 1x70
EndSplineSet
EndChar

StartChar: paragraph
Encoding: 182 182 525
Width: 600
Flags: MW
HStem: 632 20G<286 328 328 328 380 526 526 526>
VStem: 48 280<352.5 513> 380 146<-80 652 -80 652>
LayerCount: 2
Fore
SplineSet
380 -80 m 1
 380 652 l 1
 526 652 l 1
 526 -80 l 1
 380 -80 l 1
328 652 m 1
 328 197 l 1
 288 197 l 2
 157 197 48 276 48 429 c 0
 48 597 156 652 286 652 c 2
 328 652 l 1
EndSplineSet
EndChar

StartChar: periodcentered
Encoding: 183 183 508
Width: 600
Flags: MW
HStem: 236 235<265.5 334.5>
VStem: 184 232<321 386.5>
LayerCount: 2
Fore
SplineSet
184 354 m 0
 184 419 231 471 300 471 c 0
 369 471 416 419 416 354 c 0
 416 288 369 236 300 236 c 0
 231 236 184 288 184 354 c 0
EndSplineSet
EndChar

StartChar: cedilla
Encoding: 184 184 731
Width: 600
Flags: MW
HStem: -221 59<199 210> -43 47<329 329>
VStem: 281 106<-131 -109.5>
LayerCount: 2
Fore
SplineSet
223 -76 m 1
 263 4 l 1
 349 4 l 1
 329 -43 l 1
 362 -54 387 -76 387 -117 c 0
 387 -186 304 -216 210 -221 c 1
 199 -162 l 1
 247 -157 281 -144 281 -118 c 0
 281 -101 268 -87 223 -76 c 1
EndSplineSet
EndChar

StartChar: one.sups
Encoding: 185 185 539
Width: 600
Flags: MW
HStem: 652 100<196 384>
VStem: 277 107<440 652 652 652>
LayerCount: 2
Fore
SplineSet
277 440 m 1
 277 652 l 1
 196 652 l 1
 196 716 l 1
 247 723 268 732 301 752 c 1
 384 752 l 1
 384 440 l 1
 277 440 l 1
EndSplineSet
EndChar

StartChar: guillemotright
Encoding: 187 187 501
Width: 600
Flags: MW
HStem: 25 454<121 121 121 387>
VStem: 59 499<80 325 179 424>
LayerCount: 2
Fore
SplineSet
59 80 m 1
 186 252 l 1
 59 424 l 1
 121 479 l 1
 292 325 l 1
 292 179 l 1
 121 25 l 1
 59 80 l 1
325 80 m 1
 452 252 l 1
 325 424 l 1
 387 479 l 1
 558 325 l 1
 558 179 l 1
 387 25 l 1
 325 80 l 1
EndSplineSet
EndChar

StartChar: onequarter
Encoding: 188 188 651
Width: 600
Flags: MW
HStem: 0 127<383 542 383 448> 61 66<383 448 383 448 542 593> 248 64<450 453 450 450> 536 64<69 69 69 150> 536 99<69 257>
VStem: 150 107<324 536 536 536> 448 94<0 61 0 61 127 149 149 149>
LayerCount: 2
Fore
SplineSet
583 551 m 1xae
 397 377 l 1
 346 425 l 1
 508 624 l 1
 583 551 l 1xae
17 101 m 1
 203 274 l 1
 254 227 l 1
 92 28 l 1
 17 101 l 1
69 536 m 1
 69 600 l 1xb6
 120 606 142 615 174 635 c 1
 257 635 l 1
 257 324 l 1
 150 324 l 1
 150 536 l 1
 69 536 l 1
383 127 m 1
 448 127 l 1
 448 149 l 1
 453 248 l 1
 450 248 l 1
 416 186 l 1
 383 127 l 1
593 127 m 1
 593 61 l 1
 542 61 l 1x6e
 542 0 l 1
 448 0 l 1xae
 448 61 l 1
 288 61 l 1
 288 112 l 1x6e
 408 312 l 1
 542 312 l 1
 542 127 l 1
 593 127 l 1
EndSplineSet
EndChar

StartChar: onehalf
Encoding: 189 189 652
Width: 600
Flags: MW
HStem: 0 87<467 560 467 560> 238 86<392.5 416> 536 64<69 150 69 69> 536 99<69 257>
VStem: 150 107<324 536 536 536> 299 261<0 55 55 55> 446 102<192 209.5>
LayerCount: 2
Fore
SplineSet
150 324 m 1xd8
 150 536 l 1
 69 536 l 1xdc
 69 600 l 1xe8
 120 606 142 615 174 635 c 1
 257 635 l 1
 257 324 l 1
 150 324 l 1xd8
92 28 m 1
 17 101 l 1
 203 274 l 1
 254 227 l 1
 92 28 l 1
508 624 m 1
 583 551 l 1
 397 377 l 1
 346 425 l 1
 508 624 l 1
299 0 m 1
 299 55 l 1xdc
 381 109 446 163 446 197 c 0
 446 222 430 238 402 238 c 0
 383 238 363 226 346 203 c 1
 285 259 l 1
 322 298 364 324 418 324 c 0
 497 324 548 283 548 215 c 0
 548 169 509 126 467 87 c 1
 560 87 l 1
 560 0 l 1xda
 299 0 l 1
EndSplineSet
EndChar

StartChar: threequarters
Encoding: 190 190 653
Width: 600
Flags: MW
HStem: 0 127<384 542 384 449> 61 66<384 449 384 449 542 594> 248 64<451 454 451 451> 312 78<153 172.5 147 210> 454 56<130 148.5 130 155> 568 79<148.5 164>
VStem: 190 104<540.5 550> 203 104<409.5 429.5 382 431> 449 93<0 61 0 61 127 149 149 149>
LayerCount: 2
Fore
SplineSet
590 551 m 1x9e80
 404 377 l 1
 353 425 l 1
 515 624 l 1
 590 551 l 1x9e80
24 101 m 1
 210 274 l 1
 261 227 l 1
 99 28 l 1
 24 101 l 1
86 543 m 1
 43 606 l 1
 74 630 121 647 176 647 c 0
 241 647 294 612 294 559 c 0xae80
 294 522 281 501 240 487 c 1
 288 474 307 448 307 411 c 0
 307 353 246 312 174 312 c 0
 132 312 84 319 37 353 c 1
 78 419 l 1
 99 404 133 390 161 390 c 0
 184 390 203 400 203 419 c 0x9d80
 203 443 180 454 130 454 c 1
 130 510 l 1
 167 510 190 518 190 542 c 0
 190 558 176 568 152 568 c 0
 129 568 106 556 86 543 c 1
384 127 m 1
 449 127 l 1
 449 149 l 1
 454 248 l 1
 451 248 l 1
 417 186 l 1
 384 127 l 1
594 127 m 1
 594 61 l 1
 542 61 l 1x5e80
 542 0 l 1
 449 0 l 1x9e80
 449 61 l 1
 289 61 l 1
 289 112 l 1x5e80
 409 312 l 1
 542 312 l 1
 542 127 l 1
 594 127 l 1
EndSplineSet
EndChar

StartChar: questiondown
Encoding: 191 191 489
Width: 600
Flags: MW
HStem: -186 119<297 339 297 347.5> 306 202<285.5 343> 488 20G<285.5 343>
VStem: 103 141<-24.5 33 -24.5 42.5> 215 199<376.5 436>
LayerCount: 2
Fore
SplineSet
383 241 m 1xb0
 404 107 244 70 244 -4 c 0
 244 -45 276 -67 318 -67 c 0
 360 -67 390 -48 421 -21 c 1
 502 -95 l 1
 454 -149 387 -186 308 -186 c 0
 193 -186 103 -133 103 -23 c 0
 103 108 266 125 254 241 c 1
 383 241 l 1xb0
414 406 m 0xc8
 414 347 372 306 314 306 c 0
 257 306 215 347 215 406 c 0
 215 466 257 508 314 508 c 0
 372 508 414 466 414 406 c 0xc8
EndSplineSet
EndChar

StartChar: Aacute
Encoding: 193 193 55
Width: 600
Flags: MW
HStem: 0 21G<9 159 9 9 435 591 435 435> 155 115<229 366 229 396 199 366> 540 112<295 299 295 295> 702 120<306 342 225 462>
VStem: 9 582<0 0>
LayerCount: 2
Fore
SplineSet
462 822 m 1
 342 702 l 1
 225 702 l 1
 306 822 l 1
 462 822 l 1
229 270 m 1
 366 270 l 1
 351 330 l 2
 334 395 316 472 299 540 c 1
 295 540 l 1
 279 471 261 395 244 330 c 2
 229 270 l 1
435 0 m 1
 396 155 l 1
 199 155 l 1
 159 0 l 1
 9 0 l 1
 212 652 l 1
 388 652 l 1
 591 0 l 1
 435 0 l 1
EndSplineSet
EndChar

StartChar: Acircumflex
Encoding: 194 194 56
Width: 600
Flags: MW
HStem: 0 21G<9 159 9 9 435 591 435 435> 155 115<229 366 229 396 199 366> 540 112<295 299 295 295> 702 120<228 245 132 372 355 355 355 372 228 468>
VStem: 9 582<0 0>
LayerCount: 2
Fore
SplineSet
298 763 m 1
 245 702 l 1
 132 702 l 1
 228 822 l 1
 372 822 l 1
 468 702 l 1
 355 702 l 1
 302 763 l 1
 298 763 l 1
229 270 m 1
 366 270 l 1
 351 330 l 2
 334 395 316 472 299 540 c 1
 295 540 l 1
 279 471 261 395 244 330 c 2
 229 270 l 1
435 0 m 1
 396 155 l 1
 199 155 l 1
 159 0 l 1
 9 0 l 1
 212 652 l 1
 388 652 l 1
 591 0 l 1
 435 0 l 1
EndSplineSet
EndChar

StartChar: Atilde
Encoding: 195 195 57
Width: 600
Flags: MW
HStem: 0 21G<9 159 9 9 435 591 435 435> 155 115<229 366 229 396 199 366> 540 112<295 299 295 295> 703 136<130 264 130 264 211 389>
VStem: 130 75<703 703> 395 75<839 839>
LayerCount: 2
Fore
SplineSet
395 839 m 1
 470 839 l 1
 460 748 415 703 363 703 c 0
 309 703 274 748 243 748 c 0
 226 748 212 736 205 703 c 1
 130 703 l 1
 140 794 185 839 237 839 c 0
 291 839 326 794 357 794 c 0
 374 794 388 806 395 839 c 1
229 270 m 1
 366 270 l 1
 351 330 l 2
 334 395 316 472 299 540 c 1
 295 540 l 1
 279 471 261 395 244 330 c 2
 229 270 l 1
435 0 m 1
 396 155 l 1
 199 155 l 1
 159 0 l 1
 9 0 l 1
 212 652 l 1
 388 652 l 1
 591 0 l 1
 435 0 l 1
EndSplineSet
EndChar

StartChar: Adieresis
Encoding: 196 196 58
Width: 600
Flags: MW
HStem: 0 21G<9 159 9 9 435 591 435 435> 155 115<229 366 229 396 199 366> 540 112<295 299 295 295> 700 140<180.5 221.5 378.5 419.5>
VStem: 131 140<750 790> 329 140<750 790>
LayerCount: 2
Fore
SplineSet
399 700 m 0
 358 700 329 730 329 770 c 0
 329 810 358 840 399 840 c 0
 440 840 469 810 469 770 c 0
 469 730 440 700 399 700 c 0
201 700 m 0
 160 700 131 730 131 770 c 0
 131 810 160 840 201 840 c 0
 242 840 271 810 271 770 c 0
 271 730 242 700 201 700 c 0
229 270 m 1
 366 270 l 1
 351 330 l 2
 334 395 316 472 299 540 c 1
 295 540 l 1
 279 471 261 395 244 330 c 2
 229 270 l 1
435 0 m 1
 396 155 l 1
 199 155 l 1
 159 0 l 1
 9 0 l 1
 212 652 l 1
 388 652 l 1
 591 0 l 1
 435 0 l 1
EndSplineSet
EndChar

StartChar: Aring
Encoding: 197 197 61
Width: 600
Flags: MW
HStem: 0 21G<9 159 9 9 435 591 435 435> 155 115<229 366 229 396 199 366> 540 112<295 299 295 295> 697 55<288.5 311 288.5 333.5> 838 55<288.5 311>
VStem: 187 72<781.5 808 781.5 824.5> 340 73<781.5 808>
LayerCount: 2
Fore
SplineSet
300 838 m 0
 277 838 259 821 259 795 c 0
 259 768 277 752 300 752 c 0
 322 752 340 768 340 795 c 0
 340 821 322 838 300 838 c 0
300 697 m 0
 233 697 187 735 187 795 c 0
 187 854 233 893 300 893 c 0
 367 893 413 854 413 795 c 0
 413 735 367 697 300 697 c 0
229 270 m 1
 366 270 l 1
 351 330 l 2
 334 395 316 472 299 540 c 1
 295 540 l 1
 279 471 261 395 244 330 c 2
 229 270 l 1
435 0 m 1
 396 155 l 1
 199 155 l 1
 159 0 l 1
 9 0 l 1
 212 652 l 1
 388 652 l 1
 591 0 l 1
 435 0 l 1
EndSplineSet
EndChar

StartChar: AE
Encoding: 198 198 76
Width: 600
GlyphClass: 2
Flags: MW
HStem: 0 124<441 595 441 595> 149 114<227 311 227 311 193 311> 275 124<441 559 441 559> 528 124<441 586 441 441> 541 111<308 311 308 308>
VStem: 311 130<124 124 124 149 149 149 263 275 399 528>
AnchorPoint: "Anchor-0" 411 694 basechar 0
LayerCount: 2
Fore
SplineSet
227 263 m 1xec
 311 263 l 1
 311 541 l 1
 308 541 l 1
 291 476 271 413 255 356 c 1
 227 263 l 1xec
441 124 m 1xb4
 595 124 l 1
 595 0 l 1
 311 0 l 1xb4
 311 149 l 1
 193 149 l 1xf4
 148 0 l 1
 -3 0 l 1
 206 652 l 1
 586 652 l 1
 586 528 l 1
 441 528 l 1
 441 399 l 1
 559 399 l 1
 559 275 l 1
 441 275 l 1
 441 124 l 1xb4
EndSplineSet
EndChar

StartChar: Ccedilla
Encoding: 199 199 78
Width: 600
Flags: MW
HStem: -221 59<243 254> -7 21G<303 303> 537 127<320 389.5>
VStem: 55 151<260 392.5 260 430> 326 106<-131 -109.5>
LayerCount: 2
Fore
SplineSet
488 173 m 1
 569 84 l 1
 520 27 458 -5 387 -11 c 1
 373 -43 l 1
 407 -54 432 -76 432 -117 c 0
 432 -186 349 -216 254 -221 c 1
 243 -162 l 1
 291 -157 326 -144 326 -118 c 0
 326 -101 312 -87 268 -76 c 1
 303 -7 l 1
 163 18 55 130 55 322 c 0
 55 538 192 664 366 664 c 0
 449 664 515 624 559 581 c 1
 478 490 l 1
 447 518 413 537 366 537 c 0
 274 537 206 458 206 327 c 0
 206 193 274 115 372 115 c 0
 419 115 456 138 488 173 c 1
EndSplineSet
EndChar

StartChar: Egrave
Encoding: 200 200 87
Width: 600
Flags: MW
HStem: 0 124<241 534 241 534> 274 123<241 481 241 481> 528 124<241 524 241 241> 702 120<279 279 279 316 159 396>
VStem: 94 147<124 274 397 528>
LayerCount: 2
Fore
SplineSet
94 0 m 1
 94 652 l 1
 524 652 l 1
 524 528 l 1
 241 528 l 1
 241 397 l 1
 481 397 l 1
 481 274 l 1
 241 274 l 1
 241 124 l 1
 534 124 l 1
 534 0 l 1
 94 0 l 1
279 702 m 1
 159 822 l 1
 316 822 l 1
 396 702 l 1
 279 702 l 1
EndSplineSet
EndChar

StartChar: Eacute
Encoding: 201 201 88
Width: 600
Flags: MW
HStem: 0 124<241 534 241 534> 274 123<241 481 241 481> 528 124<241 524 241 241> 702 120<327 364 247 484>
VStem: 94 147<124 274 397 528>
LayerCount: 2
Fore
SplineSet
94 0 m 1
 94 652 l 1
 524 652 l 1
 524 528 l 1
 241 528 l 1
 241 397 l 1
 481 397 l 1
 481 274 l 1
 241 274 l 1
 241 124 l 1
 534 124 l 1
 534 0 l 1
 94 0 l 1
484 822 m 1
 364 702 l 1
 247 702 l 1
 327 822 l 1
 484 822 l 1
EndSplineSet
EndChar

StartChar: Ecircumflex
Encoding: 202 202 89
Width: 600
Flags: MW
HStem: 0 124<241 534 241 534> 274 123<241 481 241 481> 528 124<241 524 241 241> 702 120<250 266 154 393 377 377 377 393 250 489>
VStem: 94 147<124 274 397 528>
LayerCount: 2
Fore
SplineSet
94 0 m 1
 94 652 l 1
 524 652 l 1
 524 528 l 1
 241 528 l 1
 241 397 l 1
 481 397 l 1
 481 274 l 1
 241 274 l 1
 241 124 l 1
 534 124 l 1
 534 0 l 1
 94 0 l 1
266 702 m 1
 154 702 l 1
 250 822 l 1
 393 822 l 1
 489 702 l 1
 377 702 l 1
 324 763 l 1
 320 763 l 1
 266 702 l 1
EndSplineSet
MultipleSubs2: "Multiple Substitution lookup 2 subtable" E uni0302
EndChar

StartChar: Edieresis
Encoding: 203 203 91
Width: 600
Flags: MW
HStem: 0 124<241 534 241 534> 274 123<241 481 241 481> 528 124<241 524 241 241> 700 140<201.5 243 400.5 441.5>
VStem: 94 147<124 274 397 528> 153 139<750 790> 351 139<750 790>
LayerCount: 2
Fore
SplineSet
94 0 m 1xe8
 94 652 l 1
 524 652 l 1
 524 528 l 1
 241 528 l 1
 241 397 l 1
 481 397 l 1
 481 274 l 1
 241 274 l 1
 241 124 l 1
 534 124 l 1
 534 0 l 1
 94 0 l 1xe8
222 700 m 0xf6
 181 700 153 730 153 770 c 0
 153 810 181 840 222 840 c 0
 264 840 292 810 292 770 c 0
 292 730 264 700 222 700 c 0xf6
421 700 m 0
 380 700 351 730 351 770 c 0
 351 810 380 840 421 840 c 0
 462 840 490 810 490 770 c 0
 490 730 462 700 421 700 c 0
EndSplineSet
EndChar

StartChar: Igrave
Encoding: 204 204 115
Width: 600
Flags: MW
HStem: 0 124<74 226 74 226 374 526> 528 124<74 226 74 526 374 374 374 526> 702 120<258 258 258 294 138 375>
VStem: 226 148<124 528 124 528>
LayerCount: 2
Fore
SplineSet
74 0 m 1
 74 124 l 1
 226 124 l 1
 226 528 l 1
 74 528 l 1
 74 652 l 1
 526 652 l 1
 526 528 l 1
 374 528 l 1
 374 124 l 1
 526 124 l 1
 526 0 l 1
 74 0 l 1
258 702 m 1
 138 822 l 1
 294 822 l 1
 375 702 l 1
 258 702 l 1
EndSplineSet
EndChar

StartChar: Iacute
Encoding: 205 205 116
Width: 600
Flags: MW
HStem: 0 124<74 226 74 226 374 526> 528 124<74 226 74 526 374 374 374 526> 702 120<306 342 225 462>
VStem: 226 148<124 528 124 528>
LayerCount: 2
Fore
SplineSet
74 0 m 1
 74 124 l 1
 226 124 l 1
 226 528 l 1
 74 528 l 1
 74 652 l 1
 526 652 l 1
 526 528 l 1
 374 528 l 1
 374 124 l 1
 526 124 l 1
 526 0 l 1
 74 0 l 1
462 822 m 1
 342 702 l 1
 225 702 l 1
 306 822 l 1
 462 822 l 1
EndSplineSet
EndChar

StartChar: Icircumflex
Encoding: 206 206 117
Width: 600
Flags: MW
HStem: 0 124<74 226 74 226 374 526> 528 124<74 226 74 526 374 374 374 526> 702 120<228 245 132 372 355 355 355 372 228 468>
VStem: 226 148<124 528 124 528>
LayerCount: 2
Fore
SplineSet
74 0 m 1
 74 124 l 1
 226 124 l 1
 226 528 l 1
 74 528 l 1
 74 652 l 1
 526 652 l 1
 526 528 l 1
 374 528 l 1
 374 124 l 1
 526 124 l 1
 526 0 l 1
 74 0 l 1
245 702 m 1
 132 702 l 1
 228 822 l 1
 372 822 l 1
 468 702 l 1
 355 702 l 1
 302 763 l 1
 298 763 l 1
 245 702 l 1
EndSplineSet
EndChar

StartChar: Idieresis
Encoding: 207 207 119
Width: 600
Flags: MW
HStem: 0 124<74 226 74 226 374 526> 528 124<74 226 74 526 374 374 374 526> 700 140<180.5 221.5 378.5 419.5>
VStem: 131 140<750 790> 226 148<124 528 124 528> 329 140<750 790>
LayerCount: 2
Fore
SplineSet
74 0 m 1xc8
 74 124 l 1
 226 124 l 1
 226 528 l 1
 74 528 l 1
 74 652 l 1
 526 652 l 1
 526 528 l 1
 374 528 l 1
 374 124 l 1
 526 124 l 1
 526 0 l 1
 74 0 l 1xc8
201 700 m 0xf4
 160 700 131 730 131 770 c 0
 131 810 160 840 201 840 c 0
 242 840 271 810 271 770 c 0
 271 730 242 700 201 700 c 0xf4
399 700 m 0
 358 700 329 730 329 770 c 0
 329 810 358 840 399 840 c 0
 440 840 469 810 469 770 c 0
 469 730 440 700 399 700 c 0
EndSplineSet
EndChar

StartChar: Ntilde
Encoding: 209 209 140
Width: 600
Flags: MW
HStem: 0 21G<66 66 66 207 384 384 384 534> 0 184<384 414 410 414 410 534> 467 185<186 190 186 186> 632 20G<66 216 216 216 393 534 534 534> 703 136<136 270 136 270 217 395>
VStem: 66 141<0 231 0 652> 136 75<703 703> 393 141<421 652 0 652> 401 75<839 839>
LayerCount: 2
Fore
SplineSet
66 0 m 1x9d
 66 652 l 1
 216 652 l 1
 354 327 l 1
 410 184 l 1
 414 184 l 1x5d
 407 253 393 345 393 421 c 2
 393 652 l 1
 534 652 l 1
 534 0 l 1
 384 0 l 1
 246 325 l 1
 190 467 l 1
 186 467 l 1xad
 193 395 207 308 207 231 c 2
 207 0 l 1
 66 0 l 1x9d
369 703 m 0
 315 703 280 748 249 748 c 0
 232 748 218 736 211 703 c 1
 136 703 l 1
 146 794 191 839 243 839 c 0
 297 839 332 794 363 794 c 0
 380 794 394 806 401 839 c 1
 476 839 l 1x9a80
 466 748 421 703 369 703 c 0
EndSplineSet
EndChar

StartChar: Ocircumflex
Encoding: 212 212 147
Width: 600
Flags: MW
HStem: -12 127<266 334 266 377.5> 537 127<266 334> 702 120<228 245 132 372 355 355 355 372 228 468>
VStem: 38 151<263.5 394 263.5 435.5> 411 151<263.5 394>
LayerCount: 2
Fore
SplineSet
300 -12 m 0
 145 -12 38 116 38 329 c 0
 38 542 145 664 300 664 c 0
 455 664 562 541 562 329 c 0
 562 116 455 -12 300 -12 c 0
300 115 m 0
 368 115 411 198 411 329 c 0
 411 459 368 537 300 537 c 0
 232 537 189 459 189 329 c 0
 189 198 232 115 300 115 c 0
245 702 m 1
 132 702 l 1
 228 822 l 1
 372 822 l 1
 468 702 l 1
 355 702 l 1
 302 763 l 1
 298 763 l 1
 245 702 l 1
EndSplineSet
MultipleSubs2: "Multiple Substitution lookup 2 subtable" O uni0302
EndChar

StartChar: Otilde
Encoding: 213 213 148
Width: 600
Flags: MW
HStem: -12 127<266 334 266 377.5> 537 127<266 334> 703 136<130 264 130 264 211 389>
VStem: 38 151<263.5 394 263.5 435.5> 130 75<703 703> 395 75<839 839> 411 151<263.5 394>
LayerCount: 2
Fore
SplineSet
300 -12 m 0xf2
 145 -12 38 116 38 329 c 0
 38 542 145 664 300 664 c 0
 455 664 562 541 562 329 c 0
 562 116 455 -12 300 -12 c 0xf2
300 115 m 0
 368 115 411 198 411 329 c 0
 411 459 368 537 300 537 c 0
 232 537 189 459 189 329 c 0
 189 198 232 115 300 115 c 0
363 703 m 0
 309 703 274 748 243 748 c 0
 226 748 212 736 205 703 c 1
 130 703 l 1
 140 794 185 839 237 839 c 0
 291 839 326 794 357 794 c 0
 374 794 388 806 395 839 c 1
 470 839 l 1xec
 460 748 415 703 363 703 c 0
EndSplineSet
EndChar

StartChar: Odieresis
Encoding: 214 214 149
Width: 600
Flags: MW
HStem: -12 127<266 334 266 377.5> 537 127<266 334> 700 140<180.5 221.5 378.5 419.5>
VStem: 38 151<263.5 394 263.5 435.5> 131 140<750 790> 329 140<750 790> 411 151<263.5 394>
LayerCount: 2
Fore
SplineSet
300 -12 m 0xf2
 145 -12 38 116 38 329 c 0
 38 542 145 664 300 664 c 0
 455 664 562 541 562 329 c 0
 562 116 455 -12 300 -12 c 0xf2
300 115 m 0
 368 115 411 198 411 329 c 0
 411 459 368 537 300 537 c 0
 232 537 189 459 189 329 c 0
 189 198 232 115 300 115 c 0
201 700 m 0xec
 160 700 131 730 131 770 c 0
 131 810 160 840 201 840 c 0
 242 840 271 810 271 770 c 0
 271 730 242 700 201 700 c 0xec
399 700 m 0
 358 700 329 730 329 770 c 0
 329 810 358 840 399 840 c 0
 440 840 469 810 469 770 c 0
 469 730 440 700 399 700 c 0
EndSplineSet
EndChar

StartChar: multiply
Encoding: 215 215 662
Width: 600
Flags: MW
HStem: 112 435<157 157 157 443>
VStem: 84 432<186 186 186 473>
LayerCount: 2
Fore
SplineSet
157 112 m 1
 84 186 l 1
 226 329 l 1
 84 473 l 1
 157 547 l 1
 300 403 l 1
 443 547 l 1
 516 473 l 1
 374 329 l 1
 516 186 l 1
 443 112 l 1
 300 256 l 1
 157 112 l 1
EndSplineSet
EndChar

StartChar: Oslash
Encoding: 216 216 161
Width: 600
GlyphClass: 2
Flags: MW
HStem: -12 21G -12 127<287.5 334 287.5 377.5> 537 127<266 313.5> 644 20G<222.5 328.5>
VStem: 38 151<314.5 394 314.5 435.5> 411 151<263.5 340.5>
AnchorPoint: "Anchor-0" 305 674 basechar 0
LayerCount: 2
Fore
SplineSet
407 393 m 1x6c
 237 146 l 1
 254 126 275 115 300 115 c 0
 368 115 411 198 411 329 c 0
 411 352 410 374 407 393 c 1x6c
195 249 m 1
 369 501 l 1
 351 524 327 537 300 537 c 0
 232 537 189 459 189 329 c 0
 189 300 191 273 195 249 c 1
579 643 m 1x5c
 511 544 l 1
 544 489 562 417 562 329 c 0
 562 116 455 -12 300 -12 c 0
 246 -12 198 3 159 32 c 1
 108 -41 l 1x5c
 30 9 l 1
 94 102 l 1
 58 159 38 236 38 329 c 0
 38 542 145 664 300 664 c 0
 357 664 407 647 448 616 c 1
 501 693 l 1xac
 579 643 l 1x5c
EndSplineSet
EndChar

StartChar: Ugrave
Encoding: 217 217 189
Width: 600
Flags: MW
HStem: -12 127<271 333 271 381> 632 20G<64 211 211 211 394 536 536 536> 702 120<258 258 258 294 138 375>
VStem: 64 147<251 652> 394 142<236 251 251 652>
LayerCount: 2
Fore
SplineSet
64 251 m 2
 64 652 l 1
 211 652 l 1
 211 236 l 2
 211 158 240 115 302 115 c 0
 364 115 394 158 394 236 c 2
 394 652 l 1
 536 652 l 1
 536 251 l 2
 536 82 460 -12 302 -12 c 0
 143 -12 64 82 64 251 c 2
258 702 m 1
 138 822 l 1
 294 822 l 1
 375 702 l 1
 258 702 l 1
EndSplineSet
EndChar

StartChar: Udieresis
Encoding: 220 220 193
Width: 600
Flags: MW
HStem: -12 127<271 333 271 381> 632 20G<64 211 211 211 394 536 536 536> 700 140<180.5 221.5 378.5 419.5>
VStem: 64 147<251 652> 131 140<750 790> 329 140<750 790> 394 142<236 251 251 652>
LayerCount: 2
Fore
SplineSet
64 251 m 2xf2
 64 652 l 1
 211 652 l 1
 211 236 l 2
 211 158 240 115 302 115 c 0
 364 115 394 158 394 236 c 2
 394 652 l 1
 536 652 l 1
 536 251 l 2
 536 82 460 -12 302 -12 c 0
 143 -12 64 82 64 251 c 2xf2
201 700 m 0
 160 700 131 730 131 770 c 0xf2
 131 810 160 840 201 840 c 0
 242 840 271 810 271 770 c 0xea
 271 730 242 700 201 700 c 0
399 700 m 0
 358 700 329 730 329 770 c 0xf4
 329 810 358 840 399 840 c 0
 440 840 469 810 469 770 c 0
 469 730 440 700 399 700 c 0
EndSplineSet
EndChar

StartChar: Yacute
Encoding: 221 221 217
Width: 600
Flags: MW
HStem: 0 21G<226 226 226 374> 632 20G<16 174 174 174 430 584 584 584> 702 120<306 342 225 462>
VStem: 226 148<0 220 0 220>
LayerCount: 2
Fore
SplineSet
226 0 m 1
 226 220 l 1
 16 652 l 1
 174 652 l 1
 240 495 l 1
 259 445 279 398 299 346 c 1
 303 346 l 1
 324 398 344 445 364 495 c 2
 430 652 l 1
 584 652 l 1
 374 220 l 1
 374 0 l 1
 226 0 l 1
462 822 m 1
 342 702 l 1
 225 702 l 1
 306 822 l 1
 462 822 l 1
EndSplineSet
EndChar

StartChar: Thorn
Encoding: 222 222 229
Width: 600
Flags: MW
HStem: 0 21G<73 73 73 220> 123 117<220 302 302 311 220 302> 436 117<220 302 220 311> 632 20G<73 220 220 220>
VStem: 73 147<0 123 240 436 553 652> 421 145<310 378>
LayerCount: 2
Fore
SplineSet
73 0 m 1
 73 652 l 1
 220 652 l 1
 220 553 l 1
 311 553 l 2
 452 553 566 502 566 344 c 0
 566 190 449 123 311 123 c 2
 220 123 l 1
 220 0 l 1
 73 0 l 1
220 240 m 1
 302 240 l 2
 383 240 421 276 421 344 c 0
 421 412 380 436 302 436 c 2
 220 436 l 1
 220 240 l 1
EndSplineSet
EndChar

StartChar: germandbls
Encoding: 223 223 363
Width: 600
Flags: MW
HStem: -12 109<378.5 405 378.5 454> 0 21G<61 61 61 208> 0 25 597 116<260 303.5>
VStem: 61 147<0 486 0 495 0 557> 280 136<335 390> 340 137<497.5 553> 435 136<127 178>
LayerCount: 2
Fore
SplineSet
61 0 m 1x5a
 61 495 l 2
 61 619 135 713 288 713 c 0
 417 713 477 630 477 544 c 0x5a
 477 449 416 419 416 368 c 0x5c
 416 302 571 297 571 152 c 0
 571 61 511 -12 397 -12 c 0x99
 342 -12 303 1 258 25 c 1x3a
 307 125 l 1
 338 105 365 97 392 97 c 0
 418 97 435 114 435 140 c 0x99
 435 216 280 218 280 350 c 0x5c
 280 430 340 459 340 536 c 0
 340 570 320 597 287 597 c 0
 233 597 208 554 208 486 c 2
 208 0 l 1
 61 0 l 1x5a
EndSplineSet
EndChar

StartChar: acircumflex
Encoding: 226 226 233
Width: 600
Flags: MW
HStem: -12 114<250 256> 0 21G<415 535 415 415> 231 88<388 388> 391 117<268.5 315.5> 574 167<146 370 246 253 363 363 363 370 246 470>
VStem: 61 141<133 170.5 133 193.5> 388 147<149 231 231 231>
LayerCount: 2
Fore
SplineSet
61 138 m 0x7e
 61 249 153 305 388 319 c 1
 383 364 349 391 282 391 c 0
 234 391 187 373 131 345 c 1
 79 441 l 1
 147 480 226 508 311 508 c 0
 450 508 535 436 535 284 c 2
 535 0 l 1
 415 0 l 1x7e
 404 56 l 1
 400 56 l 1
 350 18 288 -12 224 -12 c 0xbe
 124 -12 61 54 61 138 c 0x7e
202 149 m 0xbe
 202 117 229 102 271 102 c 0
 315 102 353 122 388 149 c 1
 388 231 l 1
 242 223 202 192 202 149 c 0xbe
146 574 m 1
 246 741 l 1
 370 741 l 1
 470 574 l 1
 363 574 l 1
 310 669 l 1
 306 669 l 1
 253 574 l 1
 146 574 l 1
EndSplineSet
Substitution2: "'ss02' Style Set 2 in Latin lookup 18 subtable" acircumflex.a
Substitution2: "'aalt' Access All Alternates in Latin lookup 0 subtable" acircumflex.a
EndChar

StartChar: atilde
Encoding: 227 227 234
Width: 600
Flags: MW
HStem: -12 114<250 256> 0 21G<415 535 415 415> 231 88<388 388> 391 117<268.5 315.5> 575 91<347 371.5 347 392.5> 575 143<137 278.5 137 278.5 223.5 392.5>
VStem: 61 141<133 170.5 133 193.5> 388 147<149 231 231 231>
LayerCount: 2
Fore
SplineSet
61 138 m 0x77
 61 249 153 305 388 319 c 1
 383 364 349 391 282 391 c 0
 234 391 187 373 131 345 c 1
 79 441 l 1
 147 480 226 508 311 508 c 0
 450 508 535 436 535 284 c 2
 535 0 l 1
 415 0 l 1x77
 404 56 l 1
 400 56 l 1
 350 18 288 -12 224 -12 c 0xb7
 124 -12 61 54 61 138 c 0x77
202 149 m 0xb7
 202 117 229 102 271 102 c 0
 315 102 353 122 388 149 c 1
 388 231 l 1
 242 223 202 192 202 149 c 0xb7
137 575 m 1
 149 672 193 718 254 718 c 0x77
 303 718 333 666 361 666 c 0x7b
 382 666 395 679 404 718 c 1
 479 718 l 1x77
 467 622 423 575 362 575 c 0x7b
 312 575 283 628 255 628 c 0
 234 628 221 615 212 575 c 1
 137 575 l 1
EndSplineSet
Substitution2: "'ss02' Style Set 2 in Latin lookup 18 subtable" atilde.a
Substitution2: "'aalt' Access All Alternates in Latin lookup 0 subtable" atilde.a
EndChar

StartChar: adieresis
Encoding: 228 228 235
Width: 600
Flags: MW
HStem: -12 114<250 256> 0 21G<415 535 415 415> 231 88<388 388> 391 117<268.5 315.5> 571 157<176 222 394 440.5>
VStem: 61 141<133 170.5 133 193.5> 121 157<627.5 672> 339 157<627.5 672> 388 147<149 231 231 231>
LayerCount: 2
Fore
SplineSet
61 138 m 0x7c80
 61 249 153 305 388 319 c 1
 383 364 349 391 282 391 c 0
 234 391 187 373 131 345 c 1
 79 441 l 1
 147 480 226 508 311 508 c 0
 450 508 535 436 535 284 c 2
 535 0 l 1
 415 0 l 1x7c80
 404 56 l 1
 400 56 l 1
 350 18 288 -12 224 -12 c 0xbc80
 124 -12 61 54 61 138 c 0x7c80
202 149 m 0xbc80
 202 117 229 102 271 102 c 0
 315 102 353 122 388 149 c 1
 388 231 l 1
 242 223 202 192 202 149 c 0xbc80
199 571 m 0x7b
 153 571 121 605 121 650 c 0
 121 694 153 728 199 728 c 0
 245 728 278 694 278 650 c 0
 278 605 245 571 199 571 c 0x7b
417 571 m 0
 371 571 339 605 339 650 c 0
 339 694 371 728 417 728 c 0
 464 728 496 694 496 650 c 0
 496 605 464 571 417 571 c 0
EndSplineSet
Substitution2: "'ss02' Style Set 2 in Latin lookup 18 subtable" adieresis.a
Substitution2: "'aalt' Access All Alternates in Latin lookup 0 subtable" adieresis.a
EndChar

StartChar: aring
Encoding: 229 229 238
Width: 600
Flags: MW
HStem: -12 114<250 256> 0 21G<415 535 415 415> 231 88<388 388> 391 117<268.5 315.5> 548 55<297 319.5 297 341.5> 697 55<297 319.5>
VStem: 61 141<133 170.5 133 193.5> 196 71<636 664 636 681> 349 72<636 664> 388 147<149 231 231 231>
LayerCount: 2
Fore
SplineSet
61 138 m 0xbe40
 61 249 153 305 388 319 c 1
 383 364 349 391 282 391 c 0
 234 391 187 373 131 345 c 1
 79 441 l 1
 147 480 226 508 311 508 c 0
 450 508 535 436 535 284 c 2
 535 0 l 1
 415 0 l 1x7d40
 404 56 l 1
 400 56 l 1
 350 18 288 -12 224 -12 c 0
 124 -12 61 54 61 138 c 0xbe40
202 149 m 0
 202 117 229 102 271 102 c 0
 315 102 353 122 388 149 c 1
 388 231 l 1
 242 223 202 192 202 149 c 0
308 548 m 0x7d80
 241 548 196 588 196 650 c 0
 196 712 241 752 308 752 c 0
 375 752 421 712 421 650 c 0
 421 588 375 548 308 548 c 0x7d80
308 603 m 0
 331 603 349 622 349 650 c 0
 349 678 331 697 308 697 c 0
 286 697 267 678 267 650 c 0
 267 622 286 603 308 603 c 0
EndSplineSet
Substitution2: "'ss02' Style Set 2 in Latin lookup 18 subtable" aring.a
Substitution2: "'aalt' Access All Alternates in Latin lookup 0 subtable" aring.a
EndChar

StartChar: ae
Encoding: 230 230 253
Width: 600
Flags: MW
HStem: -12 115<426.5 464 426.5 466> 205 90<359 476 357 586 359 359> 391 117<170.5 203> 396 112<409 444>
VStem: 16 132<134.5 169 134.5 189> 241 116<210 295> 476 117<295 322.5>
LayerCount: 2
Fore
SplineSet
16 138 m 0xde
 16 240 90 291 241 320 c 1
 237 366 222 391 184 391 c 0
 157 391 116 378 81 357 c 1xee
 29 453 l 1
 84 486 137 508 194 508 c 0
 252 508 287 479 310 435 c 1
 344 484 380 508 438 508 c 0
 540 508 593 399 593 269 c 0
 593 242 589 218 586 205 c 1
 359 205 l 1
 370 137 403 103 450 103 c 0
 478 103 501 111 528 129 c 1
 578 35 l 1
 540 5 487 -12 445 -12 c 0
 374 -12 328 18 294 65 c 1
 242 11 199 -12 154 -12 c 0
 64 -12 16 55 16 138 c 0xde
357 295 m 1
 476 295 l 1
 476 350 464 396 424 396 c 0
 391 396 364 364 357 295 c 1
148 150 m 0
 148 119 165 102 194 102 c 0
 213 102 237 114 255 136 c 1
 247 157 243 185 241 210 c 2
 240 231 l 1
 175 217 148 188 148 150 c 0
EndSplineSet
EndChar

StartChar: ccedilla
Encoding: 231 231 255
Width: 600
Flags: MW
HStem: -221 59<238 249> -9 21G<296 296> 389 119<319.5 380.5>
VStem: 67 151<205 291 205 330.5> 320 106<-131 -109.5>
LayerCount: 2
Fore
SplineSet
382 -10 m 1
 367 -43 l 1
 401 -54 426 -76 426 -117 c 0
 426 -186 343 -216 249 -221 c 1
 238 -162 l 1
 285 -157 320 -144 320 -118 c 0
 320 -101 307 -87 262 -76 c 1
 296 -9 l 1
 163 9 67 100 67 248 c 0
 67 413 201 508 354 508 c 0
 432 508 498 480 540 441 c 1
 472 350 l 1
 434 377 399 389 362 389 c 0
 277 389 218 334 218 248 c 0
 218 162 275 107 357 107 c 0
 409 107 453 129 488 154 c 1
 548 61 l 1
 499 20 439 -2 382 -10 c 1
EndSplineSet
EndChar

StartChar: egrave
Encoding: 232 232 264
Width: 600
Flags: MW
HStem: -12 112<313.5 363> 205 97<206 413 204 540 206 206> 396 112<289.5 349.5> 574 167<287 287 287 306 155 394>
VStem: 413 133<302 330>
LayerCount: 2
Fore
SplineSet
55 248 m 0
 55 410 181 508 313 508 c 0
 466 508 546 405 546 270 c 0
 546 244 542 217 540 205 c 1
 206 205 l 1
 216 131 277 100 350 100 c 0
 395 100 434 112 478 134 c 1
 526 46 l 1
 470 10 396 -12 330 -12 c 0
 176 -12 55 84 55 248 c 0
204 302 m 1
 413 302 l 1
 413 358 383 396 316 396 c 0
 263 396 217 366 204 302 c 1
287 574 m 1
 155 741 l 1
 306 741 l 1
 394 574 l 1
 287 574 l 1
EndSplineSet
Substitution2: "'sups' Superscript in Latin lookup 12 subtable" egrave.sups
Substitution2: "'aalt' Access All Alternates in Latin lookup 0 subtable" egrave.sups
EndChar

StartChar: eacute
Encoding: 233 233 265
Width: 600
Flags: MW
HStem: -12 112<313.5 363> 205 97<206 413 204 540 206 206> 396 112<289.5 349.5> 574 167<320 338 231 470>
VStem: 413 133<302 330>
LayerCount: 2
Fore
SplineSet
55 248 m 0
 55 410 181 508 313 508 c 0
 466 508 546 405 546 270 c 0
 546 244 542 217 540 205 c 1
 206 205 l 1
 216 131 277 100 350 100 c 0
 395 100 434 112 478 134 c 1
 526 46 l 1
 470 10 396 -12 330 -12 c 0
 176 -12 55 84 55 248 c 0
204 302 m 1
 413 302 l 1
 413 358 383 396 316 396 c 0
 263 396 217 366 204 302 c 1
470 741 m 1
 338 574 l 1
 231 574 l 1
 320 741 l 1
 470 741 l 1
EndSplineSet
Substitution2: "'sups' Superscript in Latin lookup 12 subtable" eacute.sups
Substitution2: "'aalt' Access All Alternates in Latin lookup 0 subtable" eacute.sups
EndChar

StartChar: ecircumflex
Encoding: 234 234 266
Width: 600
Flags: MW
HStem: -12 112<313.5 363> 205 97<206 413 204 540 206 206> 396 112<289.5 349.5> 574 167<150 374 251 257 368 368 368 374 251 475>
VStem: 413 133<302 330>
LayerCount: 2
Fore
SplineSet
55 248 m 0
 55 410 181 508 313 508 c 0
 466 508 546 405 546 270 c 0
 546 244 542 217 540 205 c 1
 206 205 l 1
 216 131 277 100 350 100 c 0
 395 100 434 112 478 134 c 1
 526 46 l 1
 470 10 396 -12 330 -12 c 0
 176 -12 55 84 55 248 c 0
204 302 m 1
 413 302 l 1
 413 358 383 396 316 396 c 0
 263 396 217 366 204 302 c 1
150 574 m 1
 251 741 l 1
 374 741 l 1
 475 574 l 1
 368 574 l 1
 315 669 l 1
 311 669 l 1
 257 574 l 1
 150 574 l 1
EndSplineSet
MultipleSubs2: "Multiple Substitution lookup 2 subtable" e uni0302
EndChar

StartChar: edieresis
Encoding: 235 235 268
Width: 600
Flags: MW
HStem: -12 112<313.5 363> 205 97<206 413 204 540 206 206> 396 112<289.5 349.5> 571 157<180 226 398 444>
VStem: 124 157<627.5 672> 343 157<627.5 672> 413 133<302 330>
LayerCount: 2
Fore
SplineSet
55 248 m 0xfa
 55 410 181 508 313 508 c 0
 466 508 546 405 546 270 c 0
 546 244 542 217 540 205 c 1
 206 205 l 1
 216 131 277 100 350 100 c 0
 395 100 434 112 478 134 c 1
 526 46 l 1
 470 10 396 -12 330 -12 c 0
 176 -12 55 84 55 248 c 0xfa
204 302 m 1
 413 302 l 1
 413 358 383 396 316 396 c 0
 263 396 217 366 204 302 c 1
203 571 m 0
 157 571 124 605 124 650 c 0
 124 694 157 728 203 728 c 0
 249 728 281 694 281 650 c 0
 281 605 249 571 203 571 c 0
421 571 m 0xfc
 375 571 343 605 343 650 c 0
 343 694 375 728 421 728 c 0
 467 728 500 694 500 650 c 0
 500 605 467 571 421 571 c 0xfc
EndSplineSet
EndChar

StartChar: iacute
Encoding: 237 237 293
Width: 600
Flags: MW
HStem: 0 21G<278 425 278 278> 381 115<79 425 79 278> 574 167<352 370 263 503>
VStem: 278 147<0 381 381 381>
LayerCount: 2
Fore
SplineSet
79 381 m 1
 79 496 l 1
 425 496 l 1
 425 0 l 1
 278 0 l 1
 278 381 l 1
 79 381 l 1
503 741 m 1
 370 574 l 1
 263 574 l 1
 352 741 l 1
 503 741 l 1
EndSplineSet
EndChar

StartChar: icircumflex
Encoding: 238 238 294
Width: 600
Flags: MW
HStem: 0 21G<278 425 278 278> 381 115<79 425 79 278> 574 167<183 407 283 290 400 400 400 407 283 507>
VStem: 278 147<0 381 381 381>
LayerCount: 2
Fore
SplineSet
79 381 m 1
 79 496 l 1
 425 496 l 1
 425 0 l 1
 278 0 l 1
 278 381 l 1
 79 381 l 1
183 574 m 1
 283 741 l 1
 407 741 l 1
 507 574 l 1
 400 574 l 1
 347 669 l 1
 343 669 l 1
 290 574 l 1
 183 574 l 1
EndSplineSet
EndChar

StartChar: idieresis
Encoding: 239 239 296
Width: 600
Flags: MW
HStem: 0 21G<278 425 278 278> 381 115<79 425 79 278> 571 157<213 259 431 477>
VStem: 157 157<627.5 672> 278 147<0 381 381 381> 376 157<627.5 672>
LayerCount: 2
Fore
SplineSet
79 381 m 1xe8
 79 496 l 1
 425 496 l 1
 425 0 l 1
 278 0 l 1
 278 381 l 1
 79 381 l 1xe8
236 571 m 0xf4
 190 571 157 605 157 650 c 0
 157 694 190 728 236 728 c 0
 282 728 314 694 314 650 c 0
 314 605 282 571 236 571 c 0xf4
454 571 m 0
 408 571 376 605 376 650 c 0
 376 694 408 728 454 728 c 0
 500 728 533 694 533 650 c 0
 533 605 500 571 454 571 c 0
EndSplineSet
EndChar

StartChar: eth
Encoding: 240 240 409
Width: 600
Flags: MW
HStem: -12 119<267.5 334.5 267.5 375> 346 109<262 292 210 319.5>
VStem: 47 134<188.5 268 188.5 299.5> 413 137<208 264>
LayerCount: 2
Fore
SplineSet
300 107 m 0
 369 107 413 158 413 258 c 0
 413 270 413 281 412 292 c 1
 378 331 341 346 298 346 c 0
 226 346 181 308 181 228 c 0
 181 149 235 107 300 107 c 0
518 662 m 1
 407 606 l 1
 493 526 550 418 550 266 c 0
 550 105 455 -12 295 -12 c 0
 160 -12 47 81 47 228 c 0
 47 371 152 455 268 455 c 0
 316 455 362 439 394 400 c 1
 375 460 343 508 296 550 c 1
 147 475 l 1
 109 540 l 1
 229 600 l 1
 201 618 170 635 135 651 c 1
 199 740 l 1
 250 717 299 690 344 658 c 1
 480 727 l 1
 518 662 l 1
EndSplineSet
EndChar

StartChar: ntilde
Encoding: 241 241 319
Width: 600
Flags: MW
HStem: 0 21G<72 72 72 219 393 393 393 540> 383 125<341 347> 476 20G<72 192 192 192> 575 91<354 378.5 354 399.5> 575 143<144 285.5 144 285.5 230.5 399.5>
VStem: 72 147<0 331 0 496> 393 147<0 287 287 306 0 320>
LayerCount: 2
Fore
SplineSet
72 0 m 1xae
 72 496 l 1
 192 496 l 1xae
 203 430 l 1
 207 430 l 1
 250 472 304 508 378 508 c 0
 490 508 540 431 540 306 c 2
 540 0 l 1
 393 0 l 1
 393 287 l 2
 393 353 374 383 320 383 c 0
 280 383 254 365 219 331 c 1xce
 219 0 l 1
 72 0 l 1xae
144 575 m 1
 156 672 200 718 261 718 c 0xae
 310 718 340 666 368 666 c 0xb6
 389 666 402 679 411 718 c 1
 486 718 l 1xae
 474 622 430 575 369 575 c 0xb6
 319 575 290 628 262 628 c 0
 241 628 228 615 219 575 c 1
 144 575 l 1
EndSplineSet
EndChar

StartChar: ograve
Encoding: 242 242 325
Width: 600
Flags: MW
HStem: -12 119<266 334 266 365.5> 389 119<266 334> 574 167<275 275 275 293 143 382>
VStem: 47 151<205 291 205 330.5> 402 151<205 291>
LayerCount: 2
Fore
SplineSet
47 248 m 0
 47 413 169 508 300 508 c 0
 431 508 553 413 553 248 c 0
 553 83 431 -12 300 -12 c 0
 169 -12 47 83 47 248 c 0
198 248 m 0
 198 162 232 107 300 107 c 0
 368 107 402 162 402 248 c 0
 402 334 368 389 300 389 c 0
 232 389 198 334 198 248 c 0
275 574 m 1
 143 741 l 1
 293 741 l 1
 382 574 l 1
 275 574 l 1
EndSplineSet
EndChar

StartChar: oacute
Encoding: 243 243 326
Width: 600
Flags: MW
HStem: -12 119<266 334 266 365.5> 389 119<266 334> 574 167<307 325 218 457>
VStem: 47 151<205 291 205 330.5> 402 151<205 291>
LayerCount: 2
Fore
SplineSet
47 248 m 0
 47 413 169 508 300 508 c 0
 431 508 553 413 553 248 c 0
 553 83 431 -12 300 -12 c 0
 169 -12 47 83 47 248 c 0
198 248 m 0
 198 162 232 107 300 107 c 0
 368 107 402 162 402 248 c 0
 402 334 368 389 300 389 c 0
 232 389 198 334 198 248 c 0
457 741 m 1
 325 574 l 1
 218 574 l 1
 307 741 l 1
 457 741 l 1
EndSplineSet
EndChar

StartChar: ocircumflex
Encoding: 244 244 327
Width: 600
Flags: MW
HStem: -12 119<266 334 266 365.5> 389 119<266 334> 574 167<138 362 238 245 355 355 355 362 238 462>
VStem: 47 151<205 291 205 330.5> 402 151<205 291>
LayerCount: 2
Fore
SplineSet
47 248 m 0
 47 413 169 508 300 508 c 0
 431 508 553 413 553 248 c 0
 553 83 431 -12 300 -12 c 0
 169 -12 47 83 47 248 c 0
198 248 m 0
 198 162 232 107 300 107 c 0
 368 107 402 162 402 248 c 0
 402 334 368 389 300 389 c 0
 232 389 198 334 198 248 c 0
138 574 m 1
 238 741 l 1
 362 741 l 1
 462 574 l 1
 355 574 l 1
 302 669 l 1
 298 669 l 1
 245 574 l 1
 138 574 l 1
EndSplineSet
MultipleSubs2: "Multiple Substitution lookup 2 subtable" o uni0302
EndChar

StartChar: otilde
Encoding: 245 245 328
Width: 600
Flags: MW
HStem: -12 119<266 334 266 365.5> 389 119<266 334> 575 91<339 363.5 339 384.5> 575 143<129 270.5 129 270.5 215.5 384.5>
VStem: 47 151<205 291 205 330.5> 402 151<205 291>
LayerCount: 2
Fore
SplineSet
47 248 m 0xdc
 47 413 169 508 300 508 c 0
 431 508 553 413 553 248 c 0
 553 83 431 -12 300 -12 c 0
 169 -12 47 83 47 248 c 0xdc
198 248 m 0
 198 162 232 107 300 107 c 0
 368 107 402 162 402 248 c 0
 402 334 368 389 300 389 c 0
 232 389 198 334 198 248 c 0
129 575 m 1
 141 672 185 718 246 718 c 0xdc
 295 718 325 666 353 666 c 0xec
 374 666 387 679 396 718 c 1
 471 718 l 1xdc
 459 622 415 575 354 575 c 0xec
 304 575 275 628 247 628 c 0
 226 628 213 615 204 575 c 1
 129 575 l 1
EndSplineSet
EndChar

StartChar: odieresis
Encoding: 246 246 329
Width: 600
Flags: MW
HStem: -12 119<266 334 266 365.5> 389 119<266 334> 571 157<168 214 386 432>
VStem: 47 151<205 291 205 330.5> 112 157<627.5 672> 331 157<627.5 672> 402 151<205 291>
LayerCount: 2
Fore
SplineSet
47 248 m 0xf2
 47 413 169 508 300 508 c 0
 431 508 553 413 553 248 c 0
 553 83 431 -12 300 -12 c 0
 169 -12 47 83 47 248 c 0xf2
198 248 m 0
 198 162 232 107 300 107 c 0
 368 107 402 162 402 248 c 0
 402 334 368 389 300 389 c 0
 232 389 198 334 198 248 c 0
191 571 m 0xec
 145 571 112 605 112 650 c 0
 112 694 145 728 191 728 c 0
 237 728 269 694 269 650 c 0
 269 605 237 571 191 571 c 0xec
409 571 m 0
 363 571 331 605 331 650 c 0
 331 694 363 728 409 728 c 0
 455 728 488 694 488 650 c 0
 488 605 455 571 409 571 c 0
EndSplineSet
EndChar

StartChar: divide
Encoding: 247 247 663
Width: 600
Flags: MW
HStem: 73 154<277 323> 278 104<70 530 70 530> 433 154<277 323>
VStem: 219 162<127.5 172.5 487.5 532.5>
LayerCount: 2
Fore
SplineSet
300 433 m 0
 254 433 219 465 219 510 c 0
 219 555 254 587 300 587 c 0
 346 587 381 555 381 510 c 0
 381 465 346 433 300 433 c 0
219 150 m 0
 219 195 254 227 300 227 c 0
 346 227 381 195 381 150 c 0
 381 105 346 73 300 73 c 0
 254 73 219 105 219 150 c 0
70 278 m 1
 70 382 l 1
 530 382 l 1
 530 278 l 1
 70 278 l 1
EndSplineSet
EndChar

StartChar: oslash
Encoding: 248 248 341
Width: 600
GlyphClass: 2
Flags: MW
HStem: -12 114<288 334 288 365.5> 394 114<266 312>
VStem: 47 151<237 291 237 330.5> 402 151<205 259>
AnchorPoint: "Anchor-0" 300 518 basechar 0
LayerCount: 2
Fore
SplineSet
395 309 m 1
 240 123 l 1
 256 110 276 102 300 102 c 0
 368 102 402 162 402 248 c 0
 402 270 400 291 395 309 c 1
205 188 m 1
 359 374 l 1
 343 387 324 394 300 394 c 0
 232 394 198 334 198 248 c 0
 198 226 200 206 205 188 c 1
538 480 m 1
 491 424 l 1
 529 380 553 321 553 248 c 0
 553 83 431 -12 300 -12 c 0
 250 -12 202 2 161 28 c 1
 117 -25 l 1
 62 17 l 1
 108 73 l 1
 71 116 47 175 47 248 c 0
 47 413 169 508 300 508 c 0
 349 508 397 495 438 469 c 1
 483 523 l 1
 538 480 l 1
EndSplineSet
EndChar

StartChar: ugrave
Encoding: 249 249 370
Width: 600
Flags: MW
HStem: -12 125<253.5 258.5> 0 21G<405 525 405 405> 476 20G<62 209 209 209 378 525 525 525> 574 167<270 270 270 289 138 377>
VStem: 62 147<190 209 209 496> 378 147<170 496 0 496>
LayerCount: 2
Fore
SplineSet
525 496 m 1x7c
 525 0 l 1
 405 0 l 1x7c
 394 71 l 1
 390 71 l 1
 346 21 294 -12 223 -12 c 0
 110 -12 62 65 62 190 c 2
 62 496 l 1
 209 496 l 1
 209 209 l 2
 209 143 226 113 281 113 c 0
 318 113 344 126 378 170 c 1xbc
 378 496 l 1
 525 496 l 1x7c
270 574 m 1
 138 741 l 1
 289 741 l 1
 377 574 l 1
 270 574 l 1
EndSplineSet
EndChar

StartChar: udieresis
Encoding: 252 252 374
Width: 600
Flags: MW
HStem: -12 125<253.5 258.5> 0 21G<405 525 405 405> 476 20G<62 209 209 209 378 525 525 525> 571 157<163.5 210 381.5 428>
VStem: 62 147<190 209 209 496> 108 157<627.5 672> 326 157<627.5 672> 378 147<170 496 0 496>
LayerCount: 2
Fore
SplineSet
525 496 m 1x79
 525 0 l 1
 405 0 l 1x75
 394 71 l 1
 390 71 l 1
 346 21 294 -12 223 -12 c 0
 110 -12 62 65 62 190 c 2
 62 496 l 1
 209 496 l 1
 209 209 l 2
 209 143 226 113 281 113 c 0
 318 113 344 126 378 170 c 1xb9
 378 496 l 1
 525 496 l 1x79
187 571 m 0
 140 571 108 605 108 650 c 0
 108 694 140 728 187 728 c 0
 233 728 265 694 265 650 c 0
 265 605 233 571 187 571 c 0
405 571 m 0x7a
 358 571 326 605 326 650 c 0
 326 694 358 728 405 728 c 0
 451 728 483 694 483 650 c 0
 483 605 451 571 405 571 c 0x7a
EndSplineSet
EndChar

StartChar: yacute
Encoding: 253 253 398
Width: 600
Flags: MW
HStem: -194 116<128.5 160.5 125.5 205.5> -184 21G<67 67> 476 20G<31 177 177 177 432 571 571 571> 574 167<314 332 225 464>
VStem: 31 540<496 496>
LayerCount: 2
Fore
SplineSet
93 -72 m 1xb8
 106 -76 119 -78 132 -78 c 0
 189 -78 220 -52 236 -13 c 2
 246 13 l 1
 31 496 l 1
 177 496 l 1
 260 283 l 2
 278 236 294 186 310 134 c 1
 314 134 l 1
 327 183 344 234 359 283 c 1
 432 496 l 1
 571 496 l 1
 375 -5 l 2
 327 -130 268 -194 143 -194 c 0xb8
 114 -194 88 -190 67 -184 c 1x78
 93 -72 l 1xb8
464 741 m 1
 332 574 l 1
 225 574 l 1
 314 741 l 1
 464 741 l 1
EndSplineSet
EndChar

StartChar: thorn
Encoding: 254 254 410
Width: 600
GlyphClass: 2
Flags: MW
HStem: -184 21G<72 219 72 72> -12 120<314.5 330.5 291.5 393> 388 120<329 342> 681 20G<72 219 219 219>
VStem: 72 147<-184 -39 141 342 527 701> 402 151<203 298.5>
AnchorPoint: "Anchor-2" 307 -22 basechar 0
AnchorPoint: "Anchor-0" 151 730 basechar 0
LayerCount: 2
Fore
SplineSet
219 -39 m 1
 219 -184 l 1
 72 -184 l 1
 72 701 l 1
 219 701 l 1
 219 527 l 1
 215 451 l 1
 255 487 304 508 354 508 c 0
 477 508 553 409 553 256 c 0
 553 86 447 -12 339 -12 c 0
 290 -12 250 11 216 42 c 1
 219 -39 l 1
219 141 m 1
 246 117 279 108 304 108 c 0
 357 108 402 152 402 254 c 0
 402 343 374 388 310 388 c 0
 280 388 250 374 219 342 c 1
 219 141 l 1
EndSplineSet
EndChar

StartChar: ydieresis
Encoding: 255 255 400
Width: 600
Flags: MW
HStem: -194 116<128.5 160.5 125.5 205.5> -184 21G<67 67> 476 20G<31 177 177 177 432 571 571 571> 571 157<175 221 393 439>
VStem: 119 157<627.5 672> 338 157<627.5 672>
LayerCount: 2
Fore
SplineSet
93 -72 m 1xbc
 106 -76 119 -78 132 -78 c 0
 189 -78 220 -52 236 -13 c 2
 246 13 l 1
 31 496 l 1
 177 496 l 1
 260 283 l 2
 278 236 294 186 310 134 c 1
 314 134 l 1
 327 183 344 234 359 283 c 1
 432 496 l 1
 571 496 l 1
 375 -5 l 2
 327 -130 268 -194 143 -194 c 0xbc
 114 -194 88 -190 67 -184 c 1x7c
 93 -72 l 1xbc
198 571 m 0
 152 571 119 605 119 650 c 0
 119 694 152 728 198 728 c 0
 244 728 276 694 276 650 c 0
 276 605 244 571 198 571 c 0
416 571 m 0
 370 571 338 605 338 650 c 0
 338 694 370 728 416 728 c 0
 462 728 495 694 495 650 c 0
 495 605 462 571 416 571 c 0
EndSplineSet
EndChar

StartChar: amacron
Encoding: 257 257 236
Width: 600
Flags: MW
HStem: -12 114<250 256> 0 21G<415 535 415 415> 231 88<388 388> 391 117<268.5 315.5> 592 93<170 446 170 446>
VStem: 61 141<133 170.5 133 193.5> 170 276<592 685 592 685> 388 147<149 231 231 231>
LayerCount: 2
Fore
SplineSet
61 138 m 0x7d
 61 249 153 305 388 319 c 1
 383 364 349 391 282 391 c 0
 234 391 187 373 131 345 c 1
 79 441 l 1
 147 480 226 508 311 508 c 0
 450 508 535 436 535 284 c 2
 535 0 l 1
 415 0 l 1x7d
 404 56 l 1
 400 56 l 1
 350 18 288 -12 224 -12 c 0xbd
 124 -12 61 54 61 138 c 0x7d
202 149 m 0xbd
 202 117 229 102 271 102 c 0
 315 102 353 122 388 149 c 1
 388 231 l 1
 242 223 202 192 202 149 c 0xbd
170 592 m 1x7a
 170 685 l 1
 446 685 l 1
 446 592 l 1
 170 592 l 1x7a
EndSplineSet
Substitution2: "'ss02' Style Set 2 in Latin lookup 18 subtable" amacron.a
Substitution2: "'aalt' Access All Alternates in Latin lookup 0 subtable" amacron.a
EndChar

StartChar: Abreve
Encoding: 258 258 60
Width: 600
Flags: MW
HStem: 0 21G<9 159 9 9 435 591 435 435> 155 115<229 366 229 396 199 366> 540 112<295 299 295 295> 702 120<163 343.5>
VStem: 9 582<0 0>
LayerCount: 2
Fore
SplineSet
356 822 m 1
 437 822 l 1
 429 751 387 702 300 702 c 0
 213 702 171 751 163 822 c 1
 244 822 l 1
 250 796 266 776 300 776 c 0
 334 776 350 796 356 822 c 1
229 270 m 1
 366 270 l 1
 351 330 l 2
 334 395 316 472 299 540 c 1
 295 540 l 1
 279 471 261 395 244 330 c 2
 229 270 l 1
435 0 m 1
 396 155 l 1
 199 155 l 1
 159 0 l 1
 9 0 l 1
 212 652 l 1
 388 652 l 1
 591 0 l 1
 435 0 l 1
EndSplineSet
EndChar

StartChar: abreve
Encoding: 259 259 237
Width: 600
Flags: MW
HStem: -12 114<250 256> 0 21G<415 535 415 415> 231 88<388 388> 391 117<268.5 315.5> 574 81<288 328 288 357.5>
VStem: 61 141<133 170.5 133 193.5> 161 82<730 730> 373 82<730 730> 388 147<149 231 231 231>
LayerCount: 2
Fore
SplineSet
61 138 m 0x7c80
 61 249 153 305 388 319 c 1
 383 364 349 391 282 391 c 0
 234 391 187 373 131 345 c 1
 79 441 l 1
 147 480 226 508 311 508 c 0
 450 508 535 436 535 284 c 2
 535 0 l 1
 415 0 l 1x7c80
 404 56 l 1
 400 56 l 1
 350 18 288 -12 224 -12 c 0xbc80
 124 -12 61 54 61 138 c 0x7c80
202 149 m 0xbc80
 202 117 229 102 271 102 c 0
 315 102 353 122 388 149 c 1
 388 231 l 1
 242 223 202 192 202 149 c 0xbc80
308 574 m 0x7b
 209 574 164 649 161 730 c 1
 243 730 l 1
 248 688 268 655 308 655 c 0
 348 655 368 688 373 730 c 1
 455 730 l 1
 453 649 407 574 308 574 c 0x7b
EndSplineSet
Substitution2: "'ss02' Style Set 2 in Latin lookup 18 subtable" abreve.a
Substitution2: "'aalt' Access All Alternates in Latin lookup 0 subtable" abreve.a
EndChar

StartChar: Aogonek
Encoding: 260 260 75
Width: 600
GlyphClass: 2
Flags: MW
HStem: -223 95<476 547.5> 0 21G<9 159 9 9 435 475 435 435 591 591> 155 115<229 366 229 396 199 366> 540 112<295 299 295 295>
VStem: 394 107<-102.5 -98>
AnchorPoint: "Anchor-0" 300 674 basechar 0
LayerCount: 2
Fore
SplineSet
229 270 m 1
 366 270 l 1
 351 330 l 2
 334 395 316 472 299 540 c 1
 295 540 l 1
 279 471 262 395 244 330 c 1
 229 270 l 1
579 -114 m 1
 613 -188 l 1
 587 -208 543 -223 508 -223 c 0
 444 -223 394 -189 394 -129 c 0
 394 -67 442 -19 475 0 c 1
 435 0 l 1
 396 155 l 1
 199 155 l 1
 159 0 l 1
 9 0 l 1
 212 652 l 1
 388 652 l 1
 591 0 l 1
 536 -5 501 -50 501 -90 c 0
 501 -115 519 -128 540 -128 c 0
 555 -128 569 -121 579 -114 c 1
EndSplineSet
Ligature2: "'ccmp' Glyph Composition/Decomposition in Latin lookup 6 subtable" A uni0328
EndChar

StartChar: aogonek
Encoding: 261 261 252
Width: 600
GlyphClass: 2
Flags: MW
HStem: -210 87<424.5 495.5> -12 114<250 256> -2 21G<416 416> 0 21G<535 535> 231 88<388 388> 391 117<268.5 315.5>
VStem: 61 141<133 170.5 133 193.5> 348 99<-98.5 -89.5> 388 147<149 231 231 231>
AnchorPoint: "Anchor-0" 308 518 basechar 0
LayerCount: 2
Fore
SplineSet
61 138 m 0x9e80
 61 249 153 305 388 319 c 1
 383 364 349 391 282 391 c 0
 234 391 187 373 131 345 c 1
 79 441 l 1
 147 480 226 508 311 508 c 0
 450 508 535 436 535 284 c 2
 535 0 l 1x9e80
 470 -18 447 -55 447 -85 c 0
 447 -112 468 -123 489 -123 c 0
 502 -123 515 -117 524 -111 c 1
 555 -177 l 1
 529 -197 485 -210 454 -210 c 0
 395 -210 348 -179 348 -119 c 0
 348 -60 391 -19 416 -2 c 1xaf
 404 56 l 1
 400 56 l 1
 350 18 288 -12 224 -12 c 0xcf
 124 -12 61 54 61 138 c 0x9e80
202 149 m 0xce80
 202 117 229 102 271 102 c 0
 315 102 353 122 388 149 c 1
 388 231 l 1
 242 223 202 192 202 149 c 0xce80
EndSplineSet
Substitution2: "'ss02' Style Set 2 in Latin lookup 18 subtable" aogonek.a
Ligature2: "'ccmp' Glyph Composition/Decomposition in Latin lookup 6 subtable" a uni0328
Substitution2: "'aalt' Access All Alternates in Latin lookup 0 subtable" aogonek.a
EndChar

StartChar: Cacute
Encoding: 262 262 79
Width: 600
Flags: MW
HStem: -12 127<323 395.5 323 404> 537 127<320 389.5> 702 120<360 396 279 516>
VStem: 55 151<260 392.5 260 430>
LayerCount: 2
Fore
SplineSet
55 322 m 0
 55 538 192 664 366 664 c 0
 449 664 515 624 559 581 c 1
 478 490 l 1
 447 518 413 537 366 537 c 0
 274 537 206 458 206 327 c 0
 206 193 274 115 372 115 c 0
 419 115 456 138 488 173 c 1
 569 84 l 1
 515 21 445 -12 363 -12 c 0
 195 -12 55 103 55 322 c 0
516 822 m 1
 396 702 l 1
 279 702 l 1
 360 822 l 1
 516 822 l 1
EndSplineSet
EndChar

StartChar: cacute
Encoding: 263 263 256
Width: 600
Flags: MW
HStem: -12 119<316 377> 389 119<319.5 380.5> 574 167<348 366 259 498>
VStem: 67 151<205 291 205 330.5>
LayerCount: 2
Fore
SplineSet
67 248 m 0
 67 413 201 508 354 508 c 0
 432 508 498 480 540 441 c 1
 472 350 l 1
 434 377 399 389 362 389 c 0
 277 389 218 334 218 248 c 0
 218 162 275 107 357 107 c 0
 409 107 453 129 488 154 c 1
 548 61 l 1
 488 11 411 -12 343 -12 c 0
 187 -12 67 83 67 248 c 0
498 741 m 1
 366 574 l 1
 259 574 l 1
 348 741 l 1
 498 741 l 1
EndSplineSet
EndChar

StartChar: ccircumflex
Encoding: 265 265 257
Width: 600
Flags: MW
HStem: -12 119<316 377> 389 119<319.5 380.5> 574 167<178 403 279 286 396 396 396 403 279 503>
VStem: 67 151<205 291 205 330.5>
LayerCount: 2
Fore
SplineSet
67 248 m 0
 67 413 201 508 354 508 c 0
 432 508 498 480 540 441 c 1
 472 350 l 1
 434 377 399 389 362 389 c 0
 277 389 218 334 218 248 c 0
 218 162 275 107 357 107 c 0
 409 107 453 129 488 154 c 1
 548 61 l 1
 488 11 411 -12 343 -12 c 0
 187 -12 67 83 67 248 c 0
178 574 m 1
 279 741 l 1
 403 741 l 1
 503 574 l 1
 396 574 l 1
 343 669 l 1
 339 669 l 1
 286 574 l 1
 178 574 l 1
EndSplineSet
EndChar

StartChar: Cdotaccent
Encoding: 266 266 82
Width: 600
Flags: MW
HStem: -12 127<323 395.5 323 404> 537 127<320 389.5> 701 154<329 378.5>
VStem: 55 151<260 392.5 260 430> 268 171<755.5 800.5>
LayerCount: 2
Fore
SplineSet
55 322 m 0
 55 538 192 664 366 664 c 0
 449 664 515 624 559 581 c 1
 478 490 l 1
 447 518 413 537 366 537 c 0
 274 537 206 458 206 327 c 0
 206 193 274 115 372 115 c 0
 419 115 456 138 488 173 c 1
 569 84 l 1
 515 21 445 -12 363 -12 c 0
 195 -12 55 103 55 322 c 0
354 701 m 0
 304 701 268 733 268 778 c 0
 268 823 304 855 354 855 c 0
 403 855 439 823 439 778 c 0
 439 733 403 701 354 701 c 0
EndSplineSet
EndChar

StartChar: Ccaron
Encoding: 268 268 81
Width: 600
Flags: MW
HStem: -12 127<323 395.5 323 404> 537 127<320 389.5> 702 120<282 298 409 425 282 282>
VStem: 55 151<260 392.5 260 430>
LayerCount: 2
Fore
SplineSet
55 322 m 0
 55 538 192 664 366 664 c 0
 449 664 515 624 559 581 c 1
 478 490 l 1
 447 518 413 537 366 537 c 0
 274 537 206 458 206 327 c 0
 206 193 274 115 372 115 c 0
 419 115 456 138 488 173 c 1
 569 84 l 1
 515 21 445 -12 363 -12 c 0
 195 -12 55 103 55 322 c 0
409 822 m 1
 521 822 l 1
 425 702 l 1
 282 702 l 1
 186 822 l 1
 298 822 l 1
 352 761 l 1
 356 761 l 1
 409 822 l 1
EndSplineSet
EndChar

StartChar: Dcaron
Encoding: 270 270 83
Width: 600
Flags: MW
HStem: 0 119<213 234 234 250> 533 119<213 234 213 213> 702 120<225 241 352 368 225 225>
VStem: 65 148<119 119 119 533> 405 151<251 407>
LayerCount: 2
Fore
SplineSet
65 0 m 1
 65 652 l 1
 242 652 l 2
 431 652 556 553 556 329 c 0
 556 105 431 0 250 0 c 2
 65 0 l 1
213 119 m 1
 234 119 l 2
 336 119 405 173 405 329 c 0
 405 485 336 533 234 533 c 2
 213 533 l 1
 213 119 l 1
352 822 m 1
 464 822 l 1
 368 702 l 1
 225 702 l 1
 129 822 l 1
 241 822 l 1
 295 761 l 1
 299 761 l 1
 352 822 l 1
EndSplineSet
EndChar

StartChar: dcaron
Encoding: 271 271 260
Width: 600
GlyphClass: 3
Flags: MW
HStem: -12 120<241.5 259> 0 21G<386 506 386 386> 388 120<248.5 265 183 290> 548 153<359 606 359 543> 548 222<543 606 543 543>
VStem: 25 150<201 297 201 329> 359 147<154 355 355 355 532 701 0 701> 540.5 90.5
LayerCount: 2
Fore
SplineSet
25 248 m 0x77
 25 410 129 508 237 508 c 0
 293 508 329 487 364 455 c 1
 359 532 l 1
 359 701 l 1
 506 701 l 1
 506 0 l 1
 386 0 l 1x77
 375 51 l 1
 371 51 l 1
 335 15 284 -12 234 -12 c 0xb7
 107 -12 25 86 25 248 c 0x77
175 250 m 0xb7
 175 152 211 108 272 108 c 0
 305 108 333 121 359 154 c 1
 359 355 l 1
 332 379 305 388 275 388 c 0
 222 388 175 344 175 250 c 0xb7
606 548 m 1
 543 548 l 1x77
 538 770 l 1
 632 770 l 1
 630 701 l 1x6f
 606 548 l 1
EndSplineSet
Ligature2: "'ccmp' Glyph Composition/Decomposition in Latin lookup 6 subtable" d uni030C
EndChar

StartChar: Dcroat
Encoding: 272 272 86
Width: 600
Flags: MW
HStem: 0 119<219 240 240 257> 301 71<2 71 2 71 219 326> 533 119<219 240 219 219>
VStem: 71 148<119 119 119 301 372 533> 411 151<251 407>
LayerCount: 2
Fore
SplineSet
71 0 m 1
 71 301 l 1
 2 301 l 1
 2 367 l 1
 71 372 l 1
 71 652 l 1
 249 652 l 2
 437 652 562 553 562 329 c 0
 562 105 437 0 257 0 c 2
 71 0 l 1
219 119 m 1
 240 119 l 2
 341 119 411 173 411 329 c 0
 411 485 341 533 240 533 c 2
 219 533 l 1
 219 372 l 1
 326 372 l 1
 326 301 l 1
 219 301 l 1
 219 119 l 1
EndSplineSet
EndChar

StartChar: dcroat
Encoding: 273 273 263
Width: 600
Flags: MW
HStem: -12 120<263.5 281> 0 21G<408 528 408 408> 368 120<272 287.5 205 313.5> 556 71<226 381 226 381> 556 145<226 528>
VStem: 47 151<194.5 283.5 194.5 316> 381 147<154 335 335 335 512 556 556 556 627 701 0 701>
LayerCount: 2
Fore
SplineSet
381 154 m 1xb6
 381 335 l 1
 354 358 327 368 300 368 c 0
 244 368 198 327 198 240 c 0
 198 149 233 108 294 108 c 0
 327 108 355 121 381 154 c 1xb6
594 627 m 1
 594 562 l 1
 528 557 l 1
 528 0 l 1
 408 0 l 1x76
 397 51 l 1
 394 51 l 1
 357 15 306 -12 256 -12 c 0
 130 -12 47 82 47 238 c 0
 47 394 151 488 259 488 c 0
 316 488 351 467 386 435 c 1
 381 512 l 1
 381 556 l 1
 226 556 l 1xae
 226 627 l 1
 381 627 l 1x76
 381 701 l 1
 528 701 l 1x6e
 528 627 l 1
 594 627 l 1
EndSplineSet
EndChar

StartChar: Emacron
Encoding: 274 274 92
Width: 600
Flags: MW
HStem: 0 124<241 534 241 534> 274 123<241 481 241 481> 528 124<241 524 241 241> 720 93<180 463 180 463>
VStem: 94 147<124 274 397 528> 180 283<720 813 720 813>
LayerCount: 2
Fore
SplineSet
94 0 m 1xf8
 94 652 l 1
 524 652 l 1
 524 528 l 1
 241 528 l 1
 241 397 l 1
 481 397 l 1
 481 274 l 1
 241 274 l 1
 241 124 l 1
 534 124 l 1
 534 0 l 1
 94 0 l 1xf8
180 720 m 1xf4
 180 813 l 1
 463 813 l 1
 463 720 l 1
 180 720 l 1xf4
EndSplineSet
EndChar

StartChar: emacron
Encoding: 275 275 269
Width: 600
Flags: MW
HStem: -12 112<313.5 363> 205 97<206 413 204 540 206 206> 396 112<289.5 349.5> 592 93<175 451 175 451>
VStem: 175 276<592 685 592 685> 413 133<302 330>
LayerCount: 2
Fore
SplineSet
55 248 m 0xf4
 55 410 181 508 313 508 c 0
 466 508 546 405 546 270 c 0
 546 244 542 217 540 205 c 1
 206 205 l 1
 216 131 277 100 350 100 c 0
 395 100 434 112 478 134 c 1
 526 46 l 1
 470 10 396 -12 330 -12 c 0
 176 -12 55 84 55 248 c 0xf4
204 302 m 1
 413 302 l 1
 413 358 383 396 316 396 c 0
 263 396 217 366 204 302 c 1
175 592 m 1xf8
 175 685 l 1
 451 685 l 1
 451 592 l 1
 175 592 l 1xf8
EndSplineSet
EndChar

StartChar: Ebreve
Encoding: 276 276 93
Width: 600
Flags: MW
HStem: 0 124<241 534 241 534> 274 123<241 481 241 481> 528 124<241 524 241 241> 702 120<185 365.5>
VStem: 94 147<124 274 397 528>
LayerCount: 2
Fore
SplineSet
94 0 m 1
 94 652 l 1
 524 652 l 1
 524 528 l 1
 241 528 l 1
 241 397 l 1
 481 397 l 1
 481 274 l 1
 241 274 l 1
 241 124 l 1
 534 124 l 1
 534 0 l 1
 94 0 l 1
322 702 m 0
 234 702 192 751 185 822 c 1
 265 822 l 1
 271 796 287 776 322 776 c 0
 356 776 372 796 378 822 c 1
 458 822 l 1
 451 751 409 702 322 702 c 0
EndSplineSet
EndChar

StartChar: ebreve
Encoding: 277 277 270
Width: 600
Flags: MW
HStem: -12 112<313.5 363> 205 97<206 413 204 540 206 206> 396 112<289.5 349.5> 574 81<292.5 333 292.5 362.5>
VStem: 165 82<730 730> 378 82<730 730> 413 133<302 330>
LayerCount: 2
Fore
SplineSet
55 248 m 0xfa
 55 410 181 508 313 508 c 0
 466 508 546 405 546 270 c 0
 546 244 542 217 540 205 c 1
 206 205 l 1
 216 131 277 100 350 100 c 0
 395 100 434 112 478 134 c 1
 526 46 l 1
 470 10 396 -12 330 -12 c 0
 176 -12 55 84 55 248 c 0xfa
204 302 m 1
 413 302 l 1
 413 358 383 396 316 396 c 0
 263 396 217 366 204 302 c 1
313 574 m 0
 214 574 168 649 165 730 c 1
 247 730 l 1
 253 688 272 655 313 655 c 0
 353 655 373 688 378 730 c 1
 460 730 l 1xfc
 457 649 412 574 313 574 c 0
EndSplineSet
EndChar

StartChar: Edotaccent
Encoding: 278 278 94
Width: 600
Flags: MW
HStem: 0 124<241 534 241 534> 274 123<241 481 241 481> 528 124<241 524 241 241> 701 154<297 346.5>
VStem: 94 147<124 274 397 528> 236 171<755.5 800.5>
LayerCount: 2
Fore
SplineSet
94 0 m 1xe8
 94 652 l 1
 524 652 l 1
 524 528 l 1
 241 528 l 1
 241 397 l 1
 481 397 l 1
 481 274 l 1
 241 274 l 1
 241 124 l 1
 534 124 l 1
 534 0 l 1
 94 0 l 1xe8
322 701 m 0xf4
 272 701 236 733 236 778 c 0
 236 823 272 855 322 855 c 0
 371 855 407 823 407 778 c 0
 407 733 371 701 322 701 c 0xf4
EndSplineSet
EndChar

StartChar: edotaccent
Encoding: 279 279 271
Width: 600
Flags: MW
HStem: -12 112<313.5 363> 205 97<206 413 204 540 206 206> 396 112<289.5 349.5> 569 181<284.5 341>
VStem: 215 195<631 685> 413 133<302 330>
LayerCount: 2
Fore
SplineSet
55 248 m 0
 55 410 181 508 313 508 c 0
 466 508 546 405 546 270 c 0
 546 244 542 217 540 205 c 1
 206 205 l 1
 216 131 277 100 350 100 c 0
 395 100 434 112 478 134 c 1
 526 46 l 1
 470 10 396 -12 330 -12 c 0
 176 -12 55 84 55 248 c 0
204 302 m 1
 413 302 l 1
 413 358 383 396 316 396 c 0
 263 396 217 366 204 302 c 1
313 569 m 0xf8
 256 569 215 604 215 658 c 0
 215 712 256 750 313 750 c 0
 369 750 410 712 410 658 c 0
 410 604 369 569 313 569 c 0xf8
EndSplineSet
EndChar

StartChar: Eogonek
Encoding: 280 280 103
Width: 600
GlyphClass: 2
Flags: MW
HStem: -223 95<418 491.5> 0 124<241 414 529 529 529 534> 274 123<241 481 241 481> 528 124<241 524 241 241>
VStem: 94 147<124 274 397 528> 335 108<-103 -98.5>
AnchorPoint: "Anchor-0" 322 674 basechar 0
LayerCount: 2
Fore
SplineSet
94 0 m 1
 94 652 l 1
 524 652 l 1
 524 528 l 1
 241 528 l 1
 241 397 l 1
 481 397 l 1
 481 274 l 1
 241 274 l 1
 241 124 l 1
 534 124 l 1
 534 0 l 1
 529 0 l 1
 483 -2 443 -46 443 -90 c 0
 443 -116 464 -128 485 -128 c 0
 498 -128 511 -121 521 -114 c 1
 554 -188 l 1
 529 -208 485 -223 450 -223 c 0
 386 -223 335 -189 335 -129 c 0
 335 -68 380 -21 414 0 c 1
 94 0 l 1
EndSplineSet
Ligature2: "'ccmp' Glyph Composition/Decomposition in Latin lookup 6 subtable" E uni0328
EndChar

StartChar: eogonek
Encoding: 281 281 280
Width: 600
GlyphClass: 2
Flags: MW
HStem: -210 87<394.5 466.5> -12 112<313.5 337.5> 205 97<206 413 204 540 206 206> 396 112<289.5 349.5>
VStem: 320 97<-98 -94.5> 413 133<302 330>
AnchorPoint: "Anchor-0" 312 518 basechar 0
LayerCount: 2
Fore
SplineSet
478 134 m 1xf4
 526 46 l 1
 437 -16 417 -46 417 -85 c 0
 417 -111 436 -123 460 -123 c 0
 473 -123 485 -117 495 -111 c 1
 525 -177 l 1
 500 -197 456 -210 424 -210 c 0
 365 -210 320 -179 320 -119 c 0
 320 -70 351 -30 377 -7 c 1
 355 -12 345 -12 330 -12 c 0xf8
 176 -12 55 84 55 248 c 0
 55 410 181 508 313 508 c 0
 466 508 546 405 546 270 c 0
 546 244 542 217 540 205 c 1
 206 205 l 1
 216 131 277 100 350 100 c 0
 395 100 434 112 478 134 c 1xf4
204 302 m 1
 413 302 l 1
 413 358 383 396 316 396 c 0xf4
 263 396 217 366 204 302 c 1
EndSplineSet
Ligature2: "'ccmp' Glyph Composition/Decomposition in Latin lookup 6 subtable" e uni0328
EndChar

StartChar: Ecaron
Encoding: 282 282 90
Width: 600
Flags: MW
HStem: 0 124<241 534 241 534> 274 123<241 481 241 481> 528 124<241 524 241 241> 702 120<250 266 377 393 250 250>
VStem: 94 147<124 274 397 528>
LayerCount: 2
Fore
SplineSet
94 0 m 1
 94 652 l 1
 524 652 l 1
 524 528 l 1
 241 528 l 1
 241 397 l 1
 481 397 l 1
 481 274 l 1
 241 274 l 1
 241 124 l 1
 534 124 l 1
 534 0 l 1
 94 0 l 1
377 822 m 1
 489 822 l 1
 393 702 l 1
 250 702 l 1
 154 822 l 1
 266 822 l 1
 320 761 l 1
 324 761 l 1
 377 822 l 1
EndSplineSet
EndChar

StartChar: ecaron
Encoding: 283 283 267
Width: 600
Flags: MW
HStem: -12 112<313.5 363> 205 97<206 413 204 540 206 206> 396 112<289.5 349.5> 574 167<251 251 251 257 368 374>
VStem: 413 133<302 330>
LayerCount: 2
Fore
SplineSet
55 248 m 0
 55 410 181 508 313 508 c 0
 466 508 546 405 546 270 c 0
 546 244 542 217 540 205 c 1
 206 205 l 1
 216 131 277 100 350 100 c 0
 395 100 434 112 478 134 c 1
 526 46 l 1
 470 10 396 -12 330 -12 c 0
 176 -12 55 84 55 248 c 0
204 302 m 1
 413 302 l 1
 413 358 383 396 316 396 c 0
 263 396 217 366 204 302 c 1
251 574 m 1
 150 741 l 1
 257 741 l 1
 311 645 l 1
 315 645 l 1
 368 741 l 1
 475 741 l 1
 374 574 l 1
 251 574 l 1
EndSplineSet
EndChar

StartChar: Gcircumflex
Encoding: 284 284 104
Width: 600
Flags: MW
HStem: -12 127<299.5 363.5 299.5 384.5> 247 120<320 415 320 547> 537 127<302.5 371> 702 120<259 275 163 402 386 386 386 402 259 498>
VStem: 44 152<260 392.5 260 431> 415 132<135 247 247 247>
LayerCount: 2
Fore
SplineSet
44 322 m 0
 44 540 176 664 345 664 c 0
 433 664 494 623 536 581 c 1
 455 490 l 1
 427 518 397 537 345 537 c 0
 260 537 196 458 196 327 c 0
 196 193 248 115 351 115 c 0
 376 115 401 122 415 135 c 1
 415 247 l 1
 320 247 l 1
 320 367 l 1
 547 367 l 1
 547 67 l 1
 503 26 426 -12 343 -12 c 0
 176 -12 44 103 44 322 c 0
275 702 m 1
 163 702 l 1
 259 822 l 1
 402 822 l 1
 498 702 l 1
 386 702 l 1
 332 763 l 1
 328 763 l 1
 275 702 l 1
EndSplineSet
EndChar

StartChar: gcircumflex
Encoding: 285 285 281
Width: 600
Flags: MW
HStem: -211 92<259 337.5 259 367> -19 112<279 283 283 345> 157 89<275 305.5 264.5 342.5> 389 107<467 568 467 467> 409 99<264.5 300 229 305.5> 574 167<142 366 242 249 360 360 360 366 242 467>
VStem: 52 120<-80.5 -64> 73 138<301 354.5 301 387.5> 79 116<117.5 120.5> 361 129<301 336 266 354.5> 432 140<-75 -42>
LayerCount: 2
Fore
SplineSet
172 -62 m 0xf620
 172 -99 220 -119 298 -119 c 0
 377 -119 432 -92 432 -58 c 0
 432 -26 402 -19 345 -19 c 2
 283 -19 l 2
 247 -19 225 -17 207 -13 c 1
 182 -29 172 -44 172 -62 c 0xf620
52 -84 m 0
 52 -44 78 -10 129 15 c 1
 129 19 l 1
 102 36 79 62 79 104 c 0xf4c0
 79 137 103 173 138 197 c 1
 138 201 l 1
 102 225 73 270 73 328 c 0
 73 447 173 508 285 508 c 0xed40
 315 508 343 504 367 496 c 1
 568 496 l 1
 568 389 l 1
 467 389 l 1
 479 374 490 349 490 323 c 0
 490 209 400 157 285 157 c 0
 265 157 242 160 217 167 c 1
 202 156 195 147 195 131 c 0
 195 104 221 93 279 93 c 2xf4c0
 371 93 l 2
 501 93 572 57 572 -32 c 0
 572 -136 457 -211 277 -211 c 0
 148 -211 52 -173 52 -84 c 0
285 246 m 0xed40
 326 246 361 274 361 328 c 0
 361 381 326 409 285 409 c 0
 244 409 211 381 211 328 c 0
 211 274 244 246 285 246 c 0xed40
142 574 m 1
 242 741 l 1
 366 741 l 1
 467 574 l 1
 360 574 l 1
 306 669 l 1
 302 669 l 1
 249 574 l 1
 142 574 l 1
EndSplineSet
Substitution2: "'ss03' Style Set 3 in Latin lookup 19 subtable" gcircumflex.a
Substitution2: "'aalt' Access All Alternates in Latin lookup 0 subtable" gcircumflex.a
EndChar

StartChar: Gbreve
Encoding: 286 286 105
Width: 600
Flags: MW
HStem: -12 127<299.5 363.5 299.5 384.5> 247 120<320 415 320 547> 537 127<302.5 371> 702 120<194 374>
VStem: 44 152<260 392.5 260 431> 415 132<135 247 247 247>
LayerCount: 2
Fore
SplineSet
44 322 m 0
 44 540 176 664 345 664 c 0
 433 664 494 623 536 581 c 1
 455 490 l 1
 427 518 397 537 345 537 c 0
 260 537 196 458 196 327 c 0
 196 193 248 115 351 115 c 0
 376 115 401 122 415 135 c 1
 415 247 l 1
 320 247 l 1
 320 367 l 1
 547 367 l 1
 547 67 l 1
 503 26 426 -12 343 -12 c 0
 176 -12 44 103 44 322 c 0
330 702 m 0
 243 702 201 751 194 822 c 1
 274 822 l 1
 280 796 296 776 330 776 c 0
 365 776 381 796 387 822 c 1
 467 822 l 1
 459 751 418 702 330 702 c 0
EndSplineSet
EndChar

StartChar: Gdotaccent
Encoding: 288 288 106
Width: 600
Flags: MW
HStem: -12 127<299.5 363.5 299.5 384.5> 247 120<320 415 320 547> 537 127<302.5 371> 701 154<305.5 355>
VStem: 44 152<260 392.5 260 431> 245 170<755.5 800.5> 415 132<135 247 247 247>
LayerCount: 2
Fore
SplineSet
44 322 m 0xea
 44 540 176 664 345 664 c 0
 433 664 494 623 536 581 c 1
 455 490 l 1
 427 518 397 537 345 537 c 0
 260 537 196 458 196 327 c 0
 196 193 248 115 351 115 c 0
 376 115 401 122 415 135 c 1
 415 247 l 1
 320 247 l 1
 320 367 l 1
 547 367 l 1
 547 67 l 1
 503 26 426 -12 343 -12 c 0
 176 -12 44 103 44 322 c 0xea
330 701 m 0xfc
 281 701 245 733 245 778 c 0
 245 823 281 855 330 855 c 0
 380 855 415 823 415 778 c 0
 415 733 380 701 330 701 c 0xfc
EndSplineSet
EndChar

StartChar: uni0122
Encoding: 290 290 107
Width: 600
Flags: MW
HStem: -229 59<231 242> -12 127<299.5 363.5 299.5 384.5> 247 120<320 415 320 547> 537 127<302.5 371>
VStem: 44 152<260 392.5 260 431> 314 106<-144.5 -123.5> 415 132<135 247 247 247>
LayerCount: 2
Fore
SplineSet
44 322 m 0x7a
 44 540 176 664 345 664 c 0
 433 664 494 623 536 581 c 1
 455 490 l 1
 427 518 397 537 345 537 c 0
 260 537 196 458 196 327 c 0
 196 193 248 115 351 115 c 0
 376 115 401 122 415 135 c 1
 415 247 l 1
 320 247 l 1
 320 367 l 1
 547 367 l 1
 547 67 l 1
 503 26 426 -12 343 -12 c 0
 176 -12 44 103 44 322 c 0x7a
299 -42 m 1xfc
 388 -51 420 -76 420 -126 c 0
 420 -194 337 -224 242 -229 c 1
 231 -170 l 1
 279 -165 314 -156 314 -133 c 0
 314 -114 300 -104 271 -96 c 1
 299 -42 l 1xfc
EndSplineSet
EndChar

StartChar: uni0123
Encoding: 291 291 284
Width: 600
GlyphClass: 3
Flags: MW
HStem: -211 92<259 337.5 259 367> -19 112<279 283 283 345> 157 89<275 305.5 264.5 342.5> 389 107<467 568 467 467> 409 99<264.5 300 229 305.5> 673 59<396 407>
VStem: 52 120<-80.5 -64> 73 138<301 354.5 301 387.5> 79 116<117.5 120.5> 219 105<626 646.5 626 662> 361 129<301 336 266 354.5> 432 140<-75 -42>
LayerCount: 2
Fore
SplineSet
172 -62 m 0xf610
 172 -99 220 -119 298 -119 c 0
 377 -119 432 -92 432 -58 c 0
 432 -26 402 -19 345 -19 c 2
 283 -19 l 2
 247 -19 225 -17 207 -13 c 1
 182 -29 172 -44 172 -62 c 0xf610
52 -84 m 0
 52 -44 78 -10 129 15 c 1
 129 19 l 1
 102 36 79 62 79 104 c 0xf4a0
 79 137 103 173 138 197 c 1
 138 201 l 1
 102 225 73 270 73 328 c 0
 73 447 173 508 285 508 c 0xed20
 315 508 343 504 367 496 c 1
 568 496 l 1
 568 389 l 1
 467 389 l 1
 479 374 490 349 490 323 c 0
 490 209 400 157 285 157 c 0
 265 157 242 160 217 167 c 1
 202 156 195 147 195 131 c 0
 195 104 221 93 279 93 c 2xf4a0
 371 93 l 2
 501 93 572 57 572 -32 c 0
 572 -136 457 -211 277 -211 c 0
 148 -211 52 -173 52 -84 c 0
285 246 m 0xed20
 326 246 361 274 361 328 c 0
 361 381 326 409 285 409 c 0
 244 409 211 381 211 328 c 0
 211 274 244 246 285 246 c 0xed20
339 545 m 1xf560
 250 553 219 578 219 628 c 0
 219 696 301 727 396 732 c 1
 407 673 l 1
 359 668 324 658 324 635 c 0
 324 617 338 606 368 599 c 1
 339 545 l 1xf560
EndSplineSet
Substitution2: "'ss03' Style Set 3 in Latin lookup 19 subtable" uni0123.a
Ligature2: "'ccmp' Glyph Composition/Decomposition in Latin lookup 6 subtable" g uni0327
Substitution2: "'aalt' Access All Alternates in Latin lookup 0 subtable" uni0123.a
EndChar

StartChar: Hcircumflex
Encoding: 292 292 111
Width: 600
Flags: MW
HStem: 0 21G<64 64 64 211 389 389 389 536> 272 129<211 389 211 389> 632 20G<64 211 211 211 389 536 536 536> 702 120<227 244 131 371 354 354 354 371 227 467>
VStem: 64 147<0 272 401 652> 389 147<0 272 272 272 401 652 0 652>
LayerCount: 2
Fore
SplineSet
64 0 m 1
 64 652 l 1
 211 652 l 1
 211 401 l 1
 389 401 l 1
 389 652 l 1
 536 652 l 1
 536 0 l 1
 389 0 l 1
 389 272 l 1
 211 272 l 1
 211 0 l 1
 64 0 l 1
244 702 m 1
 131 702 l 1
 227 822 l 1
 371 822 l 1
 467 702 l 1
 354 702 l 1
 301 763 l 1
 297 763 l 1
 244 702 l 1
EndSplineSet
EndChar

StartChar: hcircumflex
Encoding: 293 293 288
Width: 600
Flags: MW
HStem: 0 21G<72 72 72 219 393 393 393 540> 383 125<341.5 347> 681 20G<72 219 219 219> 750 120<78 94 -18 221 205 205 205 221 78 317>
VStem: 72 147<0 331 529 701> 393 147<0 287 287 306 0 320>
LayerCount: 2
Fore
SplineSet
72 0 m 1
 72 701 l 1
 219 701 l 1
 219 529 l 1
 211 434 l 1
 250 472 304 508 379 508 c 0
 490 508 540 431 540 306 c 2
 540 0 l 1
 393 0 l 1
 393 287 l 2
 393 353 374 383 320 383 c 0
 280 383 254 365 219 331 c 1
 219 0 l 1
 72 0 l 1
94 750 m 1
 -18 750 l 1
 78 870 l 1
 221 870 l 1
 317 750 l 1
 205 750 l 1
 151 810 l 1
 147 810 l 1
 94 750 l 1
EndSplineSet
EndChar

StartChar: Hbar
Encoding: 294 294 114
Width: 600
Flags: MW
HStem: 0 21G<64 211 64 64 389 536 389 389> 272 129<211 389 211 389> 486 67.5 486 71<211 389 211 389 536 597> 486 166<3 211 3 211 64 389 64 211>
VStem: 64 147<0 272 401 486 557 652> 389 147<0 272 272 272 401 486 0 486 557 652>
LayerCount: 2
Fore
SplineSet
389 401 m 1xce
 389 486 l 1
 211 486 l 1
 211 401 l 1
 389 401 l 1xce
597 557 m 1xd6
 597 486 l 1
 536 486 l 1
 536 0 l 1
 389 0 l 1
 389 272 l 1
 211 272 l 1
 211 0 l 1
 64 0 l 1
 64 486 l 1
 3 486 l 1xce
 3 551 l 1
 64 556 l 1xe6
 64 652 l 1
 211 652 l 1xce
 211 557 l 1
 389 557 l 1xd6
 389 652 l 1
 536 652 l 1xce
 536 557 l 1
 597 557 l 1xd6
EndSplineSet
EndChar

StartChar: hbar
Encoding: 295 295 291
Width: 600
Flags: MW
HStem: 0 21G<72 219 72 72 393 540 393 393> 363 125<341.5 347> 556 67.5 556 71<219 401 219 401> 556 145<6 219 6 219 72 219 72 401>
VStem: 72 147<0 311 509 556 627 701> 393 147<0 267 267 286 0 300>
LayerCount: 2
Fore
SplineSet
219 509 m 1xce
 211 414 l 1
 250 452 304 488 379 488 c 0
 490 488 540 411 540 286 c 2
 540 0 l 1
 393 0 l 1
 393 267 l 2
 393 333 374 363 320 363 c 0
 280 363 254 345 219 311 c 1
 219 0 l 1
 72 0 l 1
 72 556 l 1
 6 556 l 1xce
 6 621 l 1
 72 626 l 1xe6
 72 701 l 1
 219 701 l 1xce
 219 627 l 1
 401 627 l 1xd6
 401 556 l 1
 219 556 l 1
 219 509 l 1xce
EndSplineSet
EndChar

StartChar: Itilde
Encoding: 296 296 118
Width: 600
Flags: MW
HStem: 0 124<74 226 74 226 374 526> 528 124<74 226 74 526 374 374 374 526> 703 136<130 264 130 264 211 389>
VStem: 130 75<703 703> 226 148<124 528 124 528> 395 75<839 839>
LayerCount: 2
Fore
SplineSet
74 0 m 1
 74 124 l 1
 226 124 l 1
 226 528 l 1
 74 528 l 1
 74 652 l 1
 526 652 l 1
 526 528 l 1
 374 528 l 1
 374 124 l 1
 526 124 l 1
 526 0 l 1
 74 0 l 1
363 703 m 0
 309 703 274 748 243 748 c 0
 226 748 212 736 205 703 c 1
 130 703 l 1
 140 794 185 839 237 839 c 0
 291 839 326 794 357 794 c 0
 374 794 388 806 395 839 c 1
 470 839 l 1xfc
 460 748 415 703 363 703 c 0
EndSplineSet
EndChar

StartChar: itilde
Encoding: 297 297 295
Width: 600
Flags: MW
HStem: 0 21G<278 425 278 278> 381 115<79 425 79 278> 575 91<384 408.5 384 429.5> 575 143<174 315.5 174 315.5 260.5 429.5>
VStem: 278 147<0 381 381 381>
LayerCount: 2
Fore
SplineSet
79 381 m 1xd8
 79 496 l 1
 425 496 l 1
 425 0 l 1
 278 0 l 1
 278 381 l 1
 79 381 l 1xd8
174 575 m 1
 186 672 230 718 291 718 c 0xd8
 340 718 370 666 398 666 c 0xe8
 419 666 432 679 441 718 c 1
 516 718 l 1xd8
 504 622 460 575 399 575 c 0xe8
 349 575 320 628 292 628 c 0
 271 628 258 615 249 575 c 1
 174 575 l 1
EndSplineSet
EndChar

StartChar: Imacron
Encoding: 298 298 120
Width: 600
Flags: MW
HStem: 0 124<74 226 74 226 374 526> 528 124<74 226 74 526 374 374 374 526> 720 93<159 441 159 441>
VStem: 159 282<720 813 720 813> 226 148<124 528 124 528>
LayerCount: 2
Fore
SplineSet
74 0 m 1xe8
 74 124 l 1
 226 124 l 1
 226 528 l 1
 74 528 l 1
 74 652 l 1
 526 652 l 1
 526 528 l 1
 374 528 l 1
 374 124 l 1
 526 124 l 1
 526 0 l 1
 74 0 l 1xe8
159 720 m 1xf0
 159 813 l 1
 441 813 l 1
 441 720 l 1
 159 720 l 1xf0
EndSplineSet
EndChar

StartChar: imacron
Encoding: 299 299 297
Width: 600
Flags: MW
HStem: 0 21G<278 425 278 278> 381 115<79 425 79 278> 592 93<207 483 207 483>
VStem: 207 276<592 685 592 685> 278 147<0 381 381 381>
LayerCount: 2
Fore
SplineSet
79 381 m 1xe8
 79 496 l 1
 425 496 l 1
 425 0 l 1
 278 0 l 1
 278 381 l 1
 79 381 l 1xe8
207 592 m 1xf0
 207 685 l 1
 483 685 l 1
 483 592 l 1
 207 592 l 1xf0
EndSplineSet
EndChar

StartChar: uni012C
Encoding: 300 300 121
Width: 600
Flags: MW
HStem: 0 124<74 226 74 226 374 526> 528 124<74 226 74 526 374 374 374 526> 702 120<163 343.5>
VStem: 226 148<124 528 124 528>
LayerCount: 2
Fore
SplineSet
74 0 m 1
 74 124 l 1
 226 124 l 1
 226 528 l 1
 74 528 l 1
 74 652 l 1
 526 652 l 1
 526 528 l 1
 374 528 l 1
 374 124 l 1
 526 124 l 1
 526 0 l 1
 74 0 l 1
300 702 m 0
 213 702 171 751 163 822 c 1
 244 822 l 1
 250 796 266 776 300 776 c 0
 334 776 350 796 356 822 c 1
 437 822 l 1
 429 751 387 702 300 702 c 0
EndSplineSet
EndChar

StartChar: uni012D
Encoding: 301 301 298
Width: 600
Flags: MW
HStem: 0 21G<278 425 278 278> 381 115<79 425 79 278> 574 81<325 365 325 394.5>
VStem: 198 82<730 730> 278 147<0 381 381 381> 410 82<730 730>
LayerCount: 2
Fore
SplineSet
79 381 m 1xe8
 79 496 l 1
 425 496 l 1
 425 0 l 1
 278 0 l 1
 278 381 l 1
 79 381 l 1xe8
345 574 m 0xf4
 246 574 200 649 198 730 c 1
 280 730 l 1
 285 688 305 655 345 655 c 0
 385 655 405 688 410 730 c 1
 492 730 l 1
 490 649 444 574 345 574 c 0xf4
EndSplineSet
EndChar

StartChar: Iogonek
Encoding: 302 302 126
Width: 600
GlyphClass: 2
Flags: MW
HStem: -223 95<274.5 347> 0 124<74 226 74 226 74 266 374 526> 528 124<74 226 74 526 374 374 374 526>
VStem: 192 107<-103 -97> 226 148<124 528>
AnchorPoint: "Anchor-0" 300 674 basechar 0
LayerCount: 2
Fore
SplineSet
74 0 m 1x68
 74 124 l 1
 226 124 l 1
 226 528 l 1
 74 528 l 1
 74 652 l 1
 526 652 l 1
 526 528 l 1
 374 528 l 1
 374 124 l 1x68
 526 124 l 1
 526 0 l 1
 374 0 l 1
 320 -22 299 -56 299 -90 c 0
 299 -116 320 -128 340 -128 c 0
 354 -128 368 -121 377 -114 c 1
 411 -188 l 1
 385 -208 341 -223 306 -223 c 0
 243 -223 192 -189 192 -129 c 0
 192 -65 237 -21 266 0 c 1xf0
 74 0 l 1x68
EndSplineSet
Ligature2: "'ccmp' Glyph Composition/Decomposition in Latin lookup 6 subtable" I uni0328
EndChar

StartChar: iogonek
Encoding: 303 303 302
Width: 600
GlyphClass: 3
Flags: MW
HStem: -210 87<331.5 402.5> 0 21G<278 278 278 320 425 425> 381 115<79 278 79 425> 569 181<316.5 373.5>
VStem: 247 196<631 685> 255 99<-98 -90> 278 147<0 381 381 381>
LayerCount: 2
Fore
SplineSet
278 0 m 1xf2
 278 381 l 1
 79 381 l 1
 79 496 l 1
 425 496 l 1
 425 0 l 1
 372 -20 354 -55 354 -85 c 0
 354 -111 374 -123 396 -123 c 0
 409 -123 420 -117 431 -111 c 1xf2
 462 -177 l 1
 436 -197 392 -210 361 -210 c 0
 302 -210 255 -179 255 -119 c 0
 255 -61 295 -20 320 0 c 1xf4
 278 0 l 1xf2
345 569 m 0xf8
 288 569 247 604 247 658 c 0
 247 712 288 750 345 750 c 0
 402 750 443 712 443 658 c 0
 443 604 402 569 345 569 c 0xf8
EndSplineSet
Substitution2: "Single Substitution lookup 22 subtable" iogonek.d
Ligature2: "'ccmp' Glyph Composition/Decomposition in Latin lookup 6 subtable" i uni0328
EndChar

StartChar: Idotaccent
Encoding: 304 304 122
Width: 600
Flags: MW
HStem: 0 124<74 226 74 226 374 526> 528 124<74 226 74 526 374 374 374 526> 701 154<275.5 324.5>
VStem: 215 170<755.5 800.5> 226 148<124 528 124 528>
LayerCount: 2
Fore
SplineSet
74 0 m 1xc8
 74 124 l 1
 226 124 l 1
 226 528 l 1
 74 528 l 1
 74 652 l 1
 526 652 l 1
 526 528 l 1
 374 528 l 1
 374 124 l 1
 526 124 l 1
 526 0 l 1
 74 0 l 1xc8
300 701 m 0xf0
 251 701 215 733 215 778 c 0
 215 823 251 855 300 855 c 0
 349 855 385 823 385 778 c 0
 385 733 349 701 300 701 c 0xf0
EndSplineSet
EndChar

StartChar: dotlessi
Encoding: 305 305 304
Width: 600
GlyphClass: 2
Flags: MW
HStem: 0 21G<278 425 278 278> 381 115<79 425 79 278>
VStem: 278 147<0 381 381 381>
AnchorPoint: "Anchor-4" 393 0 basechar 0
AnchorPoint: "Anchor-2" 345 -22 basechar 0
AnchorPoint: "Anchor-0" 345 518 basechar 0
LayerCount: 2
Fore
SplineSet
79 381 m 1
 79 496 l 1
 425 496 l 1
 425 0 l 1
 278 0 l 1
 278 381 l 1
 79 381 l 1
EndSplineSet
EndChar

StartChar: Jcircumflex
Encoding: 308 308 127
Width: 600
Flags: MW
HStem: -12 127<246.5 301.5 246.5 363> 529 123<114 369 114 516> 702 120<250 266 154 393 377 377 377 393 250 489>
VStem: 369 147<234 529 529 529>
LayerCount: 2
Fore
SplineSet
59 96 m 1
 144 187 l 1
 182 140 225 115 268 115 c 0
 335 115 369 144 369 234 c 2
 369 529 l 1
 114 529 l 1
 114 652 l 1
 516 652 l 1
 516 222 l 2
 516 94 453 -12 273 -12 c 0
 201 -12 116 16 59 96 c 1
266 702 m 1
 154 702 l 1
 250 822 l 1
 393 822 l 1
 489 702 l 1
 377 702 l 1
 324 763 l 1
 320 763 l 1
 266 702 l 1
EndSplineSet
EndChar

StartChar: jcircumflex
Encoding: 309 309 305
Width: 600
Flags: MW
HStem: -196 115<171.5 221.5 171.5 285> 381 115<79 425 79 278> 574 167<183 407 283 290 400 400 400 407 283 507>
VStem: 278 147<24 30 30 381 381 381>
LayerCount: 2
Fore
SplineSet
79 381 m 1
 79 496 l 1
 425 496 l 1
 425 30 l 2
 425 -91 375 -196 195 -196 c 0
 134 -196 85 -182 42 -162 c 1
 85 -57 l 1
 125 -75 157 -81 186 -81 c 0
 257 -81 278 -48 278 24 c 2
 278 381 l 1
 79 381 l 1
183 574 m 1
 283 741 l 1
 407 741 l 1
 507 574 l 1
 400 574 l 1
 347 669 l 1
 343 669 l 1
 290 574 l 1
 183 574 l 1
EndSplineSet
EndChar

StartChar: uni0136
Encoding: 310 310 128
Width: 600
Flags: MW
HStem: -229 59<220 231> 0 21G<68 68 68 217 431 431 431 594> 632 20G<68 217 217 217 413 575 575 575>
VStem: 68 149<0 175 385 652> 303 106<-144.5 -123.5>
LayerCount: 2
Fore
SplineSet
68 0 m 1
 68 652 l 1
 217 652 l 1
 217 385 l 1
 220 385 l 1
 413 652 l 1
 575 652 l 1
 380 392 l 1
 594 0 l 1
 431 0 l 1
 293 275 l 1
 217 175 l 1
 217 0 l 1
 68 0 l 1
288 -42 m 1
 377 -51 409 -76 409 -126 c 0
 409 -194 326 -224 231 -229 c 1
 220 -170 l 1
 268 -165 303 -156 303 -133 c 0
 303 -114 289 -104 260 -96 c 1
 288 -42 l 1
EndSplineSet
EndChar

StartChar: uni0137
Encoding: 311 311 306
Width: 600
Flags: MW
HStem: -229 59<221 232> 0 21G<76 76 76 223 426 426 426 585> 476 20G<409 570 570 570> 681 20G<76 223 223 223>
VStem: 76 147<0 125 296 701> 304 106<-144.5 -123.5>
LayerCount: 2
Fore
SplineSet
76 0 m 1
 76 701 l 1
 223 701 l 1
 223 296 l 1
 227 296 l 1
 409 496 l 1
 570 496 l 1
 382 292 l 1
 585 0 l 1
 426 0 l 1
 296 202 l 1
 223 125 l 1
 223 0 l 1
 76 0 l 1
289 -42 m 1
 378 -51 410 -76 410 -126 c 0
 410 -194 327 -224 232 -229 c 1
 221 -170 l 1
 269 -165 304 -156 304 -133 c 0
 304 -114 290 -104 261 -96 c 1
 289 -42 l 1
EndSplineSet
EndChar

StartChar: kgreenlandic
Encoding: 312 312 307
Width: 600
Flags: MW
HStem: 0 21G<76 76 76 223 426 426 426 585> 476 20G<76 223 223 223 409 570 570 570>
VStem: 76 147<0 123 299 496>
LayerCount: 2
Fore
SplineSet
76 0 m 1
 76 496 l 1
 223 496 l 1
 223 299 l 1
 226 300 l 1
 409 496 l 1
 570 496 l 1
 382 292 l 1
 585 0 l 1
 426 0 l 1
 297 195 l 1
 223 123 l 1
 223 0 l 1
 76 0 l 1
EndSplineSet
EndChar

StartChar: Lacute
Encoding: 313 313 129
Width: 600
Flags: MW
HStem: 0 124<254 544 254 544> 632 20G<107 254 254 254> 702 120<201 238 120 357>
VStem: 107 147<124 652 124 652 124 652>
LayerCount: 2
Fore
SplineSet
107 0 m 1
 107 652 l 1
 254 652 l 1
 254 124 l 1
 544 124 l 1
 544 0 l 1
 107 0 l 1
357 822 m 1
 238 702 l 1
 120 702 l 1
 201 822 l 1
 357 822 l 1
EndSplineSet
EndChar

StartChar: lacute
Encoding: 314 314 308
Width: 600
Flags: MW
HStem: -12 119<412.5 426> 585 116<62 353 62 206> 757 120<271 307 190 427>
VStem: 206 147<194 585 585 585>
LayerCount: 2
Fore
SplineSet
62 585 m 1
 62 701 l 1
 353 701 l 1
 353 188 l 2
 353 127 392 107 433 107 c 0
 456 107 480 111 511 123 c 1
 544 15 l 1
 492 -1 457 -12 395 -12 c 0
 270 -12 206 68 206 194 c 2
 206 585 l 1
 62 585 l 1
427 877 m 1
 307 757 l 1
 190 757 l 1
 271 877 l 1
 427 877 l 1
EndSplineSet
EndChar

StartChar: uni013B
Encoding: 315 315 131
Width: 600
Flags: MW
HStem: -229 59<229 240> 0 124<254 544 254 544> 632 20G<107 254 254 254>
VStem: 107 147<124 652 124 652 124 652> 311 106<-144.5 -123.5>
LayerCount: 2
Fore
SplineSet
107 0 m 1
 107 652 l 1
 254 652 l 1
 254 124 l 1
 544 124 l 1
 544 0 l 1
 107 0 l 1
296 -42 m 1
 386 -51 417 -76 417 -126 c 0
 417 -194 334 -224 240 -229 c 1
 229 -170 l 1
 276 -165 311 -156 311 -133 c 0
 311 -114 298 -104 268 -96 c 1
 296 -42 l 1
EndSplineSet
EndChar

StartChar: uni013C
Encoding: 316 316 311
Width: 600
Flags: MW
HStem: -229 59<259 270> -12 119<412.5 426> 585 116<62 353 62 206>
VStem: 206 147<194 585 585 585> 341 106<-144.5 -123.5>
LayerCount: 2
Fore
SplineSet
62 585 m 1xf0
 62 701 l 1
 353 701 l 1
 353 188 l 2
 353 127 392 107 433 107 c 0
 456 107 480 111 511 123 c 1
 544 15 l 1
 492 -1 457 -12 395 -12 c 0
 270 -12 206 68 206 194 c 2
 206 585 l 1
 62 585 l 1xf0
326 -42 m 1xe8
 416 -51 447 -76 447 -126 c 0
 447 -194 364 -224 270 -229 c 1
 259 -170 l 1
 306 -165 341 -156 341 -133 c 0
 341 -114 328 -104 298 -96 c 1
 326 -42 l 1xe8
EndSplineSet
EndChar

StartChar: Lcaron
Encoding: 317 317 130
Width: 600
Flags: MW
HStem: 0 124<254 544 254 544> 510 142<107 449 107 386> 510 222<386 449 386 386> 632 20G<107 254 254 254>
VStem: 107 147<124 652 124 652 124 652> 383.5 91
LayerCount: 2
Fore
SplineSet
107 0 m 1x9c
 107 652 l 1
 254 652 l 1
 254 124 l 1
 544 124 l 1
 544 0 l 1
 107 0 l 1x9c
449 510 m 1xcc
 386 510 l 1xcc
 381 732 l 1
 475 732 l 1
 474 662 l 1xac
 449 510 l 1xcc
EndSplineSet
EndChar

StartChar: lcaron
Encoding: 318 318 309
Width: 600
GlyphClass: 3
Flags: MW
HStem: -12 119<412.5 426> 548 222<414 477 414 414> 585 116<62 353 62 206>
VStem: 206 147<194 585 585 585> 411.5 91
LayerCount: 2
Fore
SplineSet
62 585 m 1xb8
 62 701 l 1
 353 701 l 1
 353 188 l 2
 353 127 392 107 433 107 c 0
 456 107 480 111 511 123 c 1
 544 15 l 1
 492 -1 457 -12 395 -12 c 0
 270 -12 206 68 206 194 c 2
 206 585 l 1
 62 585 l 1xb8
477 548 m 1xd8
 414 548 l 1
 409 770 l 1
 503 770 l 1
 502 701 l 1
 477 548 l 1xd8
EndSplineSet
Ligature2: "'ccmp' Glyph Composition/Decomposition in Latin lookup 6 subtable" l uni030C
EndChar

StartChar: Ldot
Encoding: 319 319 132
Width: 600
Flags: MW
HStem: 0 124<254 544 254 544> 264 181<425 481.5> 632 20G<107 254 254 254>
VStem: 107 147<124 652 124 652 124 652> 356 195<327 381>
LayerCount: 2
Fore
SplineSet
107 0 m 1
 107 652 l 1
 254 652 l 1
 254 124 l 1
 544 124 l 1
 544 0 l 1
 107 0 l 1
453 264 m 0
 397 264 356 300 356 354 c 0
 356 408 397 445 453 445 c 0
 510 445 551 408 551 354 c 0
 551 300 510 264 453 264 c 0
EndSplineSet
EndChar

StartChar: ldot
Encoding: 320 320 310
Width: 600
Flags: MW
HStem: -12 119<363 376> 262 181<442.5 499.5> 585 116<12 303 12 156>
VStem: 156 147<194 585 585 585> 373 196<325 379>
LayerCount: 2
Fore
SplineSet
12 585 m 1
 12 701 l 1
 303 701 l 1
 303 188 l 2
 303 127 342 107 384 107 c 0
 407 107 430 111 461 123 c 1
 494 15 l 1
 443 -1 407 -12 345 -12 c 0
 221 -12 156 68 156 194 c 2
 156 585 l 1
 12 585 l 1
471 262 m 0
 414 262 373 298 373 352 c 0
 373 406 414 443 471 443 c 0
 528 443 569 406 569 352 c 0
 569 298 528 262 471 262 c 0
EndSplineSet
EndChar

StartChar: Lslash
Encoding: 321 321 136
Width: 600
Flags: MW
HStem: 0 124<254 544 254 544> 632 20G<107 254 254 254>
VStem: 107 147<124 124 124 198 198 198 384 652>
LayerCount: 2
Fore
SplineSet
254 124 m 1
 544 124 l 1
 544 0 l 1
 107 0 l 1
 107 198 l 1
 33 157 l 1
 33 271 l 1
 107 312 l 1
 107 652 l 1
 254 652 l 1
 254 384 l 1
 460 497 l 1
 460 383 l 1
 254 270 l 1
 254 124 l 1
EndSplineSet
EndChar

StartChar: lslash
Encoding: 322 322 315
Width: 600
Flags: MW
HStem: -12 119<412.5 426> 585 116<62 206 62 353>
VStem: 206 147<194 276 276 276 467 585 585 585>
LayerCount: 2
Fore
SplineSet
511 123 m 1
 544 15 l 1
 492 -1 457 -12 395 -12 c 0
 270 -12 206 68 206 194 c 2
 206 276 l 1
 93 213 l 1
 93 330 l 1
 206 394 l 1
 206 585 l 1
 62 585 l 1
 62 701 l 1
 353 701 l 1
 353 467 l 1
 501 547 l 1
 501 430 l 1
 353 349 l 1
 353 188 l 2
 353 127 392 107 433 107 c 0
 456 107 480 111 511 123 c 1
EndSplineSet
EndChar

StartChar: Nacute
Encoding: 323 323 138
Width: 600
Flags: MW
HStem: 0 21G<66 66 66 207 384 384 384 534> 0 184<384 414 410 414 410 534> 467 185<186 190 186 186> 632 20G<66 216 216 216 393 534 534 534> 702 120<312 348 231 468>
VStem: 66 141<0 231 0 652> 393 141<421 652 0 652>
LayerCount: 2
Fore
SplineSet
66 0 m 1x9e
 66 652 l 1
 216 652 l 1
 354 327 l 1
 410 184 l 1
 414 184 l 1x5e
 407 253 393 345 393 421 c 2
 393 652 l 1
 534 652 l 1
 534 0 l 1
 384 0 l 1
 246 325 l 1
 190 467 l 1
 186 467 l 1xae
 193 395 207 308 207 231 c 2
 207 0 l 1
 66 0 l 1x9e
468 822 m 1
 348 702 l 1
 231 702 l 1
 312 822 l 1
 468 822 l 1
EndSplineSet
EndChar

StartChar: nacute
Encoding: 324 324 317
Width: 600
Flags: MW
HStem: 0 21G<72 72 72 219 393 393 393 540> 383 125<341 347> 476 20G<72 192 192 192> 574 167<322 340 233 473>
VStem: 72 147<0 331 0 496> 393 147<0 287 287 306 0 320>
LayerCount: 2
Fore
SplineSet
72 0 m 1xbc
 72 496 l 1
 192 496 l 1xbc
 203 430 l 1
 207 430 l 1
 250 472 304 508 378 508 c 0
 490 508 540 431 540 306 c 2
 540 0 l 1
 393 0 l 1
 393 287 l 2
 393 353 374 383 320 383 c 0
 280 383 254 365 219 331 c 1xdc
 219 0 l 1
 72 0 l 1xbc
473 741 m 1
 340 574 l 1
 233 574 l 1
 322 741 l 1
 473 741 l 1
EndSplineSet
EndChar

StartChar: uni0145
Encoding: 325 325 141
Width: 600
Flags: MW
HStem: -229 59<197 208> 0 21G<66 66 66 207 384 384 384 534> 0 184<384 414 410 414 410 534> 467 185<186 190 186 186> 632 20G<66 216 216 216 393 534 534 534>
VStem: 66 141<0 231 0 652> 280 105<-144.5 -123.5> 393 141<421 652 0 652>
LayerCount: 2
Fore
SplineSet
66 0 m 1xcd
 66 652 l 1
 216 652 l 1
 354 327 l 1
 410 184 l 1
 414 184 l 1xad
 407 253 393 345 393 421 c 2
 393 652 l 1
 534 652 l 1
 534 0 l 1
 384 0 l 1
 246 325 l 1
 190 467 l 1
 186 467 l 1xd5
 193 395 207 308 207 231 c 2
 207 0 l 1
 66 0 l 1xcd
264 -42 m 1xcf
 354 -51 385 -76 385 -126 c 0
 385 -194 303 -224 208 -229 c 1
 197 -170 l 1
 245 -165 280 -156 280 -133 c 0
 280 -114 266 -104 236 -96 c 1
 264 -42 l 1xcf
EndSplineSet
EndChar

StartChar: uni0146
Encoding: 326 326 320
Width: 600
Flags: MW
HStem: -229 59<204 214> 0 21G<72 72 72 219 393 393 393 540> 383 125<341 347> 476 20G<72 192 192 192>
VStem: 72 147<0 331 0 496> 286 106<-144.5 -123.5> 393 147<0 287 287 306 0 320>
LayerCount: 2
Fore
SplineSet
72 0 m 1xda
 72 496 l 1
 192 496 l 1xdc
 203 430 l 1
 207 430 l 1
 250 472 304 508 378 508 c 0
 490 508 540 431 540 306 c 2
 540 0 l 1
 393 0 l 1
 393 287 l 2
 393 353 374 383 320 383 c 0
 280 383 254 365 219 331 c 1xea
 219 0 l 1
 72 0 l 1xda
271 -42 m 1
 360 -51 392 -76 392 -126 c 0
 392 -194 309 -224 214 -229 c 1
 204 -170 l 1
 251 -165 286 -156 286 -133 c 0
 286 -114 272 -104 243 -96 c 1
 271 -42 l 1
EndSplineSet
EndChar

StartChar: Ncaron
Encoding: 327 327 139
Width: 600
Flags: MW
HStem: 0 21G<66 66 66 207 384 384 384 534> 0 184<384 414 410 414 410 534> 467 185<186 190 186 186> 632 20G<66 216 216 216 393 534 534 534> 702 120<234 251 361 378 234 234>
VStem: 66 141<0 231 0 652> 393 141<421 652 0 652>
LayerCount: 2
Fore
SplineSet
66 0 m 1x9e
 66 652 l 1
 216 652 l 1
 354 327 l 1
 410 184 l 1
 414 184 l 1x5e
 407 253 393 345 393 421 c 2
 393 652 l 1
 534 652 l 1
 534 0 l 1
 384 0 l 1
 246 325 l 1
 190 467 l 1
 186 467 l 1xae
 193 395 207 308 207 231 c 2
 207 0 l 1
 66 0 l 1x9e
361 822 m 1
 474 822 l 1
 378 702 l 1
 234 702 l 1
 138 822 l 1
 251 822 l 1
 304 761 l 1
 308 761 l 1
 361 822 l 1
EndSplineSet
EndChar

StartChar: ncaron
Encoding: 328 328 318
Width: 600
Flags: MW
HStem: 0 21G<72 72 72 219 393 393 393 540> 383 125<341 347> 476 20G<72 192 192 192> 574 167<253 253 253 260 370 377>
VStem: 72 147<0 331 0 496> 393 147<0 287 287 306 0 320>
LayerCount: 2
Fore
SplineSet
72 0 m 1xbc
 72 496 l 1
 192 496 l 1xbc
 203 430 l 1
 207 430 l 1
 250 472 304 508 378 508 c 0
 490 508 540 431 540 306 c 2
 540 0 l 1
 393 0 l 1
 393 287 l 2
 393 353 374 383 320 383 c 0
 280 383 254 365 219 331 c 1xdc
 219 0 l 1
 72 0 l 1xbc
253 574 m 1
 153 741 l 1
 260 741 l 1
 313 645 l 1
 317 645 l 1
 370 741 l 1
 477 741 l 1
 377 574 l 1
 253 574 l 1
EndSplineSet
EndChar

StartChar: napostrophe
Encoding: 329 329 324
Width: 600
Flags: MW
HStem: 0 21G<216 363 216 216 497 644 497 497> 383 125<426 550.5> 476 20G<216 336 336 336> 504 193<22.5 49>
VStem: 66 102 216 147<0 333 0 496> 497 147<0 289 289 308 0 321.5>
LayerCount: 2
Fore
SplineSet
-7 290 m 1xae
 -46 368 l 1
 23 399 61 444 66 506 c 1
 59 505 52 504 46 504 c 0
 -8 504 -45 541 -45 596 c 0
 -45 657 -5 697 50 697 c 0xbe
 125 697 168 637 168 537 c 0
 168 428 110 343 -7 290 c 1xae
347 432 m 1xae
 351 432 l 1xae
 390 473 435 508 501 508 c 0
 600 508 644 432 644 308 c 2
 644 0 l 1
 497 0 l 1
 497 289 l 2
 497 354 482 383 442 383 c 0
 410 383 392 365 363 333 c 1xce
 363 0 l 1
 216 0 l 1
 216 496 l 1
 336 496 l 1
 347 432 l 1xae
EndSplineSet
EndChar

StartChar: Omacron
Encoding: 332 332 150
Width: 600
Flags: MW
HStem: -12 127<266 334 266 377.5> 537 127<266 334> 720 93<159 441 159 441>
VStem: 38 151<263.5 394 263.5 435.5> 159 282<720 813 720 813> 411 151<263.5 394>
LayerCount: 2
Fore
SplineSet
300 -12 m 0xf4
 145 -12 38 116 38 329 c 0
 38 542 145 664 300 664 c 0
 455 664 562 541 562 329 c 0
 562 116 455 -12 300 -12 c 0xf4
300 115 m 0
 368 115 411 198 411 329 c 0
 411 459 368 537 300 537 c 0
 232 537 189 459 189 329 c 0
 189 198 232 115 300 115 c 0
159 720 m 1xe8
 159 813 l 1
 441 813 l 1
 441 720 l 1
 159 720 l 1xe8
EndSplineSet
EndChar

StartChar: omacron
Encoding: 333 333 330
Width: 600
Flags: MW
HStem: -12 119<266 334 266 365.5> 389 119<266 334> 592 93<162 438 162 438>
VStem: 47 151<205 291 205 330.5> 162 276<592 685 592 685> 402 151<205 291>
LayerCount: 2
Fore
SplineSet
47 248 m 0xf4
 47 413 169 508 300 508 c 0
 431 508 553 413 553 248 c 0
 553 83 431 -12 300 -12 c 0
 169 -12 47 83 47 248 c 0xf4
198 248 m 0
 198 162 232 107 300 107 c 0
 368 107 402 162 402 248 c 0
 402 334 368 389 300 389 c 0
 232 389 198 334 198 248 c 0
162 592 m 1xe8
 162 685 l 1
 438 685 l 1
 438 592 l 1
 162 592 l 1xe8
EndSplineSet
EndChar

StartChar: uni014E
Encoding: 334 334 151
Width: 600
Flags: MW
HStem: -12 127<266 334 266 377.5> 537 127<266 334> 702 120<163 343.5>
VStem: 38 151<263.5 394 263.5 435.5> 411 151<263.5 394>
LayerCount: 2
Fore
SplineSet
300 -12 m 0
 145 -12 38 116 38 329 c 0
 38 542 145 664 300 664 c 0
 455 664 562 541 562 329 c 0
 562 116 455 -12 300 -12 c 0
300 115 m 0
 368 115 411 198 411 329 c 0
 411 459 368 537 300 537 c 0
 232 537 189 459 189 329 c 0
 189 198 232 115 300 115 c 0
300 702 m 0
 213 702 171 751 163 822 c 1
 244 822 l 1
 250 796 266 776 300 776 c 0
 334 776 350 796 356 822 c 1
 437 822 l 1
 429 751 387 702 300 702 c 0
EndSplineSet
EndChar

StartChar: uni014F
Encoding: 335 335 331
Width: 600
Flags: MW
HStem: -12 119<266 334 266 365.5> 389 119<266 334> 574 81<280 320 280 349.5>
VStem: 47 151<205 291 205 330.5> 153 82<730 730> 365 82<730 730> 402 151<205 291>
LayerCount: 2
Fore
SplineSet
47 248 m 0xf2
 47 413 169 508 300 508 c 0
 431 508 553 413 553 248 c 0
 553 83 431 -12 300 -12 c 0
 169 -12 47 83 47 248 c 0xf2
198 248 m 0
 198 162 232 107 300 107 c 0
 368 107 402 162 402 248 c 0
 402 334 368 389 300 389 c 0
 232 389 198 334 198 248 c 0
300 574 m 0xec
 201 574 155 649 153 730 c 1
 235 730 l 1
 240 688 260 655 300 655 c 0
 340 655 360 688 365 730 c 1
 447 730 l 1
 445 649 399 574 300 574 c 0xec
EndSplineSet
EndChar

StartChar: Ohungarumlaut
Encoding: 336 336 152
Width: 600
Flags: MW
HStem: -12 127<266 334 266 377.5> 537 127<266 334> 702 120<226 262 163 351 342 351 406 441 342 342>
VStem: 38 151<263.5 394 263.5 435.5> 411 151<263.5 394>
LayerCount: 2
Fore
SplineSet
300 -12 m 0
 145 -12 38 116 38 329 c 0
 38 542 145 664 300 664 c 0
 455 664 562 541 562 329 c 0
 562 116 455 -12 300 -12 c 0
300 115 m 0
 368 115 411 198 411 329 c 0
 411 459 368 537 300 537 c 0
 232 537 189 459 189 329 c 0
 189 198 232 115 300 115 c 0
262 702 m 1
 163 702 l 1
 226 822 l 1
 351 822 l 1
 262 702 l 1
342 702 m 1
 406 822 l 1
 531 822 l 1
 441 702 l 1
 342 702 l 1
EndSplineSet
EndChar

StartChar: ohungarumlaut
Encoding: 337 337 332
Width: 600
Flags: MW
HStem: -12 119<266 334 266 365.5> 389 119<266 334> 573 151<175 360 243 265 345 360 414 436 345 345>
VStem: 47 151<205 291 205 330.5> 402 151<205 291>
LayerCount: 2
Fore
SplineSet
47 248 m 0
 47 413 169 508 300 508 c 0
 431 508 553 413 553 248 c 0
 553 83 431 -12 300 -12 c 0
 169 -12 47 83 47 248 c 0
198 248 m 0
 198 162 232 107 300 107 c 0
 368 107 402 162 402 248 c 0
 402 334 368 389 300 389 c 0
 232 389 198 334 198 248 c 0
175 573 m 1
 243 724 l 1
 360 724 l 1
 265 573 l 1
 175 573 l 1
345 573 m 1
 414 724 l 1
 531 724 l 1
 436 573 l 1
 345 573 l 1
EndSplineSet
EndChar

StartChar: OE
Encoding: 338 338 162
Width: 600
GlyphClass: 2
Flags: MW
HStem: 0 119<278 287 287 294 278 595> 0 124<425 595 425 595> 274 123<425 546 425 546> 529 123<425 585 425 425> 533 119<245 585 278 585>
VStem: 19 151<250 407.5 250 441> 294 131<124 274 397 529>
AnchorPoint: "Anchor-0" 394 674 basechar 0
LayerCount: 2
Fore
SplineSet
19 329 m 0x76
 19 553 137 652 295 652 c 2
 585 652 l 1
 585 529 l 1
 425 529 l 1
 425 397 l 1
 546 397 l 1
 546 274 l 1
 425 274 l 1
 425 124 l 1
 595 124 l 1
 595 0 l 1
 287 0 l 2
 133 0 19 105 19 329 c 0x76
170 329 m 0xae
 170 171 212 119 278 119 c 2
 294 119 l 1
 294 533 l 1
 278 533 l 2
 212 533 170 486 170 329 c 0xae
EndSplineSet
EndChar

StartChar: oe
Encoding: 339 339 342
Width: 600
GlyphClass: 2
Flags: MW
HStem: -12 115<430.5 467 430.5 468.5> -12 118<185 224 185 224.5> 205 90<364 476 362 586 364 364> 390 118<185 224> 396 112<413.5 446>
VStem: 12 132<205 291 205 330.5> 262 100<205 295> 476 116<295 322.5>
AnchorPoint: "Anchor-0" 315 518 basechar 0
LayerCount: 2
Fore
SplineSet
144 248 m 0x77
 144 162 164 106 206 106 c 0
 242 106 262 162 262 248 c 0
 262 334 242 390 206 390 c 0
 164 390 144 334 144 248 c 0x77
12 248 m 0
 12 413 96 508 198 508 c 0
 255 508 295 474 319 422 c 1
 346 477 389 508 438 508 c 0
 537 508 592 399 592 269 c 0
 592 242 590 227 586 205 c 1
 364 205 l 1
 375 137 407 103 454 103 c 0
 480 103 502 111 528 129 c 1xb7
 578 35 l 1
 540 5 489 -12 448 -12 c 0
 396 -12 349 16 320 65 c 1
 291 15 254 -12 195 -12 c 0
 93 -12 12 83 12 248 c 0
362 295 m 1
 476 295 l 1
 476 350 465 396 427 396 c 0x6f
 393 396 368 364 362 295 c 1
EndSplineSet
EndChar

StartChar: Racute
Encoding: 340 340 170
Width: 600
Flags: MW
HStem: 0 21G<70 217 70 70 419 584 419 419> 235 117<217 289 289 294 217 289> 535 117<217 217 217 289> 702 120<309 345 228 465>
VStem: 70 147<0 235 352 535> 408 145<417 481>
LayerCount: 2
Fore
SplineSet
465 822 m 1
 345 702 l 1
 228 702 l 1
 309 822 l 1
 465 822 l 1
217 535 m 1
 217 352 l 1
 289 352 l 2
 367 352 408 385 408 449 c 0
 408 513 367 535 289 535 c 2
 217 535 l 1
584 0 m 1
 419 0 l 1
 294 235 l 1
 217 235 l 1
 217 0 l 1
 70 0 l 1
 70 652 l 1
 301 652 l 2
 439 652 553 604 553 449 c 0
 553 353 506 292 437 261 c 1
 584 0 l 1
EndSplineSet
EndChar

StartChar: racute
Encoding: 341 341 350
Width: 600
Flags: MW
HStem: 0 21G<116 116 116 263> 379 129<412.5 448.5> 476 20G<116 236 236 236> 488 20 574 167<346 364 257 497>
VStem: 116 147<0 258 0 496>
LayerCount: 2
Fore
SplineSet
116 0 m 1x9c
 116 496 l 1
 236 496 l 1xac
 248 388 l 1
 251 388 l 1
 300 469 373 508 452 508 c 0
 496 508 519 501 548 488 c 1x9c
 518 365 l 1
 487 374 467 379 430 379 c 0xcc
 369 379 305 347 263 258 c 1
 263 0 l 1
 116 0 l 1x9c
497 741 m 1
 364 574 l 1
 257 574 l 1
 346 741 l 1
 497 741 l 1
EndSplineSet
EndChar

StartChar: uni0156
Encoding: 342 342 172
Width: 600
Flags: MW
HStem: -229 59<217 228> 0 21G<70 217 70 70 419 584 419 419> 235 117<217 289 289 294 217 289> 535 117<217 217 217 289>
VStem: 70 147<0 235 352 535> 300 105<-144.5 -123.5> 408 145<417 481>
LayerCount: 2
Fore
SplineSet
256 -96 m 1
 284 -42 l 1
 374 -51 405 -76 405 -126 c 0
 405 -194 323 -224 228 -229 c 1
 217 -170 l 1
 265 -165 300 -156 300 -133 c 0
 300 -114 286 -104 256 -96 c 1
217 535 m 1
 217 352 l 1
 289 352 l 2
 367 352 408 385 408 449 c 0x7a
 408 513 367 535 289 535 c 2
 217 535 l 1
437 261 m 1
 584 0 l 1
 419 0 l 1
 294 235 l 1
 217 235 l 1
 217 0 l 1
 70 0 l 1
 70 652 l 1
 301 652 l 2
 439 652 553 604 553 449 c 0
 553 353 506 292 437 261 c 1
EndSplineSet
EndChar

StartChar: uni0157
Encoding: 343 343 351
Width: 600
Flags: MW
HStem: -229 59<100 111> 0 21G<116 116 116 263> 379 129<412.5 448.5> 476 20G<116 236 236 236> 488 20
VStem: 116 147<0 258 0 496> 182 106<-144.5 -123.5>
LayerCount: 2
Fore
SplineSet
116 0 m 1xcc
 116 496 l 1
 236 496 l 1xd4
 248 388 l 1
 251 388 l 1
 300 469 373 508 452 508 c 0
 496 508 519 501 548 488 c 1xcc
 518 365 l 1
 487 374 467 379 430 379 c 0xe4
 369 379 305 347 263 258 c 1
 263 0 l 1
 116 0 l 1xcc
167 -42 m 1xca
 257 -51 288 -76 288 -126 c 0
 288 -194 206 -224 111 -229 c 1
 100 -170 l 1
 148 -165 182 -156 182 -133 c 0
 182 -114 169 -104 139 -96 c 1
 167 -42 l 1xca
EndSplineSet
EndChar

StartChar: Rcaron
Encoding: 344 344 171
Width: 600
Flags: MW
HStem: 0 21G<70 217 70 70 419 584 419 419> 235 117<217 289 289 294 217 289> 535 117<217 217 217 289> 702 120<231 247 358 374 231 231>
VStem: 70 147<0 235 352 535> 408 145<417 481>
LayerCount: 2
Fore
SplineSet
374 702 m 1
 231 702 l 1
 135 822 l 1
 247 822 l 1
 301 761 l 1
 305 761 l 1
 358 822 l 1
 470 822 l 1
 374 702 l 1
217 535 m 1
 217 352 l 1
 289 352 l 2
 367 352 408 385 408 449 c 0
 408 513 367 535 289 535 c 2
 217 535 l 1
584 0 m 1
 419 0 l 1
 294 235 l 1
 217 235 l 1
 217 0 l 1
 70 0 l 1
 70 652 l 1
 301 652 l 2
 439 652 553 604 553 449 c 0
 553 353 506 292 437 261 c 1
 584 0 l 1
EndSplineSet
EndChar

StartChar: rcaron
Encoding: 345 345 352
Width: 600
Flags: MW
HStem: 0 21G<116 116 116 263> 379 129<412.5 448.5> 476 20G<116 236 236 236> 488 20 574 167<277 277 277 284 394 401>
VStem: 116 147<0 258 0 496>
LayerCount: 2
Fore
SplineSet
116 0 m 1x9c
 116 496 l 1
 236 496 l 1xac
 248 388 l 1
 251 388 l 1
 300 469 373 508 452 508 c 0
 496 508 519 501 548 488 c 1x9c
 518 365 l 1
 487 374 467 379 430 379 c 0xcc
 369 379 305 347 263 258 c 1
 263 0 l 1
 116 0 l 1x9c
277 574 m 1
 177 741 l 1
 284 741 l 1
 337 645 l 1
 341 645 l 1
 394 741 l 1
 501 741 l 1
 401 574 l 1
 277 574 l 1
EndSplineSet
EndChar

StartChar: Sacute
Encoding: 346 346 176
Width: 600
Flags: MW
HStem: -12 127<273.5 336 273.5 379> 537 127<286.5 343> 702 120<313 350 233 469>
VStem: 76 149<458 496.5 458 524> 400 151<158.5 198.5>
LayerCount: 2
Fore
SplineSet
50 82 m 1
 135 183 l 1
 184 143 245 115 302 115 c 0
 370 115 400 139 400 178 c 0
 400 219 362 232 299 256 c 1
 215 292 l 1
 142 319 76 375 76 470 c 0
 76 578 174 664 315 664 c 0
 394 664 473 634 532 578 c 1
 457 485 l 1
 412 518 371 537 315 537 c 0
 258 537 225 515 225 478 c 0
 225 438 269 424 332 401 c 1
 411 367 l 1
 497 335 551 282 551 190 c 0
 551 82 460 -12 298 -12 c 0
 210 -12 120 20 50 82 c 1
469 822 m 1
 350 702 l 1
 233 702 l 1
 313 822 l 1
 469 822 l 1
EndSplineSet
EndChar

StartChar: sacute
Encoding: 347 347 356
Width: 600
Flags: MW
HStem: -12 109<266 332.5 266 375.5> 399 109<285 342> 574 167<320 338 231 470>
VStem: 84 146<345 372.5 345 399> 394 146<126 154>
LayerCount: 2
Fore
SplineSet
53 64 m 1
 119 156 l 1
 176 120 233 97 299 97 c 0
 366 97 394 113 394 139 c 0
 394 169 341 186 261 208 c 0
 174 232 84 274 84 353 c 0
 84 445 171 508 313 508 c 0
 401 508 475 473 527 440 c 1
 461 352 l 1
 416 379 368 399 316 399 c 0
 254 399 230 385 230 360 c 0
 230 330 287 315 357 297 c 0
 455 271 540 234 540 148 c 0
 540 58 455 -12 296 -12 c 0
 207 -12 116 22 53 64 c 1
470 741 m 1
 338 574 l 1
 231 574 l 1
 320 741 l 1
 470 741 l 1
EndSplineSet
EndChar

StartChar: Scircumflex
Encoding: 348 348 177
Width: 600
Flags: MW
HStem: -12 127<273.5 336 273.5 379> 537 127<286.5 343> 702 120<236 252 140 379 363 363 363 379 236 475>
VStem: 76 149<458 496.5 458 524> 400 151<158.5 198.5>
LayerCount: 2
Fore
SplineSet
50 82 m 1
 135 183 l 1
 184 143 245 115 302 115 c 0
 370 115 400 139 400 178 c 0
 400 219 362 232 299 256 c 1
 215 292 l 1
 142 319 76 375 76 470 c 0
 76 578 174 664 315 664 c 0
 394 664 473 634 532 578 c 1
 457 485 l 1
 412 518 371 537 315 537 c 0
 258 537 225 515 225 478 c 0
 225 438 269 424 332 401 c 1
 411 367 l 1
 497 335 551 282 551 190 c 0
 551 82 460 -12 298 -12 c 0
 210 -12 120 20 50 82 c 1
252 702 m 1
 140 702 l 1
 236 822 l 1
 379 822 l 1
 475 702 l 1
 363 702 l 1
 309 763 l 1
 305 763 l 1
 252 702 l 1
EndSplineSet
EndChar

StartChar: uni015E
Encoding: 350 350 179
Width: 600
Flags: MW
HStem: -221 59<199 210> -10 21G<257 257> 537 127<286.5 343>
VStem: 76 149<458 496.5 458 524> 282 105<-131 -109.5> 400 151<158.5 198.5>
LayerCount: 2
Fore
SplineSet
332 401 m 1
 411 367 l 1
 497 335 551 282 551 190 c 0xf4
 551 93 477 6 343 -9 c 1
 329 -43 l 1
 363 -54 387 -76 387 -117 c 0
 387 -186 305 -216 210 -221 c 1
 199 -162 l 1
 247 -157 282 -144 282 -118 c 0
 282 -101 268 -87 224 -76 c 1
 257 -10 l 1xfc
 183 -1 109 30 50 82 c 1
 135 183 l 1
 184 143 245 115 302 115 c 0
 370 115 400 139 400 178 c 0
 400 219 362 232 299 256 c 1
 215 292 l 1
 142 319 76 375 76 470 c 0
 76 578 174 664 315 664 c 0
 394 664 473 634 532 578 c 1
 457 485 l 1
 412 518 371 537 315 537 c 0
 258 537 225 515 225 478 c 0
 225 438 269 424 332 401 c 1
EndSplineSet
EndChar

StartChar: uni015F
Encoding: 351 351 359
Width: 600
Flags: MW
HStem: -221 59<208 219> -11 21G<265 265> -11 108<265 332.5> 399 109<285 342>
VStem: 84 146<345 372.5 345 399> 291 105<-131 -109.5> 394 146<126 154>
LayerCount: 2
Fore
SplineSet
527 440 m 1xda
 461 352 l 1
 416 379 368 399 316 399 c 0
 254 399 230 385 230 360 c 0
 230 330 287 315 357 297 c 0
 455 271 540 234 540 148 c 0xda
 540 69 475 6 353 -9 c 1
 338 -43 l 1
 372 -54 396 -76 396 -117 c 0
 396 -186 314 -216 219 -221 c 1
 208 -162 l 1
 256 -157 291 -144 291 -118 c 0
 291 -101 277 -87 232 -76 c 1
 265 -11 l 1xdc
 186 -4 109 27 53 64 c 1
 119 156 l 1
 176 120 233 97 299 97 c 0
 366 97 394 113 394 139 c 0xba
 394 169 341 186 261 208 c 0
 174 232 84 274 84 353 c 0
 84 445 171 508 313 508 c 0
 401 508 475 473 527 440 c 1xda
EndSplineSet
EndChar

StartChar: scaron
Encoding: 353 353 358
Width: 600
Flags: MW
HStem: -12 109<266 332.5 266 375.5> 399 109<285 342> 574 167<251 251 251 257 368 374>
VStem: 84 146<345 372.5 345 399> 394 146<126 154>
LayerCount: 2
Fore
SplineSet
53 64 m 1
 119 156 l 1
 176 120 233 97 299 97 c 0
 366 97 394 113 394 139 c 0
 394 169 341 186 261 208 c 0
 174 232 84 274 84 353 c 0
 84 445 171 508 313 508 c 0
 401 508 475 473 527 440 c 1
 461 352 l 1
 416 379 368 399 316 399 c 0
 254 399 230 385 230 360 c 0
 230 330 287 315 357 297 c 0
 455 271 540 234 540 148 c 0
 540 58 455 -12 296 -12 c 0
 207 -12 116 22 53 64 c 1
251 574 m 1
 150 741 l 1
 257 741 l 1
 310 645 l 1
 314 645 l 1
 368 741 l 1
 475 741 l 1
 374 574 l 1
 251 574 l 1
EndSplineSet
EndChar

StartChar: uni0162
Encoding: 354 354 185
Width: 600
Flags: MW
HStem: -221 59<196 207> 0 21G<226 258 226 226 344 374 344 344> 528 124<31 226 31 569 374 374 374 569>
VStem: 226 148<0 528> 278 106<-131 -109.5>
LayerCount: 2
Fore
SplineSet
374 0 m 1xf0
 344 0 l 1xf0
 326 -43 l 1
 359 -54 384 -76 384 -117 c 0
 384 -186 301 -216 207 -221 c 1
 196 -162 l 1
 243 -157 278 -144 278 -118 c 0
 278 -101 265 -87 220 -76 c 1
 258 0 l 1xe8
 226 0 l 1
 226 528 l 1
 31 528 l 1
 31 652 l 1
 569 652 l 1
 569 528 l 1
 374 528 l 1
 374 0 l 1xf0
EndSplineSet
EndChar

StartChar: uni0163
Encoding: 355 355 365
Width: 600
Flags: MW
HStem: -221 59<270 281> -11 114<414 414> -7 21G<328 328> 381 115<49 181 321 531>
VStem: 174 147<206 207 207 381> 353 105<-131 -109.5>
LayerCount: 2
Fore
SplineSet
414 -11 m 1xd8
 400 -43 l 1xdc
 434 -54 458 -76 458 -117 c 0
 458 -186 376 -216 281 -221 c 1
 270 -162 l 1
 318 -157 353 -144 353 -118 c 0
 353 -101 339 -87 294 -76 c 1
 328 -7 l 1xbc
 216 13 174 94 174 206 c 2
 174 381 l 1
 49 381 l 1
 49 490 l 1
 181 496 l 1
 200 628 l 1
 321 628 l 1
 321 496 l 1
 531 496 l 1
 531 381 l 1
 321 381 l 1
 321 207 l 2
 321 132 353 103 425 103 c 0
 463 103 495 111 524 121 c 1
 550 15 l 1
 512 4 466 -8 414 -11 c 1xd8
EndSplineSet
EndChar

StartChar: Tcaron
Encoding: 356 356 184
Width: 600
Flags: MW
HStem: 0 21G<226 226 226 374> 528 124<31 226 31 569 374 374 374 569> 702 120<228 245 355 372 228 228>
VStem: 226 148<0 528 0 528>
LayerCount: 2
Fore
SplineSet
226 0 m 1
 226 528 l 1
 31 528 l 1
 31 652 l 1
 569 652 l 1
 569 528 l 1
 374 528 l 1
 374 0 l 1
 226 0 l 1
355 822 m 1
 468 822 l 1
 372 702 l 1
 228 702 l 1
 132 822 l 1
 245 822 l 1
 298 761 l 1
 302 761 l 1
 355 822 l 1
EndSplineSet
EndChar

StartChar: tcaron
Encoding: 357 357 364
Width: 600
GlyphClass: 3
Flags: MW
HStem: -12 115<389 420> 381 115<49 181 321 531> 548 80<200 453 200 390>
VStem: 174 147<206 207 207 381> 387.5 90.5
LayerCount: 2
Fore
SplineSet
174 206 m 2
 174 381 l 1
 49 381 l 1
 49 490 l 1
 181 496 l 1
 200 628 l 1
 321 628 l 1
 321 496 l 1
 531 496 l 1
 531 381 l 1
 321 381 l 1
 321 207 l 2
 321 132 353 103 425 103 c 0
 463 103 495 111 524 121 c 1
 550 15 l 1
 506 2 452 -12 388 -12 c 0
 230 -12 174 76 174 206 c 2
453 548 m 1
 390 548 l 1
 385 770 l 1
 479 770 l 1
 477 701 l 1
 453 548 l 1
EndSplineSet
Ligature2: "'ccmp' Glyph Composition/Decomposition in Latin lookup 6 subtable" t uni030C
EndChar

StartChar: Utilde
Encoding: 360 360 192
Width: 600
Flags: MW
HStem: -12 127<271 333 271 381> 632 20G<64 211 211 211 394 536 536 536> 703 136<130 264 130 264 211 389>
VStem: 64 147<251 652> 130 75<703 703> 394 142<236 251 251 652> 395 75<839 839>
LayerCount: 2
Fore
SplineSet
64 251 m 2xf4
 64 652 l 1
 211 652 l 1
 211 236 l 2
 211 158 240 115 302 115 c 0
 364 115 394 158 394 236 c 2
 394 652 l 1
 536 652 l 1
 536 251 l 2
 536 82 460 -12 302 -12 c 0
 143 -12 64 82 64 251 c 2xf4
363 703 m 0
 309 703 274 748 243 748 c 0
 226 748 212 736 205 703 c 1xec
 130 703 l 1
 140 794 185 839 237 839 c 0
 291 839 326 794 357 794 c 0
 374 794 388 806 395 839 c 1
 470 839 l 1xf2
 460 748 415 703 363 703 c 0
EndSplineSet
EndChar

StartChar: utilde
Encoding: 361 361 373
Width: 600
Flags: MW
HStem: -12 125<253.5 258.5> 0 21G<405 525 405 405> 476 20G<62 209 209 209 378 525 525 525> 575 91<334.5 359 334.5 380.5> 575 143<125 266 125 266 211.5 380.5>
VStem: 62 147<190 209 209 496> 378 147<170 496 0 496>
LayerCount: 2
Fore
SplineSet
525 496 m 1x6e
 525 0 l 1
 405 0 l 1x6e
 394 71 l 1
 390 71 l 1
 346 21 294 -12 223 -12 c 0
 110 -12 62 65 62 190 c 2
 62 496 l 1
 209 496 l 1
 209 209 l 2
 209 143 226 113 281 113 c 0
 318 113 344 126 378 170 c 1xae
 378 496 l 1
 525 496 l 1x6e
125 575 m 1
 137 672 181 718 242 718 c 0x6e
 290 718 321 666 348 666 c 0x76
 370 666 382 679 391 718 c 1
 466 718 l 1x6e
 454 622 411 575 350 575 c 0x76
 300 575 271 628 243 628 c 0
 222 628 209 615 200 575 c 1
 125 575 l 1
EndSplineSet
EndChar

StartChar: Ubreve
Encoding: 364 364 195
Width: 600
Flags: MW
HStem: -12 127<271 333 271 381> 632 20G<64 211 211 211 394 536 536 536> 702 120<163 343.5>
VStem: 64 147<251 652> 394 142<236 251 251 652>
LayerCount: 2
Fore
SplineSet
64 251 m 2
 64 652 l 1
 211 652 l 1
 211 236 l 2
 211 158 240 115 302 115 c 0
 364 115 394 158 394 236 c 2
 394 652 l 1
 536 652 l 1
 536 251 l 2
 536 82 460 -12 302 -12 c 0
 143 -12 64 82 64 251 c 2
300 702 m 0
 213 702 171 751 163 822 c 1
 244 822 l 1
 250 796 266 776 300 776 c 0
 334 776 350 796 356 822 c 1
 437 822 l 1
 429 751 387 702 300 702 c 0
EndSplineSet
EndChar

StartChar: ubreve
Encoding: 365 365 376
Width: 600
Flags: MW
HStem: -12 125<253.5 258.5> 0 21G<405 525 405 405> 476 20G<62 209 209 209 378 525 525 525> 574 81<275.5 316 275.5 345.5>
VStem: 62 147<190 209 209 496> 148 82<730 730> 361 82<730 730> 378 147<170 496 0 496>
LayerCount: 2
Fore
SplineSet
525 496 m 1x79
 525 0 l 1
 405 0 l 1x75
 394 71 l 1
 390 71 l 1
 346 21 294 -12 223 -12 c 0
 110 -12 62 65 62 190 c 2
 62 496 l 1
 209 496 l 1
 209 209 l 2
 209 143 226 113 281 113 c 0
 318 113 344 126 378 170 c 1xb9
 378 496 l 1
 525 496 l 1x79
296 574 m 0
 197 574 151 649 148 730 c 1
 230 730 l 1
 236 688 255 655 296 655 c 0
 336 655 356 688 361 730 c 1
 443 730 l 1x76
 440 649 395 574 296 574 c 0
EndSplineSet
EndChar

StartChar: Uring
Encoding: 366 366 196
Width: 600
Flags: MW
HStem: -12 127<271 333 271 381> 632 20G<64 211 211 211 394 536 536 536> 697 55<288.5 311 288.5 333.5> 838 55<288.5 311>
VStem: 64 147<251 652> 187 72<781.5 808 781.5 824.5> 340 73<781.5 808> 394 142<236 251 251 652>
LayerCount: 2
Fore
SplineSet
64 251 m 2xf9
 64 652 l 1
 211 652 l 1
 211 236 l 2
 211 158 240 115 302 115 c 0
 364 115 394 158 394 236 c 2
 394 652 l 1
 536 652 l 1
 536 251 l 2
 536 82 460 -12 302 -12 c 0
 143 -12 64 82 64 251 c 2xf9
300 697 m 0xf6
 233 697 187 735 187 795 c 0
 187 854 233 893 300 893 c 0
 367 893 413 854 413 795 c 0
 413 735 367 697 300 697 c 0xf6
300 752 m 0
 322 752 340 768 340 795 c 0
 340 821 322 838 300 838 c 0
 277 838 259 821 259 795 c 0
 259 768 277 752 300 752 c 0
EndSplineSet
EndChar

StartChar: uring
Encoding: 367 367 377
Width: 600
Flags: MW
HStem: -12 125<253.5 258.5> 0 21G<405 525 405 405> 476 20G<62 209 209 209 378 525 525 525> 548 55<284.5 307 284.5 329.5> 697 55<284.5 307>
VStem: 62 147<190 209 209 496> 183 72<636 664 636 681> 336 72<636 664> 378 147<170 496 0 496>
LayerCount: 2
Fore
SplineSet
525 496 m 1x7c80
 525 0 l 1
 405 0 l 1x7a80
 394 71 l 1
 390 71 l 1
 346 21 294 -12 223 -12 c 0
 110 -12 62 65 62 190 c 2
 62 496 l 1
 209 496 l 1
 209 209 l 2
 209 143 226 113 281 113 c 0
 318 113 344 126 378 170 c 1xbc80
 378 496 l 1
 525 496 l 1x7c80
296 548 m 0
 229 548 183 588 183 650 c 0
 183 712 229 752 296 752 c 0
 363 752 408 712 408 650 c 0x7b
 408 588 363 548 296 548 c 0
296 603 m 0x7b
 318 603 336 622 336 650 c 0
 336 678 318 697 296 697 c 0
 273 697 255 678 255 650 c 0
 255 622 273 603 296 603 c 0x7b
EndSplineSet
EndChar

StartChar: Uhungarumlaut
Encoding: 368 368 197
Width: 600
Flags: MW
HStem: -12 127<271 333 271 381> 632 20G<64 211 211 211 394 536 536 536> 702 120<226 262 163 351 342 351 406 441 342 342>
VStem: 64 147<251 652> 394 142<236 251 251 652>
LayerCount: 2
Fore
SplineSet
64 251 m 2
 64 652 l 1
 211 652 l 1
 211 236 l 2
 211 158 240 115 302 115 c 0
 364 115 394 158 394 236 c 2
 394 652 l 1
 536 652 l 1
 536 251 l 2
 536 82 460 -12 302 -12 c 0
 143 -12 64 82 64 251 c 2
262 702 m 1
 163 702 l 1
 226 822 l 1
 351 822 l 1
 262 702 l 1
342 702 m 1
 406 822 l 1
 531 822 l 1
 441 702 l 1
 342 702 l 1
EndSplineSet
EndChar

StartChar: Uogonek
Encoding: 370 370 205
Width: 600
GlyphClass: 2
Flags: MW
HStem: -223 95<293 366.5> -10 21G -10 125 632 20G<64 211 211 211 394 536 536 536>
VStem: 64 147<251 652> 210 108<-103 -98> 394 142<236 251 251 652>
AnchorPoint: "Anchor-0" 300 674 basechar 0
LayerCount: 2
Fore
SplineSet
64 251 m 2xda
 64 652 l 1
 211 652 l 1
 211 236 l 2xba
 211 158 240 115 301 115 c 0
 363 115 394 158 394 236 c 2
 394 652 l 1
 536 652 l 1
 536 251 l 2
 536 127 494 48 412 9 c 0
 335 -28 318 -62 318 -90 c 0
 318 -116 339 -128 360 -128 c 0
 373 -128 386 -121 395 -114 c 1
 429 -188 l 1
 404 -208 360 -223 325 -223 c 0
 261 -223 210 -189 210 -129 c 0xb6
 210 -67 257 -27 274 -10 c 1
 133 -1 64 94 64 251 c 2xda
EndSplineSet
Ligature2: "'ccmp' Glyph Composition/Decomposition in Latin lookup 6 subtable" U uni0328
EndChar

StartChar: uogonek
Encoding: 371 371 386
Width: 600
GlyphClass: 2
Flags: MW
HStem: -210 87<414.5 485.5> -12 125<253.5 258.5> -2 21G<406 406> 0 21G<525 525> 476 20G<62 209 209 209 378 525 525 525>
VStem: 62 147<190 209 209 496> 338 99<-98 -89.5> 378 147<170 496 0 496>
AnchorPoint: "Anchor-0" 296 518 basechar 0
LayerCount: 2
Fore
SplineSet
525 496 m 1x9d
 525 0 l 1x9d
 459 -20 437 -55 437 -85 c 0
 437 -111 458 -123 479 -123 c 0
 492 -123 505 -117 514 -111 c 1
 545 -177 l 1
 519 -197 475 -210 444 -210 c 0
 385 -210 338 -179 338 -119 c 0
 338 -60 380 -20 406 -2 c 1xae
 394 71 l 1
 390 71 l 1xce
 346 21 294 -12 223 -12 c 0
 110 -12 62 65 62 190 c 2
 62 496 l 1
 209 496 l 1
 209 209 l 2
 209 143 226 113 281 113 c 0
 318 113 344 126 378 170 c 1xcd
 378 496 l 1
 525 496 l 1x9d
EndSplineSet
Ligature2: "'ccmp' Glyph Composition/Decomposition in Latin lookup 6 subtable" u uni0328
EndChar

StartChar: wcircumflex
Encoding: 373 373 395
Width: 600
Flags: MW
HStem: 0 119<86 198 195 198 195 253 412 416> 311 119<298 302 298 298> 476 20G<4 148 148 148 462 596 596 596> 574 167<138 363 239 246 356 356 356 363 239 463>
VStem: 4 592<496 496>
LayerCount: 2
Fore
SplineSet
86 0 m 1
 4 496 l 1
 148 496 l 1
 178 266 l 2
 185 217 188 169 195 119 c 1
 198 119 l 1
 204 169 211 219 221 266 c 1
 252 430 l 1
 355 430 l 1
 388 266 l 2
 397 217 405 169 412 119 c 1
 416 119 l 1
 423 169 425 217 432 266 c 2
 462 496 l 1
 596 496 l 1
 519 0 l 1
 349 0 l 1
 321 165 l 2
 314 211 308 258 302 311 c 1
 298 311 l 1
 294 275 290 233 280 165 c 1
 253 0 l 1
 86 0 l 1
138 574 m 1
 239 741 l 1
 363 741 l 1
 463 574 l 1
 356 574 l 1
 303 669 l 1
 299 669 l 1
 246 574 l 1
 138 574 l 1
EndSplineSet
EndChar

StartChar: Ycircumflex
Encoding: 374 374 218
Width: 600
Flags: MW
HStem: 0 21G<226 226 226 374> 632 20G<16 174 174 174 430 584 584 584> 702 120<228 245 132 372 355 355 355 372 228 468>
VStem: 226 148<0 220 0 220>
LayerCount: 2
Fore
SplineSet
226 0 m 1
 226 220 l 1
 16 652 l 1
 174 652 l 1
 240 495 l 1
 259 445 279 398 299 346 c 1
 303 346 l 1
 324 398 344 445 364 495 c 2
 430 652 l 1
 584 652 l 1
 374 220 l 1
 374 0 l 1
 226 0 l 1
245 702 m 1
 132 702 l 1
 228 822 l 1
 372 822 l 1
 468 702 l 1
 355 702 l 1
 302 763 l 1
 298 763 l 1
 245 702 l 1
EndSplineSet
EndChar

StartChar: ycircumflex
Encoding: 375 375 399
Width: 600
Flags: MW
HStem: -194 116<128.5 160.5 125.5 205.5> -184 21G<67 67> 476 20G<31 177 177 177 432 571 571 571> 574 167<145 369 245 252 362 362 362 369 245 469>
VStem: 31 540<496 496>
LayerCount: 2
Fore
SplineSet
93 -72 m 1xb8
 106 -76 119 -78 132 -78 c 0
 189 -78 220 -52 236 -13 c 2
 246 13 l 1
 31 496 l 1
 177 496 l 1
 260 283 l 2
 278 236 294 186 310 134 c 1
 314 134 l 1
 327 183 344 234 359 283 c 1
 432 496 l 1
 571 496 l 1
 375 -5 l 2
 327 -130 268 -194 143 -194 c 0xb8
 114 -194 88 -190 67 -184 c 1x78
 93 -72 l 1xb8
145 574 m 1
 245 741 l 1
 369 741 l 1
 469 574 l 1
 362 574 l 1
 309 669 l 1
 305 669 l 1
 252 574 l 1
 145 574 l 1
EndSplineSet
EndChar

StartChar: Ydieresis
Encoding: 376 376 219
Width: 600
Flags: MW
HStem: 0 21G<226 226 226 374> 632 20G<16 174 174 174 430 584 584 584> 700 140<180.5 221.5 378.5 419.5>
VStem: 131 140<750 790> 226 148<0 220 0 220> 329 140<750 790>
LayerCount: 2
Fore
SplineSet
226 0 m 1xe8
 226 220 l 1
 16 652 l 1
 174 652 l 1
 240 495 l 1
 259 445 279 398 299 346 c 1
 303 346 l 1
 324 398 344 445 364 495 c 2
 430 652 l 1
 584 652 l 1
 374 220 l 1
 374 0 l 1
 226 0 l 1xe8
201 700 m 0xf4
 160 700 131 730 131 770 c 0
 131 810 160 840 201 840 c 0
 242 840 271 810 271 770 c 0
 271 730 242 700 201 700 c 0xf4
399 700 m 0
 358 700 329 730 329 770 c 0
 329 810 358 840 399 840 c 0
 440 840 469 810 469 770 c 0
 469 730 440 700 399 700 c 0
EndSplineSet
EndChar

StartChar: Zacute
Encoding: 377 377 224
Width: 600
Flags: MW
HStem: 0 124<238 547 238 547> 529 123<85 362 85 543> 702 120<320 357 240 476>
VStem: 56 491<0 89 89 89>
LayerCount: 2
Fore
SplineSet
56 0 m 1
 56 89 l 1
 362 529 l 1
 85 529 l 1
 85 652 l 1
 543 652 l 1
 543 563 l 1
 238 124 l 1
 547 124 l 1
 547 0 l 1
 56 0 l 1
476 822 m 1
 357 702 l 1
 240 702 l 1
 320 822 l 1
 476 822 l 1
EndSplineSet
EndChar

StartChar: zacute
Encoding: 378 378 405
Width: 600
Flags: MW
HStem: 0 115<273 541 273 541> 381 115<102 330 102 533> 574 167<330 348 241 480>
VStem: 70 471<0 79 79 79>
LayerCount: 2
Fore
SplineSet
70 0 m 1
 70 79 l 1
 330 381 l 1
 102 381 l 1
 102 496 l 1
 533 496 l 1
 533 418 l 1
 273 115 l 1
 541 115 l 1
 541 0 l 1
 70 0 l 1
480 741 m 1
 348 574 l 1
 241 574 l 1
 330 741 l 1
 480 741 l 1
EndSplineSet
EndChar

StartChar: Zdotaccent
Encoding: 379 379 226
Width: 600
Flags: MW
HStem: 0 124<238 547 238 547> 529 123<85 362 85 543> 701 154<289.5 339>
VStem: 229 170<755.5 800.5>
LayerCount: 2
Fore
SplineSet
56 0 m 1
 56 89 l 1
 362 529 l 1
 85 529 l 1
 85 652 l 1
 543 652 l 1
 543 563 l 1
 238 124 l 1
 547 124 l 1
 547 0 l 1
 56 0 l 1
314 701 m 0
 265 701 229 733 229 778 c 0
 229 823 265 855 314 855 c 0
 364 855 399 823 399 778 c 0
 399 733 364 701 314 701 c 0
EndSplineSet
EndChar

StartChar: zdotaccent
Encoding: 380 380 407
Width: 600
Flags: MW
HStem: 0 115<273 541 273 541> 381 115<102 330 102 533> 569 181<294.5 351.5>
VStem: 70 471<0 79 79 79> 225 196<631 685>
LayerCount: 2
Fore
SplineSet
70 0 m 1xd0
 70 79 l 1
 330 381 l 1
 102 381 l 1
 102 496 l 1
 533 496 l 1
 533 418 l 1
 273 115 l 1
 541 115 l 1
 541 0 l 1
 70 0 l 1xd0
323 569 m 0xe8
 266 569 225 604 225 658 c 0
 225 712 266 750 323 750 c 0
 380 750 421 712 421 658 c 0
 421 604 380 569 323 569 c 0xe8
EndSplineSet
EndChar

StartChar: zcaron
Encoding: 382 382 406
Width: 600
Flags: MW
HStem: 0 115<273 541 273 541> 381 115<102 330 102 533> 574 167<261 261 261 268 378 385>
VStem: 70 471<0 79 79 79>
LayerCount: 2
Fore
SplineSet
70 0 m 1
 70 79 l 1
 330 381 l 1
 102 381 l 1
 102 496 l 1
 533 496 l 1
 533 418 l 1
 273 115 l 1
 541 115 l 1
 541 0 l 1
 70 0 l 1
261 574 m 1
 161 741 l 1
 268 741 l 1
 321 645 l 1
 325 645 l 1
 378 741 l 1
 485 741 l 1
 385 574 l 1
 261 574 l 1
EndSplineSet
EndChar

StartChar: uni0180
Encoding: 384 384 254
Width: 600
Flags: MW
HStem: -12 120<315 332 292 393.5> 0 21G<72 187 72 72> 368 120<329 342> 556 67.5 556 71<219 401 219 401> 556 145<6 219 6 219 72 219 72 401>
VStem: 72 147<141 322 509 556 627 701> 402 151<196 285>
LayerCount: 2
Fore
SplineSet
219 322 m 1x67
 219 141 l 1
 247 117 279 108 305 108 c 0xa7
 359 108 402 148 402 244 c 0
 402 326 373 368 311 368 c 0
 279 368 250 354 219 322 c 1x67
219 509 m 1
 215 431 l 1
 254 467 305 488 353 488 c 0
 477 488 553 393 553 247 c 0
 553 82 449 -12 338 -12 c 0
 292 -12 244 11 203 54 c 1
 199 54 l 1xa7
 187 0 l 1
 72 0 l 1
 72 556 l 1
 6 556 l 1x67
 6 621 l 1
 72 626 l 1x73
 72 701 l 1
 219 701 l 1x67
 219 627 l 1
 401 627 l 1x6b
 401 556 l 1
 219 556 l 1
 219 509 l 1
EndSplineSet
EndChar

StartChar: uni018F
Encoding: 399 399 230
Width: 600
GlyphClass: 2
Flags: MW
HStem: -12 125<280.5 334 280.5 382.5> 263.5 107.5 539 125<271 330>
VStem: 58 150<263 263 263 330.5> 411 149<264 264>
AnchorPoint: "Anchor-2" 329 -22 basechar 0
AnchorPoint: "Anchor-0" 319 674 basechar 0
LayerCount: 2
Fore
SplineSet
411 264 m 1
 208 263 l 1
 215 164 253 113 308 113 c 0
 360 113 399 165 411 264 c 1
189 490 m 1
 124 591 l 1
 169 633 228 664 312 664 c 0
 459 664 560 540 560 327 c 0
 560 114 457 -12 308 -12 c 0
 159 -12 58 112 58 323 c 0
 58 338 59 354 61 371 c 1
 413 371 l 1
 405 481 366 539 294 539 c 0
 248 539 215 516 189 490 c 1
EndSplineSet
EndChar

StartChar: uni0192
Encoding: 402 402 635
Width: 600
Flags: MW
HStem: -96 115 307 107<212 224 137 236 376 491> 547 117<440.5 468 385 477.5> 625 20G<550 550>
VStem: 46 504 238.5 141
LayerCount: 2
Fore
SplineSet
550 645 m 1xd8
 522 535 l 1
 507 541 489 547 466 547 c 0
 415 547 391 515 383 469 c 1
 376 414 l 1
 491 414 l 1
 491 307 l 1
 364 307 l 1
 341 118 l 2
 326 -1 285 -96 142 -96 c 0
 98 -96 63 -89 46 -80 c 1
 66 28 l 1
 83 23 102 20 120 19 c 1
 174 21 191 47 207 161 c 1
 224 307 l 1
 137 307 l 1
 137 408 l 1
 212 414 l 1
 236 414 l 1
 241 457 l 1xe4
 263 603 316 664 454 664 c 0xe8
 482 664 529 655 550 645 c 1xd8
EndSplineSet
EndChar

StartChar: Ohorn
Encoding: 416 416 163
Width: 600
GlyphClass: 2
Flags: MW
HStem: -12 127<266 334 266 377.5> 537 127<266 322.5 222.5 334>
VStem: 38 151<263.5 394 263.5 435.5> 411 151<263.5 383.5 222.5 394> 481 114<674.5 703>
AnchorPoint: "Anchor-2" 300 -22 basechar 0
AnchorPoint: "Anchor-0" 300 674 basechar 0
LayerCount: 2
Fore
SplineSet
300 115 m 0xf0
 368 115 411 198 411 329 c 0
 411 459 368 537 300 537 c 0
 232 537 189 459 189 329 c 0
 189 198 232 115 300 115 c 0xf0
466 740 m 1xe8
 566 784 l 1
 581 766 595 737 595 704 c 0xe8
 595 636 549 597 485 581 c 1
 533 524 562 438 562 329 c 0xf0
 562 116 455 -12 300 -12 c 0
 145 -12 38 116 38 329 c 0
 38 542 145 664 300 664 c 0
 345 664 386 653 422 633 c 1
 458 641 481 655 481 694 c 0
 481 712 473 728 466 740 c 1xe8
EndSplineSet
EndChar

StartChar: ohorn
Encoding: 417 417 343
Width: 600
GlyphClass: 2
Flags: MW
HStem: -12 119<266 334 266 365.5> 389 119<266 318 234.5 334>
VStem: 47 151<205 291 205 330.5> 402 151<205 288.5 165.5 291> 471 114<527.5 557>
AnchorPoint: "Anchor-2" 300 -22 basechar 0
AnchorPoint: "Anchor-0" 300 518 basechar 0
LayerCount: 2
Fore
SplineSet
300 107 m 0xf0
 368 107 402 162 402 248 c 0
 402 334 368 389 300 389 c 0
 232 389 198 334 198 248 c 0
 198 162 232 107 300 107 c 0xf0
455 594 m 1xe8
 555 638 l 1
 570 620 585 591 585 558 c 0xe8
 585 491 540 453 479 437 c 1
 524 393 553 329 553 248 c 0xf0
 553 83 431 -12 300 -12 c 0
 169 -12 47 83 47 248 c 0
 47 413 169 508 300 508 c 0
 336 508 372 501 405 486 c 1
 445 494 471 507 471 548 c 0
 471 566 463 583 455 594 c 1xe8
EndSplineSet
EndChar

StartChar: Uhorn
Encoding: 431 431 206
Width: 600
GlyphClass: 2
Flags: MW
HStem: -12 127<271 333 271 381> 632 20G<64 211 211 211 394 464 464 464>
VStem: 64 147<251 652> 394 142<236 251 251 598> 546 114<688 723>
AnchorPoint: "Anchor-2" 300 -22 basechar 0
AnchorPoint: "Anchor-0" 300 674 basechar 0
LayerCount: 2
Fore
SplineSet
531 760 m 1
 631 804 l 1
 646 786 660 757 660 724 c 0xf8
 660 649 606 611 536 598 c 1
 536 251 l 2
 536 82 460 -12 302 -12 c 0
 143 -12 64 82 64 251 c 2
 64 652 l 1
 211 652 l 1
 211 236 l 2
 211 158 240 115 302 115 c 0
 364 115 394 158 394 236 c 2
 394 652 l 1xf0
 464 652 l 1
 504 654 546 662 546 714 c 0
 546 732 538 748 531 760 c 1
EndSplineSet
EndChar

StartChar: uni01CD
Encoding: 461 461 62
Width: 600
Flags: MW
HStem: 0 21G<9 159 9 9 435 591 435 435> 155 115<229 366 229 396 199 366> 540 112<295 299 295 295> 702 120<228 245 355 372 228 228>
VStem: 9 582<0 0>
LayerCount: 2
Fore
SplineSet
372 702 m 1
 228 702 l 1
 132 822 l 1
 245 822 l 1
 298 761 l 1
 302 761 l 1
 355 822 l 1
 468 822 l 1
 372 702 l 1
229 270 m 1
 366 270 l 1
 351 330 l 2
 334 395 316 472 299 540 c 1
 295 540 l 1
 279 471 261 395 244 330 c 2
 229 270 l 1
435 0 m 1
 396 155 l 1
 199 155 l 1
 159 0 l 1
 9 0 l 1
 212 652 l 1
 388 652 l 1
 591 0 l 1
 435 0 l 1
EndSplineSet
EndChar

StartChar: uni01CF
Encoding: 463 463 123
Width: 600
Flags: MW
HStem: 0 124<74 226 74 226 374 526> 528 124<74 226 74 526 374 374 374 526> 702 120<228 245 355 372 228 228>
VStem: 226 148<124 528 124 528>
LayerCount: 2
Fore
SplineSet
74 0 m 1
 74 124 l 1
 226 124 l 1
 226 528 l 1
 74 528 l 1
 74 652 l 1
 526 652 l 1
 526 528 l 1
 374 528 l 1
 374 124 l 1
 526 124 l 1
 526 0 l 1
 74 0 l 1
355 822 m 1
 468 822 l 1
 372 702 l 1
 228 702 l 1
 132 822 l 1
 245 822 l 1
 298 761 l 1
 302 761 l 1
 355 822 l 1
EndSplineSet
EndChar

StartChar: uni01D0
Encoding: 464 464 299
Width: 600
Flags: MW
HStem: 0 21G<278 425 278 278> 381 115<79 425 79 278> 574 167<283 283 283 290 400 407>
VStem: 278 147<0 381 381 381>
LayerCount: 2
Fore
SplineSet
79 381 m 1
 79 496 l 1
 425 496 l 1
 425 0 l 1
 278 0 l 1
 278 381 l 1
 79 381 l 1
283 574 m 1
 183 741 l 1
 290 741 l 1
 343 645 l 1
 347 645 l 1
 400 741 l 1
 507 741 l 1
 407 574 l 1
 283 574 l 1
EndSplineSet
EndChar

StartChar: uni01D1
Encoding: 465 465 153
Width: 600
Flags: MW
HStem: -12 127<266 334 266 377.5> 537 127<266 334> 702 120<228 245 355 372 228 228>
VStem: 38 151<263.5 394 263.5 435.5> 411 151<263.5 394>
LayerCount: 2
Fore
SplineSet
300 -12 m 0
 145 -12 38 116 38 329 c 0
 38 542 145 664 300 664 c 0
 455 664 562 541 562 329 c 0
 562 116 455 -12 300 -12 c 0
300 115 m 0
 368 115 411 198 411 329 c 0
 411 459 368 537 300 537 c 0
 232 537 189 459 189 329 c 0
 189 198 232 115 300 115 c 0
355 822 m 1
 468 822 l 1
 372 702 l 1
 228 702 l 1
 132 822 l 1
 245 822 l 1
 298 761 l 1
 302 761 l 1
 355 822 l 1
EndSplineSet
EndChar

StartChar: uni01D2
Encoding: 466 466 333
Width: 600
Flags: MW
HStem: -12 119<266 334 266 365.5> 389 119<266 334> 574 167<238 238 238 245 355 362>
VStem: 47 151<205 291 205 330.5> 402 151<205 291>
LayerCount: 2
Fore
SplineSet
47 248 m 0
 47 413 169 508 300 508 c 0
 431 508 553 413 553 248 c 0
 553 83 431 -12 300 -12 c 0
 169 -12 47 83 47 248 c 0
198 248 m 0
 198 162 232 107 300 107 c 0
 368 107 402 162 402 248 c 0
 402 334 368 389 300 389 c 0
 232 389 198 334 198 248 c 0
238 574 m 1
 138 741 l 1
 245 741 l 1
 298 645 l 1
 302 645 l 1
 355 741 l 1
 462 741 l 1
 362 574 l 1
 238 574 l 1
EndSplineSet
EndChar

StartChar: uni01D3
Encoding: 467 467 198
Width: 600
Flags: MW
HStem: -12 127<271 333 271 381> 632 20G<64 211 211 211 394 536 536 536> 702 120<228 245 355 372 228 228>
VStem: 64 147<251 652> 394 142<236 251 251 652>
LayerCount: 2
Fore
SplineSet
64 251 m 2
 64 652 l 1
 211 652 l 1
 211 236 l 2
 211 158 240 115 302 115 c 0
 364 115 394 158 394 236 c 2
 394 652 l 1
 536 652 l 1
 536 251 l 2
 536 82 460 -12 302 -12 c 0
 143 -12 64 82 64 251 c 2
355 822 m 1
 468 822 l 1
 372 702 l 1
 228 702 l 1
 132 822 l 1
 245 822 l 1
 298 761 l 1
 302 761 l 1
 355 822 l 1
EndSplineSet
EndChar

StartChar: uni01D6
Encoding: 470 470 380
Width: 600
Flags: MW
HStem: -12 125<253.5 258.5> 0 21G<405 525 405 405> 476 20G<62 209 209 209 378 525 525 525> 571 123<178.5 215 377 413> 756 69<157 434 157 434>
VStem: 62 147<190 209 209 496> 135 123<615 649.5> 157 277<756 825 756 825> 333 123<615 649.5> 378 147<170 496 0 496>
LayerCount: 2
Fore
SplineSet
525 496 m 1x7c40
 525 0 l 1
 405 0 l 1x7a40
 394 71 l 1
 390 71 l 1
 346 21 294 -12 223 -12 c 0
 110 -12 62 65 62 190 c 2
 62 496 l 1
 209 496 l 1
 209 209 l 2
 209 143 226 113 281 113 c 0
 318 113 344 126 378 170 c 1xbc40
 378 496 l 1
 525 496 l 1x7c40
197 571 m 0
 160 571 135 598 135 632 c 0
 135 667 160 694 197 694 c 0
 233 694 258 667 258 632 c 0
 258 598 233 571 197 571 c 0
395 571 m 0x7c80
 359 571 333 598 333 632 c 0
 333 667 359 694 395 694 c 0
 431 694 456 667 456 632 c 0
 456 598 431 571 395 571 c 0x7c80
157 756 m 1x79
 157 825 l 1
 434 825 l 1
 434 756 l 1
 157 756 l 1x79
EndSplineSet
EndChar

StartChar: uni01D7
Encoding: 471 471 200
Width: 600
Flags: MW
HStem: -12 127<271 333 271 381> 632 20G<64 211 211 211 394 536 536 536> 700 123<183 219 381 417> 854 120<225 460 306 342>
VStem: 64 147<251 652> 139 124<744.5 779> 337 124<744.5 779> 394 142<236 251 251 652>
LayerCount: 2
Fore
SplineSet
64 251 m 2xf9
 64 652 l 1
 211 652 l 1
 211 236 l 2
 211 158 240 115 302 115 c 0
 364 115 394 158 394 236 c 2
 394 652 l 1
 536 652 l 1
 536 251 l 2
 536 82 460 -12 302 -12 c 0
 143 -12 64 82 64 251 c 2xf9
225 854 m 1
 306 974 l 1
 460 974 l 1
 342 854 l 1
 225 854 l 1
201 700 m 0
 165 700 139 727 139 762 c 0xf9
 139 796 165 823 201 823 c 0
 237 823 263 796 263 762 c 0xf5
 263 727 237 700 201 700 c 0
399 700 m 0
 363 700 337 727 337 762 c 0xfa
 337 796 363 823 399 823 c 0
 435 823 461 796 461 762 c 0
 461 727 435 700 399 700 c 0
EndSplineSet
EndChar

StartChar: uni01DA
Encoding: 474 474 382
Width: 600
Flags: MW
HStem: -12 125<253.5 258.5> 0 21G<405 525 405 405> 476 20G<62 209 209 209 378 525 525 525> 571 123<178.5 215 377 413> 737 111<234 234 234 247 344 357>
VStem: 62 147<190 209 209 496> 135 123<615 649.5> 333 123<615 649.5> 378 147<170 496 0 496>
LayerCount: 2
Fore
SplineSet
525 496 m 1x7c80
 525 0 l 1
 405 0 l 1x7a80
 394 71 l 1
 390 71 l 1
 346 21 294 -12 223 -12 c 0
 110 -12 62 65 62 190 c 2
 62 496 l 1
 209 496 l 1
 209 209 l 2
 209 143 226 113 281 113 c 0
 318 113 344 126 378 170 c 1xbc80
 378 496 l 1
 525 496 l 1x7c80
234 737 m 1
 148 848 l 1
 247 848 l 1
 294 790 l 1
 298 790 l 1
 344 848 l 1
 443 848 l 1
 357 737 l 1
 234 737 l 1
197 571 m 0
 160 571 135 598 135 632 c 0
 135 667 160 694 197 694 c 0
 233 694 258 667 258 632 c 0
 258 598 233 571 197 571 c 0
395 571 m 0x7d
 359 571 333 598 333 632 c 0
 333 667 359 694 395 694 c 0
 431 694 456 667 456 632 c 0
 456 598 431 571 395 571 c 0x7d
EndSplineSet
EndChar

StartChar: uni01DC
Encoding: 476 476 383
Width: 600
Flags: MW
HStem: -12 125<253.5 258.5> 0 21G<405 525 405 405> 476 20G<62 209 209 209 378 525 525 525> 571 123<178.5 215 377 413> 737 111<270 280 154 364 270 270>
VStem: 62 147<190 209 209 496> 135 123<615 649.5> 333 123<615 649.5> 378 147<170 496 0 496>
LayerCount: 2
Fore
SplineSet
525 496 m 1x7c80
 525 0 l 1
 405 0 l 1x7c80
 394 71 l 1
 390 71 l 1
 346 21 294 -12 223 -12 c 0
 110 -12 62 65 62 190 c 2
 62 496 l 1
 209 496 l 1
 209 209 l 2
 209 143 226 113 281 113 c 0
 318 113 344 126 378 170 c 1xbc80
 378 496 l 1
 525 496 l 1x7c80
280 848 m 1
 364 737 l 1
 270 737 l 1
 154 848 l 1
 280 848 l 1
395 571 m 0x7b
 359 571 333 598 333 632 c 0
 333 667 359 694 395 694 c 0
 431 694 456 667 456 632 c 0
 456 598 431 571 395 571 c 0x7b
197 571 m 0
 160 571 135 598 135 632 c 0
 135 667 160 694 197 694 c 0
 233 694 258 667 258 632 c 0
 258 598 233 571 197 571 c 0
EndSplineSet
EndChar

StartChar: Gcaron
Encoding: 486 486 108
Width: 600
Flags: MW
HStem: -12 127<299.5 363.5 299.5 384.5> 247 120<320 415 320 547> 537 127<302.5 371> 702 120<259 275 386 402 259 259>
VStem: 44 152<260 392.5 260 431> 415 132<135 247 247 247>
LayerCount: 2
Fore
SplineSet
44 322 m 0
 44 540 176 664 345 664 c 0
 433 664 494 623 536 581 c 1
 455 490 l 1
 427 518 397 537 345 537 c 0
 260 537 196 458 196 327 c 0
 196 193 248 115 351 115 c 0
 376 115 401 122 415 135 c 1
 415 247 l 1
 320 247 l 1
 320 367 l 1
 547 367 l 1
 547 67 l 1
 503 26 426 -12 343 -12 c 0
 176 -12 44 103 44 322 c 0
386 822 m 1
 498 822 l 1
 402 702 l 1
 259 702 l 1
 163 822 l 1
 275 822 l 1
 328 761 l 1
 332 761 l 1
 386 822 l 1
EndSplineSet
EndChar

StartChar: uni01EA
Encoding: 490 490 169
Width: 600
GlyphClass: 2
Flags: MW
HStem: -223 95<294 367.5> -10 21G 537 127<266 334>
VStem: 38 151<263.5 394 263.5 435.5> 211 107<-159 -74.5> 411 151<263.5 394>
AnchorPoint: "Anchor-0" 300 674 basechar 0
LayerCount: 2
Fore
SplineSet
396 -114 m 1
 430 -188 l 1
 405 -208 360 -223 326 -223 c 0
 262 -223 211 -189 211 -129 c 0xfc
 211 -77 244 -36 274 -10 c 1
 113 7 38 156 38 329 c 0xf4
 38 542 145 664 300 664 c 0
 455 664 562 541 562 329 c 0
 562 151 492 49 388 3 c 0
 337 -19 318 -59 318 -90 c 0
 318 -116 339 -128 361 -128 c 0
 374 -128 386 -121 396 -114 c 1
300 115 m 0
 368 115 411 198 411 329 c 0
 411 459 368 537 300 537 c 0
 232 537 189 459 189 329 c 0xf4
 189 198 232 115 300 115 c 0
EndSplineSet
Ligature2: "'ccmp' Glyph Composition/Decomposition in Latin lookup 6 subtable" O uni0328
EndChar

StartChar: uni01EB
Encoding: 491 491 349
Width: 600
GlyphClass: 2
Flags: MW
HStem: -210 87<290.5 361.5> -10 21G 389 119<266 334>
VStem: 47 151<205 291 205 330.5> 214 99<-98.5 -94> 402 151<205 291>
AnchorPoint: "Anchor-0" 300 518 basechar 0
LayerCount: 2
Fore
SplineSet
214 -119 m 0
 214 -69 245 -30 269 -10 c 1
 149 4 47 97 47 248 c 0xf4
 47 413 168 508 300 508 c 0
 432 508 553 413 553 248 c 0
 553 116 483 46 379 0 c 0
 331 -22 313 -56 313 -85 c 0
 313 -112 334 -123 355 -123 c 0
 368 -123 381 -117 390 -111 c 1
 421 -177 l 1
 395 -197 351 -210 320 -210 c 0
 261 -210 214 -179 214 -119 c 0
198 248 m 0xf4
 198 162 232 107 300 107 c 0
 368 107 402 162 402 248 c 0
 402 334 368 389 300 389 c 0
 232 389 198 334 198 248 c 0xf4
EndSplineSet
Ligature2: "'ccmp' Glyph Composition/Decomposition in Latin lookup 6 subtable" o uni0328
EndChar

StartChar: uni0218
Encoding: 536 536 180
Width: 600
Flags: MW
HStem: -229 59<207 218> -12 127<273.5 336 273.5 379> 537 127<286.5 343>
VStem: 76 149<458 496.5 458 524> 290 105<-144.5 -123.5> 400 151<158.5 198.5>
LayerCount: 2
Fore
SplineSet
50 82 m 1
 135 183 l 1
 184 143 245 115 302 115 c 0
 370 115 400 139 400 178 c 0
 400 219 362 232 299 256 c 1
 215 292 l 1
 142 319 76 375 76 470 c 0
 76 578 174 664 315 664 c 0
 394 664 473 634 532 578 c 1
 457 485 l 1
 412 518 371 537 315 537 c 0
 258 537 225 515 225 478 c 0
 225 438 269 424 332 401 c 1
 411 367 l 1
 497 335 551 282 551 190 c 0
 551 82 460 -12 298 -12 c 0
 210 -12 120 20 50 82 c 1
274 -42 m 1xf8
 364 -51 395 -76 395 -126 c 0
 395 -194 313 -224 218 -229 c 1
 207 -170 l 1
 255 -165 290 -156 290 -133 c 0
 290 -114 276 -104 246 -96 c 1
 274 -42 l 1xf8
EndSplineSet
EndChar

StartChar: uni0219
Encoding: 537 537 360
Width: 600
Flags: MW
HStem: -229 59<204 215> -12 109<266 332.5 266 375.5> 399 109<285 342>
VStem: 84 146<345 372.5 345 399> 287 105<-144.5 -123.5> 394 146<126 154>
LayerCount: 2
Fore
SplineSet
53 64 m 1
 119 156 l 1
 176 120 233 97 299 97 c 0
 366 97 394 113 394 139 c 0
 394 169 341 186 261 208 c 0
 174 232 84 274 84 353 c 0
 84 445 171 508 313 508 c 0
 401 508 475 473 527 440 c 1
 461 352 l 1
 416 379 368 399 316 399 c 0
 254 399 230 385 230 360 c 0
 230 330 287 315 357 297 c 0
 455 271 540 234 540 148 c 0
 540 58 455 -12 296 -12 c 0
 207 -12 116 22 53 64 c 1
272 -42 m 1xf8
 361 -51 392 -76 392 -126 c 0
 392 -194 310 -224 215 -229 c 1
 204 -170 l 1
 252 -165 287 -156 287 -133 c 0
 287 -114 273 -104 243 -96 c 1
 272 -42 l 1xf8
EndSplineSet
EndChar

StartChar: uni021A
Encoding: 538 538 186
Width: 600
Flags: MW
HStem: -229 59<197 208> 0 21G<226 226 226 374> 528 124<31 226 31 569 374 374 374 569>
VStem: 226 148<0 528 0 528> 280 105<-144.5 -123.5>
LayerCount: 2
Fore
SplineSet
226 0 m 1xf0
 226 528 l 1
 31 528 l 1
 31 652 l 1
 569 652 l 1
 569 528 l 1
 374 528 l 1
 374 0 l 1
 226 0 l 1xf0
265 -42 m 1xe8
 354 -51 385 -76 385 -126 c 0
 385 -194 303 -224 208 -229 c 1
 197 -170 l 1
 245 -165 280 -156 280 -133 c 0
 280 -114 266 -104 237 -96 c 1
 265 -42 l 1xe8
EndSplineSet
EndChar

StartChar: uni021B
Encoding: 539 539 366
Width: 600
Flags: MW
HStem: -229 59<265 276> -12 115<389 420> 381 115<49 181 321 531>
VStem: 174 147<206 207 207 381> 348 106<-144.5 -123.5>
LayerCount: 2
Fore
SplineSet
174 206 m 2
 174 381 l 1
 49 381 l 1
 49 490 l 1
 181 496 l 1
 200 628 l 1
 321 628 l 1
 321 496 l 1
 531 496 l 1
 531 381 l 1
 321 381 l 1
 321 207 l 2
 321 132 353 103 425 103 c 0
 463 103 495 111 524 121 c 1
 550 15 l 1
 506 2 452 -12 388 -12 c 0
 230 -12 174 76 174 206 c 2
333 -42 m 1xf8
 422 -51 454 -76 454 -126 c 0
 454 -194 371 -224 276 -229 c 1
 265 -170 l 1
 313 -165 348 -156 348 -133 c 0
 348 -114 334 -104 305 -96 c 1
 333 -42 l 1xf8
EndSplineSet
EndChar

StartChar: uni0237
Encoding: 567 567 411
Width: 600
GlyphClass: 2
Flags: MW
HStem: -196 115<171.5 221.5 171.5 285> 381 115<79 425 79 278>
VStem: 278 147<24 30 30 381 381 381>
AnchorPoint: "Anchor-0" 345 518 basechar 0
LayerCount: 2
Fore
SplineSet
79 381 m 1
 79 496 l 1
 425 496 l 1
 425 30 l 2
 425 -91 375 -196 195 -196 c 0
 134 -196 85 -182 42 -162 c 1
 85 -57 l 1
 125 -75 157 -81 186 -81 c 0
 257 -81 278 -48 278 24 c 2
 278 381 l 1
 79 381 l 1
EndSplineSet
EndChar

StartChar: uni0243
Encoding: 579 579 77
Width: 600
Flags: MW
HStem: 0 105<231 297 297 309> 175 71<9 84 231 337> 310 87<231 284 284 297 231 284> 546 106<231 231 231 285>
VStem: 84 147<105 105 105 175 105 175 246 310 397 546> 387 140<467.5 502> 419 141<176.5 245.5>
LayerCount: 2
Fore
SplineSet
231 105 m 1xfa
 297 105 l 2
 376 105 419 142 419 211 c 0
 419 280 378 310 297 310 c 2
 231 310 l 1
 231 246 l 1
 337 246 l 1
 337 175 l 1
 231 175 l 1
 231 105 l 1xfa
231 546 m 1
 231 397 l 1
 284 397 l 2
 354 397 387 425 387 478 c 0xfc
 387 526 353 546 285 546 c 2
 231 546 l 1
418 366 m 1xfa
 418 362 l 1
 511 344 560 292 560 200 c 0xfa
 560 62 451 0 309 0 c 2
 84 0 l 1
 84 175 l 1
 9 175 l 1
 9 240 l 1
 84 246 l 1
 84 652 l 1
 290 652 l 2
 426 652 527 613 527 495 c 0xfc
 527 440 494 385 418 366 c 1xfa
EndSplineSet
EndChar

StartChar: uni0250
Encoding: 592 592 412
Width: 600
GlyphClass: 2
Flags: MW
HStem: -12 117<291.5 338.5> 177 88<219 219> 394 114<351 357> 476 20G<72 192 192 192>
VStem: 72 147<265 347 265 496> 405 141<325.5 363>
AnchorPoint: "Anchor-2" 322 -22 basechar 0
AnchorPoint: "Anchor-0" 312 518 basechar 0
LayerCount: 2
Fore
SplineSet
546 359 m 0xdc
 546 247 454 191 219 177 c 1
 224 132 258 105 325 105 c 0
 373 105 420 124 476 152 c 1
 528 55 l 1
 460 16 381 -12 296 -12 c 0
 157 -12 72 60 72 212 c 2
 72 496 l 1
 192 496 l 1xdc
 203 440 l 1
 207 440 l 1
 257 478 319 508 383 508 c 0xec
 483 508 546 442 546 359 c 0xdc
405 347 m 0xec
 405 379 378 394 336 394 c 0
 292 394 254 374 219 347 c 1
 219 265 l 1
 365 273 405 304 405 347 c 0xec
EndSplineSet
EndChar
